<ttFont>
    <TTGlyph name="A" xMin="0" yMin="-4" xMax="747" yMax="710">
      <contour>
        <pt x="129" y="0" on="1"/>
        <pt x="7" y="-4" on="1"/>
        <pt x="0" y="51" on="1"/>
        <pt x="35" y="54" on="0"/>
        <pt x="79" y="82" on="0"/>
        <pt x="99" y="115" on="0"/>
        <pt x="111" y="148" on="1"/>
        <pt x="320" y="710" on="1"/>
        <pt x="407" y="710" on="1"/>
        <pt x="643" y="132" on="1"/>
        <pt x="661" y="87" on="0"/>
        <pt x="700" y="50" on="0"/>
        <pt x="736" y="50" on="1"/>
        <pt x="747" y="-3" on="1"/>
        <pt x="701" y="0" on="0"/>
        <pt x="491" y="0" on="0"/>
        <pt x="444" y="-3" on="1"/>
        <pt x="435" y="50" on="1"/>
        <pt x="488" y="50" on="0"/>
        <pt x="514" y="65" on="0"/>
        <pt x="514" y="85" on="0"/>
        <pt x="508" y="98" on="1"/>
        <pt x="441" y="248" on="1"/>
        <pt x="224" y="248" on="1"/>
        <pt x="182" y="128" on="1"/>
        <pt x="178" y="117" on="0"/>
        <pt x="178" y="107" on="1"/>
        <pt x="178" y="86" on="0"/>
        <pt x="228" y="52" on="0"/>
        <pt x="280" y="51" on="1"/>
        <pt x="290" y="-4" on="1"/>
      </contour>
      <contour>
        <pt x="323" y="529" on="1"/>
        <pt x="246" y="312" on="1"/>
        <pt x="413" y="312" on="1"/>
      </contour>
    </TTGlyph>
    <TTGlyph name="AE" xMin="-19" yMin="-3" xMax="1050" yMax="713">
      <contour>
        <pt x="829" y="651" on="1"/>
        <pt x="704" y="650" on="1"/>
        <pt x="680" y="650" on="1"/>
        <pt x="639" y="648" on="0"/>
        <pt x="639" y="646" on="1"/>
        <pt x="639" y="399" on="1"/>
        <pt x="805" y="399" on="1"/>
        <pt x="817" y="399" on="0"/>
        <pt x="817" y="495" on="1"/>
        <pt x="873" y="504" on="1"/>
        <pt x="870" y="366" on="1"/>
        <pt x="870" y="309" on="0"/>
        <pt x="873" y="243" on="1"/>
        <pt x="815" y="232" on="1"/>
        <pt x="815" y="289" on="0"/>
        <pt x="811" y="321" on="0"/>
        <pt x="803" y="321" on="1"/>
        <pt x="639" y="321" on="1"/>
        <pt x="639" y="115" on="1"/>
        <pt x="639" y="82" on="0"/>
        <pt x="675" y="62" on="0"/>
        <pt x="718" y="62" on="1"/>
        <pt x="812" y="62" on="1"/>
        <pt x="947" y="62" on="0"/>
        <pt x="996" y="206" on="1"/>
        <pt x="1050" y="195" on="1"/>
        <pt x="1050" y="178" on="0"/>
        <pt x="992" y="0" on="0"/>
        <pt x="978" y="0" on="1"/>
        <pt x="747" y="-1" on="1"/>
        <pt x="747" y="-1" on="0"/>
        <pt x="564" y="0" on="1"/>
        <pt x="510" y="0" on="0"/>
        <pt x="434" y="-3" on="1"/>
        <pt x="422" y="51" on="1"/>
        <pt x="470" y="52" on="0"/>
        <pt x="501" y="70" on="0"/>
        <pt x="501" y="87" on="1"/>
        <pt x="501" y="231" on="1"/>
        <pt x="274" y="231" on="1"/>
        <pt x="194" y="103" on="1"/>
        <pt x="187" y="86" on="1"/>
        <pt x="187" y="72" on="0"/>
        <pt x="235" y="53" on="0"/>
        <pt x="260" y="51" on="1"/>
        <pt x="259" y="-3" on="1"/>
        <pt x="105" y="1" on="1"/>
        <pt x="-19" y="-3" on="1"/>
        <pt x="-14" y="52" on="1"/>
        <pt x="8" y="52" on="1"/>
        <pt x="44" y="55" on="0"/>
        <pt x="93" y="101" on="0"/>
        <pt x="125" y="149" on="1"/>
        <pt x="438" y="640" on="1"/>
        <pt x="453" y="659" on="0"/>
        <pt x="355" y="659" on="1"/>
        <pt x="342" y="713" on="1"/>
        <pt x="519" y="710" on="0"/>
        <pt x="561" y="710" on="1"/>
        <pt x="820" y="710" on="1"/>
        <pt x="976" y="709" on="1"/>
        <pt x="988" y="682" on="0"/>
        <pt x="988" y="562" on="0"/>
        <pt x="983" y="515" on="1"/>
        <pt x="939" y="522" on="1"/>
        <pt x="928" y="591" on="0"/>
        <pt x="877" y="651" on="0"/>
      </contour>
      <contour>
        <pt x="501" y="319" on="1"/>
        <pt x="501" y="593" on="1"/>
        <pt x="330" y="319" on="1"/>
      </contour>
    </TTGlyph>
    <TTGlyph name="Aacute" xMin="0" yMin="-4" xMax="747" yMax="917">
      <contour>
        <pt x="129" y="0" on="1"/>
        <pt x="7" y="-4" on="1"/>
        <pt x="0" y="51" on="1"/>
        <pt x="35" y="54" on="0"/>
        <pt x="79" y="82" on="0"/>
        <pt x="99" y="115" on="0"/>
        <pt x="111" y="148" on="1"/>
        <pt x="320" y="710" on="1"/>
        <pt x="407" y="710" on="1"/>
        <pt x="643" y="132" on="1"/>
        <pt x="661" y="87" on="0"/>
        <pt x="700" y="50" on="0"/>
        <pt x="736" y="50" on="1"/>
        <pt x="747" y="-3" on="1"/>
        <pt x="701" y="0" on="0"/>
        <pt x="491" y="0" on="0"/>
        <pt x="444" y="-3" on="1"/>
        <pt x="435" y="50" on="1"/>
        <pt x="488" y="50" on="0"/>
        <pt x="514" y="65" on="0"/>
        <pt x="514" y="85" on="0"/>
        <pt x="508" y="98" on="1"/>
        <pt x="441" y="248" on="1"/>
        <pt x="224" y="248" on="1"/>
        <pt x="182" y="128" on="1"/>
        <pt x="178" y="117" on="0"/>
        <pt x="178" y="107" on="1"/>
        <pt x="178" y="86" on="0"/>
        <pt x="228" y="52" on="0"/>
        <pt x="280" y="51" on="1"/>
        <pt x="290" y="-4" on="1"/>
      </contour>
      <contour>
        <pt x="323" y="529" on="1"/>
        <pt x="246" y="312" on="1"/>
        <pt x="413" y="312" on="1"/>
      </contour>
      <contour>
        <pt x="546" y="840" on="1"/>
        <pt x="547" y="837" on="0"/>
        <pt x="547" y="832" on="0"/>
        <pt x="545" y="831" on="1"/>
        <pt x="322" y="770" on="1"/>
        <pt x="304" y="787" on="0"/>
        <pt x="304" y="805" on="1"/>
        <pt x="304" y="809" on="0"/>
        <pt x="305" y="813" on="1"/>
        <pt x="470" y="917" on="1"/>
        <pt x="520" y="890" on="0"/>
      </contour>
    </TTGlyph>
    <TTGlyph name="Acircumflex" xMin="0" yMin="-4" xMax="747" yMax="932">
      <contour>
        <pt x="129" y="0" on="1"/>
        <pt x="7" y="-4" on="1"/>
        <pt x="0" y="51" on="1"/>
        <pt x="35" y="54" on="0"/>
        <pt x="79" y="82" on="0"/>
        <pt x="99" y="115" on="0"/>
        <pt x="111" y="148" on="1"/>
        <pt x="320" y="710" on="1"/>
        <pt x="407" y="710" on="1"/>
        <pt x="643" y="132" on="1"/>
        <pt x="661" y="87" on="0"/>
        <pt x="700" y="50" on="0"/>
        <pt x="736" y="50" on="1"/>
        <pt x="747" y="-3" on="1"/>
        <pt x="701" y="0" on="0"/>
        <pt x="491" y="0" on="0"/>
        <pt x="444" y="-3" on="1"/>
        <pt x="435" y="50" on="1"/>
        <pt x="488" y="50" on="0"/>
        <pt x="514" y="65" on="0"/>
        <pt x="514" y="85" on="0"/>
        <pt x="508" y="98" on="1"/>
        <pt x="441" y="248" on="1"/>
        <pt x="224" y="248" on="1"/>
        <pt x="182" y="128" on="1"/>
        <pt x="178" y="117" on="0"/>
        <pt x="178" y="107" on="1"/>
        <pt x="178" y="86" on="0"/>
        <pt x="228" y="52" on="0"/>
        <pt x="280" y="51" on="1"/>
        <pt x="290" y="-4" on="1"/>
      </contour>
      <contour>
        <pt x="312" y="930" on="1"/>
        <pt x="372" y="932" on="0"/>
        <pt x="416" y="932" on="0"/>
        <pt x="421" y="920" on="1"/>
        <pt x="521" y="798" on="1"/>
        <pt x="521" y="782" on="0"/>
        <pt x="485" y="769" on="1"/>
        <pt x="363" y="852" on="1"/>
        <pt x="242" y="769" on="1"/>
        <pt x="214" y="776" on="0"/>
        <pt x="206" y="798" on="1"/>
      </contour>
      <contour>
        <pt x="323" y="529" on="1"/>
        <pt x="246" y="312" on="1"/>
        <pt x="413" y="312" on="1"/>
      </contour>
    </TTGlyph>
    <TTGlyph name="Adieresis" xMin="0" yMin="-4" xMax="747" yMax="956">
      <component glyphName="A" x="0" y="0" flags="0x1004"/>
      <component glyphName="dieresis" x="130" y="280" flags="0x1004"/>
    </TTGlyph>
    <TTGlyph name="Agrave" xMin="0" yMin="-4" xMax="747" yMax="919">
      <contour>
        <pt x="129" y="0" on="1"/>
        <pt x="7" y="-4" on="1"/>
        <pt x="0" y="51" on="1"/>
        <pt x="35" y="54" on="0"/>
        <pt x="79" y="82" on="0"/>
        <pt x="99" y="115" on="0"/>
        <pt x="111" y="148" on="1"/>
        <pt x="320" y="710" on="1"/>
        <pt x="407" y="710" on="1"/>
        <pt x="643" y="132" on="1"/>
        <pt x="661" y="87" on="0"/>
        <pt x="700" y="50" on="0"/>
        <pt x="736" y="50" on="1"/>
        <pt x="747" y="-3" on="1"/>
        <pt x="701" y="0" on="0"/>
        <pt x="491" y="0" on="0"/>
        <pt x="444" y="-3" on="1"/>
        <pt x="435" y="50" on="1"/>
        <pt x="488" y="50" on="0"/>
        <pt x="514" y="65" on="0"/>
        <pt x="514" y="85" on="0"/>
        <pt x="508" y="98" on="1"/>
        <pt x="441" y="248" on="1"/>
        <pt x="224" y="248" on="1"/>
        <pt x="182" y="128" on="1"/>
        <pt x="178" y="117" on="0"/>
        <pt x="178" y="107" on="1"/>
        <pt x="178" y="86" on="0"/>
        <pt x="228" y="52" on="0"/>
        <pt x="280" y="51" on="1"/>
        <pt x="290" y="-4" on="1"/>
      </contour>
      <contour>
        <pt x="456" y="813" on="1"/>
        <pt x="458" y="808" on="0"/>
        <pt x="458" y="786" on="0"/>
        <pt x="442" y="769" on="1"/>
        <pt x="216" y="820" on="1"/>
        <pt x="213" y="821" on="0"/>
        <pt x="213" y="825" on="0"/>
        <pt x="215" y="828" on="1"/>
        <pt x="244" y="892" on="0"/>
        <pt x="286" y="919" on="1"/>
      </contour>
      <contour>
        <pt x="323" y="529" on="1"/>
        <pt x="246" y="312" on="1"/>
        <pt x="413" y="312" on="1"/>
      </contour>
    </TTGlyph>
    <TTGlyph name="Aring" xMin="0" yMin="-4" xMax="747" yMax="928">
      <contour>
        <pt x="313" y="751" on="0"/>
        <pt x="258" y="803" on="0"/>
        <pt x="258" y="874" on="0"/>
        <pt x="310" y="928" on="0"/>
        <pt x="390" y="928" on="0"/>
        <pt x="445" y="880" on="0"/>
        <pt x="445" y="807" on="0"/>
        <pt x="387" y="751" on="0"/>
      </contour>
      <contour>
        <pt x="317" y="854" on="0"/>
        <pt x="317" y="828" on="0"/>
        <pt x="339" y="810" on="0"/>
        <pt x="367" y="810" on="0"/>
        <pt x="387" y="830" on="0"/>
        <pt x="387" y="843" on="1"/>
        <pt x="387" y="873" on="0"/>
        <pt x="354" y="873" on="1"/>
        <pt x="339" y="873" on="0"/>
      </contour>
      <contour>
        <pt x="129" y="0" on="1"/>
        <pt x="7" y="-4" on="1"/>
        <pt x="0" y="51" on="1"/>
        <pt x="35" y="54" on="0"/>
        <pt x="79" y="82" on="0"/>
        <pt x="99" y="115" on="0"/>
        <pt x="111" y="148" on="1"/>
        <pt x="320" y="710" on="1"/>
        <pt x="407" y="710" on="1"/>
        <pt x="643" y="132" on="1"/>
        <pt x="661" y="87" on="0"/>
        <pt x="700" y="50" on="0"/>
        <pt x="736" y="50" on="1"/>
        <pt x="747" y="-3" on="1"/>
        <pt x="701" y="0" on="0"/>
        <pt x="491" y="0" on="0"/>
        <pt x="444" y="-3" on="1"/>
        <pt x="435" y="50" on="1"/>
        <pt x="488" y="50" on="0"/>
        <pt x="514" y="65" on="0"/>
        <pt x="514" y="85" on="0"/>
        <pt x="508" y="98" on="1"/>
        <pt x="441" y="248" on="1"/>
        <pt x="224" y="248" on="1"/>
        <pt x="182" y="128" on="1"/>
        <pt x="178" y="117" on="0"/>
        <pt x="178" y="107" on="1"/>
        <pt x="178" y="86" on="0"/>
        <pt x="228" y="52" on="0"/>
        <pt x="280" y="51" on="1"/>
        <pt x="290" y="-4" on="1"/>
      </contour>
      <contour>
        <pt x="323" y="529" on="1"/>
        <pt x="246" y="312" on="1"/>
        <pt x="413" y="312" on="1"/>
      </contour>
    </TTGlyph>
    <TTGlyph name="Atilde" xMin="0" yMin="-4" xMax="747" yMax="912">
      <contour>
        <pt x="129" y="0" on="1"/>
        <pt x="7" y="-4" on="1"/>
        <pt x="0" y="51" on="1"/>
        <pt x="35" y="54" on="0"/>
        <pt x="79" y="82" on="0"/>
        <pt x="99" y="115" on="0"/>
        <pt x="111" y="148" on="1"/>
        <pt x="320" y="710" on="1"/>
        <pt x="407" y="710" on="1"/>
        <pt x="643" y="132" on="1"/>
        <pt x="661" y="87" on="0"/>
        <pt x="700" y="50" on="0"/>
        <pt x="736" y="50" on="1"/>
        <pt x="747" y="-3" on="1"/>
        <pt x="701" y="0" on="0"/>
        <pt x="491" y="0" on="0"/>
        <pt x="444" y="-3" on="1"/>
        <pt x="435" y="50" on="1"/>
        <pt x="488" y="50" on="0"/>
        <pt x="514" y="65" on="0"/>
        <pt x="514" y="85" on="0"/>
        <pt x="508" y="98" on="1"/>
        <pt x="441" y="248" on="1"/>
        <pt x="224" y="248" on="1"/>
        <pt x="182" y="128" on="1"/>
        <pt x="178" y="117" on="0"/>
        <pt x="178" y="107" on="1"/>
        <pt x="178" y="86" on="0"/>
        <pt x="228" y="52" on="0"/>
        <pt x="280" y="51" on="1"/>
        <pt x="290" y="-4" on="1"/>
      </contour>
      <contour>
        <pt x="281" y="884" on="1"/>
        <pt x="446" y="880" on="1"/>
        <pt x="497" y="880" on="0"/>
        <pt x="524" y="912" on="1"/>
        <pt x="531" y="912" on="0"/>
        <pt x="547" y="897" on="1"/>
        <pt x="548" y="895" on="0"/>
        <pt x="548" y="889" on="0"/>
        <pt x="546" y="885" on="1"/>
        <pt x="492" y="795" on="0"/>
        <pt x="448" y="795" on="1"/>
        <pt x="288" y="797" on="1"/>
        <pt x="251" y="797" on="0"/>
        <pt x="221" y="772" on="1"/>
        <pt x="216" y="771" on="0"/>
        <pt x="200" y="785" on="1"/>
        <pt x="198" y="788" on="0"/>
        <pt x="198" y="794" on="0"/>
        <pt x="200" y="797" on="1"/>
        <pt x="244" y="884" on="0"/>
      </contour>
      <contour>
        <pt x="323" y="529" on="1"/>
        <pt x="246" y="312" on="1"/>
        <pt x="413" y="312" on="1"/>
      </contour>
    </TTGlyph>
    <TTGlyph name="B" xMin="30" yMin="-4" xMax="615" yMax="714">
      <contour>
        <pt x="330" y="-4" on="1"/>
        <pt x="188" y="0" on="1"/>
        <pt x="120" y="0" on="0"/>
        <pt x="43" y="-3" on="1"/>
        <pt x="31" y="51" on="1"/>
        <pt x="79" y="52" on="0"/>
        <pt x="110" y="70" on="0"/>
        <pt x="110" y="87" on="1"/>
        <pt x="110" y="623" on="1"/>
        <pt x="110" y="641" on="0"/>
        <pt x="83" y="659" on="0"/>
        <pt x="43" y="659" on="1"/>
        <pt x="30" y="713" on="1"/>
        <pt x="150" y="710" on="0"/>
        <pt x="170" y="710" on="1"/>
        <pt x="330" y="714" on="1"/>
        <pt x="565" y="714" on="0"/>
        <pt x="565" y="550" on="1"/>
        <pt x="565" y="440" on="0"/>
        <pt x="432" y="388" on="1"/>
        <pt x="508" y="374" on="0"/>
        <pt x="615" y="279" on="0"/>
        <pt x="615" y="211" on="1"/>
        <pt x="615" y="109" on="0"/>
        <pt x="470" y="-4" on="0"/>
      </contour>
      <contour>
        <pt x="424" y="590" on="0"/>
        <pt x="354" y="650" on="0"/>
        <pt x="248" y="650" on="0"/>
        <pt x="248" y="643" on="1"/>
        <pt x="248" y="398" on="1"/>
        <pt x="250" y="397" on="0"/>
        <pt x="289" y="397" on="1"/>
        <pt x="352" y="397" on="0"/>
        <pt x="424" y="469" on="0"/>
      </contour>
      <contour>
        <pt x="248" y="115" on="1"/>
        <pt x="248" y="59" on="0"/>
        <pt x="393" y="59" on="0"/>
        <pt x="469" y="140" on="0"/>
        <pt x="469" y="195" on="1"/>
        <pt x="469" y="273" on="0"/>
        <pt x="370" y="343" on="0"/>
        <pt x="249" y="343" on="0"/>
        <pt x="248" y="342" on="1"/>
      </contour>
    </TTGlyph>
    <TTGlyph name="C" xMin="40" yMin="-12" xMax="738" yMax="722">
      <contour>
        <pt x="434" y="652" on="1"/>
        <pt x="319" y="652" on="0"/>
        <pt x="196" y="491" on="0"/>
        <pt x="196" y="236" on="0"/>
        <pt x="340" y="60" on="0"/>
        <pt x="455" y="60" on="1"/>
        <pt x="608" y="60" on="0"/>
        <pt x="670" y="213" on="1"/>
        <pt x="738" y="198" on="1"/>
        <pt x="738" y="189" on="0"/>
        <pt x="686" y="44" on="0"/>
        <pt x="680" y="45" on="1"/>
        <pt x="576" y="-12" on="0"/>
        <pt x="435" y="-12" on="1"/>
        <pt x="261" y="-12" on="0"/>
        <pt x="40" y="182" on="0"/>
        <pt x="40" y="341" on="1"/>
        <pt x="40" y="521" on="0"/>
        <pt x="269" y="722" on="0"/>
        <pt x="448" y="722" on="1"/>
        <pt x="527" y="722" on="0"/>
        <pt x="619" y="700" on="1"/>
        <pt x="666" y="691" on="0"/>
        <pt x="704" y="685" on="1"/>
        <pt x="715" y="662" on="0"/>
        <pt x="715" y="550" on="0"/>
        <pt x="709" y="492" on="1"/>
        <pt x="637" y="500" on="1"/>
        <pt x="630" y="559" on="0"/>
        <pt x="609" y="590" on="1"/>
        <pt x="566" y="652" on="0"/>
      </contour>
    </TTGlyph>
    <TTGlyph name="Ccedilla" xMin="40" yMin="-203" xMax="738" yMax="722">
      <contour>
        <pt x="434" y="652" on="1"/>
        <pt x="319" y="652" on="0"/>
        <pt x="196" y="491" on="0"/>
        <pt x="196" y="236" on="0"/>
        <pt x="340" y="60" on="0"/>
        <pt x="455" y="60" on="1"/>
        <pt x="608" y="60" on="0"/>
        <pt x="670" y="213" on="1"/>
        <pt x="738" y="198" on="1"/>
        <pt x="738" y="186" on="0"/>
        <pt x="682" y="44" on="0"/>
        <pt x="668" y="44" on="1"/>
        <pt x="680" y="45" on="1"/>
        <pt x="585" y="-8" on="0"/>
        <pt x="453" y="-12" on="1"/>
        <pt x="427" y="-35" on="1"/>
        <pt x="470" y="-37" on="0"/>
        <pt x="526" y="-83" on="0"/>
        <pt x="526" y="-109" on="1"/>
        <pt x="526" y="-159" on="0"/>
        <pt x="440" y="-202" on="0"/>
        <pt x="373" y="-202" on="1"/>
        <pt x="367" y="-202" on="0"/>
        <pt x="357" y="-202" on="0"/>
        <pt x="357" y="-175" on="0"/>
        <pt x="360" y="-175" on="1"/>
        <pt x="433" y="-166" on="0"/>
        <pt x="433" y="-118" on="1"/>
        <pt x="433" y="-95" on="0"/>
        <pt x="404" y="-74" on="0"/>
        <pt x="365" y="-70" on="0"/>
        <pt x="363" y="-68" on="1"/>
        <pt x="358" y="-62" on="0"/>
        <pt x="352" y="-49" on="1"/>
        <pt x="352" y="-40" on="0"/>
        <pt x="379" y="-9" on="1"/>
        <pt x="227" y="7" on="0"/>
        <pt x="40" y="196" on="0"/>
        <pt x="40" y="341" on="1"/>
        <pt x="40" y="521" on="0"/>
        <pt x="269" y="722" on="0"/>
        <pt x="448" y="722" on="1"/>
        <pt x="527" y="722" on="0"/>
        <pt x="619" y="700" on="1"/>
        <pt x="666" y="691" on="0"/>
        <pt x="704" y="685" on="1"/>
        <pt x="715" y="662" on="0"/>
        <pt x="715" y="550" on="0"/>
        <pt x="709" y="492" on="1"/>
        <pt x="637" y="500" on="1"/>
        <pt x="630" y="559" on="0"/>
        <pt x="609" y="590" on="1"/>
        <pt x="566" y="652" on="0"/>
      </contour>
    </TTGlyph>
    <TTGlyph name="D" xMin="30" yMin="-3" xMax="792" yMax="712">
      <contour>
        <pt x="353" y="-3" on="1"/>
        <pt x="173" y="2" on="1"/>
        <pt x="120" y="2" on="0"/>
        <pt x="43" y="-1" on="1"/>
        <pt x="31" y="53" on="1"/>
        <pt x="79" y="54" on="0"/>
        <pt x="110" y="72" on="0"/>
        <pt x="110" y="89" on="1"/>
        <pt x="110" y="622" on="1"/>
        <pt x="110" y="640" on="0"/>
        <pt x="83" y="658" on="0"/>
        <pt x="43" y="658" on="1"/>
        <pt x="30" y="712" on="1"/>
        <pt x="150" y="709" on="0"/>
        <pt x="170" y="709" on="1"/>
        <pt x="370" y="711" on="1"/>
        <pt x="568" y="711" on="0"/>
        <pt x="792" y="532" on="0"/>
        <pt x="792" y="197" on="0"/>
        <pt x="563" y="-3" on="0"/>
      </contour>
      <contour>
        <pt x="505" y="60" on="0"/>
        <pt x="637" y="210" on="0"/>
        <pt x="637" y="495" on="0"/>
        <pt x="486" y="652" on="0"/>
        <pt x="346" y="652" on="1"/>
        <pt x="271" y="652" on="1"/>
        <pt x="245" y="652" on="0"/>
        <pt x="245" y="645" on="1"/>
        <pt x="245" y="126" on="1"/>
        <pt x="245" y="100" on="0"/>
        <pt x="255" y="78" on="0"/>
        <pt x="315" y="60" on="0"/>
        <pt x="380" y="60" on="1"/>
      </contour>
    </TTGlyph>
    <TTGlyph name="E" xMin="30" yMin="-3" xMax="659" yMax="713">
      <contour>
        <pt x="438" y="651" on="1"/>
        <pt x="313" y="650" on="1"/>
        <pt x="289" y="650" on="1"/>
        <pt x="248" y="648" on="0"/>
        <pt x="248" y="646" on="1"/>
        <pt x="248" y="399" on="1"/>
        <pt x="414" y="399" on="1"/>
        <pt x="426" y="399" on="0"/>
        <pt x="426" y="495" on="1"/>
        <pt x="482" y="504" on="1"/>
        <pt x="479" y="366" on="1"/>
        <pt x="479" y="309" on="0"/>
        <pt x="482" y="243" on="1"/>
        <pt x="424" y="232" on="1"/>
        <pt x="424" y="289" on="0"/>
        <pt x="420" y="321" on="0"/>
        <pt x="412" y="321" on="1"/>
        <pt x="248" y="321" on="1"/>
        <pt x="248" y="115" on="1"/>
        <pt x="248" y="82" on="0"/>
        <pt x="284" y="62" on="0"/>
        <pt x="327" y="62" on="1"/>
        <pt x="421" y="62" on="1"/>
        <pt x="556" y="62" on="0"/>
        <pt x="605" y="206" on="1"/>
        <pt x="659" y="195" on="1"/>
        <pt x="659" y="178" on="0"/>
        <pt x="601" y="0" on="0"/>
        <pt x="587" y="0" on="1"/>
        <pt x="356" y="-1" on="1"/>
        <pt x="356" y="-1" on="0"/>
        <pt x="173" y="0" on="1"/>
        <pt x="120" y="0" on="0"/>
        <pt x="43" y="-3" on="1"/>
        <pt x="31" y="51" on="1"/>
        <pt x="79" y="52" on="0"/>
        <pt x="110" y="70" on="0"/>
        <pt x="110" y="87" on="1"/>
        <pt x="110" y="623" on="1"/>
        <pt x="110" y="641" on="0"/>
        <pt x="83" y="659" on="0"/>
        <pt x="43" y="659" on="1"/>
        <pt x="30" y="713" on="1"/>
        <pt x="150" y="710" on="0"/>
        <pt x="170" y="710" on="1"/>
        <pt x="429" y="710" on="1"/>
        <pt x="585" y="709" on="1"/>
        <pt x="597" y="682" on="0"/>
        <pt x="597" y="562" on="0"/>
        <pt x="592" y="515" on="1"/>
        <pt x="548" y="522" on="1"/>
        <pt x="537" y="591" on="0"/>
        <pt x="486" y="651" on="0"/>
      </contour>
    </TTGlyph>
    <TTGlyph name="Eacute" xMin="30" yMin="-3" xMax="659" yMax="917">
      <contour>
        <pt x="438" y="651" on="1"/>
        <pt x="313" y="650" on="1"/>
        <pt x="289" y="650" on="1"/>
        <pt x="248" y="648" on="0"/>
        <pt x="248" y="646" on="1"/>
        <pt x="248" y="399" on="1"/>
        <pt x="414" y="399" on="1"/>
        <pt x="426" y="399" on="0"/>
        <pt x="426" y="495" on="1"/>
        <pt x="482" y="504" on="1"/>
        <pt x="479" y="366" on="1"/>
        <pt x="479" y="309" on="0"/>
        <pt x="482" y="243" on="1"/>
        <pt x="424" y="232" on="1"/>
        <pt x="424" y="289" on="0"/>
        <pt x="420" y="321" on="0"/>
        <pt x="412" y="321" on="1"/>
        <pt x="248" y="321" on="1"/>
        <pt x="248" y="115" on="1"/>
        <pt x="248" y="82" on="0"/>
        <pt x="284" y="62" on="0"/>
        <pt x="327" y="62" on="1"/>
        <pt x="421" y="62" on="1"/>
        <pt x="556" y="62" on="0"/>
        <pt x="605" y="206" on="1"/>
        <pt x="659" y="195" on="1"/>
        <pt x="659" y="178" on="0"/>
        <pt x="601" y="0" on="0"/>
        <pt x="587" y="0" on="1"/>
        <pt x="356" y="-1" on="1"/>
        <pt x="356" y="-1" on="0"/>
        <pt x="173" y="0" on="1"/>
        <pt x="120" y="0" on="0"/>
        <pt x="43" y="-3" on="1"/>
        <pt x="31" y="51" on="1"/>
        <pt x="79" y="52" on="0"/>
        <pt x="110" y="70" on="0"/>
        <pt x="110" y="87" on="1"/>
        <pt x="110" y="623" on="1"/>
        <pt x="110" y="641" on="0"/>
        <pt x="83" y="659" on="0"/>
        <pt x="43" y="659" on="1"/>
        <pt x="30" y="713" on="1"/>
        <pt x="150" y="710" on="0"/>
        <pt x="170" y="710" on="1"/>
        <pt x="429" y="710" on="1"/>
        <pt x="585" y="709" on="1"/>
        <pt x="597" y="682" on="0"/>
        <pt x="597" y="562" on="0"/>
        <pt x="592" y="515" on="1"/>
        <pt x="548" y="522" on="1"/>
        <pt x="537" y="591" on="0"/>
        <pt x="486" y="651" on="0"/>
      </contour>
      <contour>
        <pt x="507" y="840" on="1"/>
        <pt x="508" y="837" on="0"/>
        <pt x="508" y="832" on="0"/>
        <pt x="506" y="831" on="1"/>
        <pt x="283" y="770" on="1"/>
        <pt x="265" y="787" on="0"/>
        <pt x="265" y="805" on="1"/>
        <pt x="265" y="809" on="0"/>
        <pt x="266" y="813" on="1"/>
        <pt x="431" y="917" on="1"/>
        <pt x="481" y="890" on="0"/>
      </contour>
    </TTGlyph>
    <TTGlyph name="Ecircumflex" xMin="30" yMin="-3" xMax="659" yMax="932">
      <contour>
        <pt x="438" y="651" on="1"/>
        <pt x="313" y="650" on="1"/>
        <pt x="289" y="650" on="1"/>
        <pt x="248" y="648" on="0"/>
        <pt x="248" y="646" on="1"/>
        <pt x="248" y="399" on="1"/>
        <pt x="414" y="399" on="1"/>
        <pt x="426" y="399" on="0"/>
        <pt x="426" y="495" on="1"/>
        <pt x="482" y="504" on="1"/>
        <pt x="479" y="366" on="1"/>
        <pt x="479" y="309" on="0"/>
        <pt x="482" y="243" on="1"/>
        <pt x="424" y="232" on="1"/>
        <pt x="424" y="289" on="0"/>
        <pt x="420" y="321" on="0"/>
        <pt x="412" y="321" on="1"/>
        <pt x="248" y="321" on="1"/>
        <pt x="248" y="115" on="1"/>
        <pt x="248" y="82" on="0"/>
        <pt x="284" y="62" on="0"/>
        <pt x="327" y="62" on="1"/>
        <pt x="421" y="62" on="1"/>
        <pt x="556" y="62" on="0"/>
        <pt x="605" y="206" on="1"/>
        <pt x="659" y="195" on="1"/>
        <pt x="659" y="178" on="0"/>
        <pt x="601" y="0" on="0"/>
        <pt x="587" y="0" on="1"/>
        <pt x="356" y="-1" on="1"/>
        <pt x="356" y="-1" on="0"/>
        <pt x="173" y="0" on="1"/>
        <pt x="120" y="0" on="0"/>
        <pt x="43" y="-3" on="1"/>
        <pt x="31" y="51" on="1"/>
        <pt x="79" y="52" on="0"/>
        <pt x="110" y="70" on="0"/>
        <pt x="110" y="87" on="1"/>
        <pt x="110" y="623" on="1"/>
        <pt x="110" y="641" on="0"/>
        <pt x="83" y="659" on="0"/>
        <pt x="43" y="659" on="1"/>
        <pt x="30" y="713" on="1"/>
        <pt x="150" y="710" on="0"/>
        <pt x="170" y="710" on="1"/>
        <pt x="429" y="710" on="1"/>
        <pt x="585" y="709" on="1"/>
        <pt x="597" y="682" on="0"/>
        <pt x="597" y="562" on="0"/>
        <pt x="592" y="515" on="1"/>
        <pt x="548" y="522" on="1"/>
        <pt x="537" y="591" on="0"/>
        <pt x="486" y="651" on="0"/>
      </contour>
      <contour>
        <pt x="302" y="930" on="1"/>
        <pt x="362" y="932" on="0"/>
        <pt x="406" y="932" on="0"/>
        <pt x="411" y="920" on="1"/>
        <pt x="511" y="798" on="1"/>
        <pt x="511" y="782" on="0"/>
        <pt x="475" y="769" on="1"/>
        <pt x="353" y="852" on="1"/>
        <pt x="232" y="769" on="1"/>
        <pt x="204" y="776" on="0"/>
        <pt x="196" y="798" on="1"/>
      </contour>
    </TTGlyph>
    <TTGlyph name="Edieresis" xMin="30" yMin="-3" xMax="659" yMax="909">
      <contour>
        <pt x="438" y="651" on="1"/>
        <pt x="313" y="650" on="1"/>
        <pt x="289" y="650" on="1"/>
        <pt x="248" y="648" on="0"/>
        <pt x="248" y="646" on="1"/>
        <pt x="248" y="399" on="1"/>
        <pt x="414" y="399" on="1"/>
        <pt x="426" y="399" on="0"/>
        <pt x="426" y="495" on="1"/>
        <pt x="482" y="504" on="1"/>
        <pt x="479" y="366" on="1"/>
        <pt x="479" y="309" on="0"/>
        <pt x="482" y="243" on="1"/>
        <pt x="424" y="232" on="1"/>
        <pt x="424" y="289" on="0"/>
        <pt x="420" y="321" on="0"/>
        <pt x="412" y="321" on="1"/>
        <pt x="248" y="321" on="1"/>
        <pt x="248" y="115" on="1"/>
        <pt x="248" y="82" on="0"/>
        <pt x="284" y="62" on="0"/>
        <pt x="327" y="62" on="1"/>
        <pt x="421" y="62" on="1"/>
        <pt x="556" y="62" on="0"/>
        <pt x="605" y="206" on="1"/>
        <pt x="659" y="195" on="1"/>
        <pt x="659" y="178" on="0"/>
        <pt x="601" y="0" on="0"/>
        <pt x="587" y="0" on="1"/>
        <pt x="356" y="-1" on="1"/>
        <pt x="356" y="-1" on="0"/>
        <pt x="173" y="0" on="1"/>
        <pt x="120" y="0" on="0"/>
        <pt x="43" y="-3" on="1"/>
        <pt x="31" y="51" on="1"/>
        <pt x="79" y="52" on="0"/>
        <pt x="110" y="70" on="0"/>
        <pt x="110" y="87" on="1"/>
        <pt x="110" y="623" on="1"/>
        <pt x="110" y="641" on="0"/>
        <pt x="83" y="659" on="0"/>
        <pt x="43" y="659" on="1"/>
        <pt x="30" y="713" on="1"/>
        <pt x="150" y="710" on="0"/>
        <pt x="170" y="710" on="1"/>
        <pt x="429" y="710" on="1"/>
        <pt x="585" y="709" on="1"/>
        <pt x="597" y="682" on="0"/>
        <pt x="597" y="562" on="0"/>
        <pt x="592" y="515" on="1"/>
        <pt x="548" y="522" on="1"/>
        <pt x="537" y="591" on="0"/>
        <pt x="486" y="651" on="0"/>
      </contour>
      <contour>
        <pt x="212" y="771" on="0"/>
        <pt x="174" y="808" on="0"/>
        <pt x="174" y="867" on="0"/>
        <pt x="214" y="909" on="0"/>
        <pt x="274" y="909" on="0"/>
        <pt x="313" y="873" on="0"/>
        <pt x="313" y="813" on="0"/>
        <pt x="273" y="771" on="0"/>
      </contour>
      <contour>
        <pt x="394" y="771" on="0"/>
        <pt x="356" y="808" on="0"/>
        <pt x="356" y="867" on="0"/>
        <pt x="396" y="909" on="0"/>
        <pt x="456" y="909" on="0"/>
        <pt x="494" y="873" on="0"/>
        <pt x="494" y="813" on="0"/>
        <pt x="454" y="771" on="0"/>
      </contour>
    </TTGlyph>
    <TTGlyph name="Egrave" xMin="30" yMin="-3" xMax="659" yMax="919">
      <contour>
        <pt x="438" y="651" on="1"/>
        <pt x="313" y="650" on="1"/>
        <pt x="289" y="650" on="1"/>
        <pt x="248" y="648" on="0"/>
        <pt x="248" y="646" on="1"/>
        <pt x="248" y="399" on="1"/>
        <pt x="414" y="399" on="1"/>
        <pt x="426" y="399" on="0"/>
        <pt x="426" y="495" on="1"/>
        <pt x="482" y="504" on="1"/>
        <pt x="479" y="366" on="1"/>
        <pt x="479" y="309" on="0"/>
        <pt x="482" y="243" on="1"/>
        <pt x="424" y="232" on="1"/>
        <pt x="424" y="289" on="0"/>
        <pt x="420" y="321" on="0"/>
        <pt x="412" y="321" on="1"/>
        <pt x="248" y="321" on="1"/>
        <pt x="248" y="115" on="1"/>
        <pt x="248" y="82" on="0"/>
        <pt x="284" y="62" on="0"/>
        <pt x="327" y="62" on="1"/>
        <pt x="421" y="62" on="1"/>
        <pt x="556" y="62" on="0"/>
        <pt x="605" y="206" on="1"/>
        <pt x="659" y="195" on="1"/>
        <pt x="659" y="178" on="0"/>
        <pt x="601" y="0" on="0"/>
        <pt x="587" y="0" on="1"/>
        <pt x="356" y="-1" on="1"/>
        <pt x="356" y="-1" on="0"/>
        <pt x="173" y="0" on="1"/>
        <pt x="120" y="0" on="0"/>
        <pt x="43" y="-3" on="1"/>
        <pt x="31" y="51" on="1"/>
        <pt x="79" y="52" on="0"/>
        <pt x="110" y="70" on="0"/>
        <pt x="110" y="87" on="1"/>
        <pt x="110" y="623" on="1"/>
        <pt x="110" y="641" on="0"/>
        <pt x="83" y="659" on="0"/>
        <pt x="43" y="659" on="1"/>
        <pt x="30" y="713" on="1"/>
        <pt x="150" y="710" on="0"/>
        <pt x="170" y="710" on="1"/>
        <pt x="429" y="710" on="1"/>
        <pt x="585" y="709" on="1"/>
        <pt x="597" y="682" on="0"/>
        <pt x="597" y="562" on="0"/>
        <pt x="592" y="515" on="1"/>
        <pt x="548" y="522" on="1"/>
        <pt x="537" y="591" on="0"/>
        <pt x="486" y="651" on="0"/>
      </contour>
      <contour>
        <pt x="406" y="813" on="1"/>
        <pt x="408" y="808" on="0"/>
        <pt x="408" y="786" on="0"/>
        <pt x="392" y="769" on="1"/>
        <pt x="166" y="820" on="1"/>
        <pt x="163" y="821" on="0"/>
        <pt x="163" y="825" on="0"/>
        <pt x="165" y="828" on="1"/>
        <pt x="194" y="892" on="0"/>
        <pt x="236" y="919" on="1"/>
      </contour>
    </TTGlyph>
    <TTGlyph name="Eth" xMin="30" yMin="-3" xMax="794" yMax="712">
      <contour>
        <pt x="33" y="397" on="1"/>
        <pt x="33" y="397" on="0"/>
        <pt x="112" y="396" on="1"/>
        <pt x="112" y="622" on="1"/>
        <pt x="112" y="640" on="0"/>
        <pt x="85" y="658" on="0"/>
        <pt x="45" y="658" on="1"/>
        <pt x="32" y="712" on="1"/>
        <pt x="152" y="709" on="0"/>
        <pt x="172" y="709" on="1"/>
        <pt x="172" y="709" on="0"/>
        <pt x="372" y="711" on="1"/>
        <pt x="570" y="711" on="0"/>
        <pt x="794" y="532" on="0"/>
        <pt x="794" y="197" on="0"/>
        <pt x="565" y="-3" on="0"/>
        <pt x="355" y="-3" on="1"/>
        <pt x="175" y="2" on="1"/>
        <pt x="122" y="2" on="0"/>
        <pt x="45" y="-1" on="1"/>
        <pt x="33" y="53" on="1"/>
        <pt x="81" y="54" on="0"/>
        <pt x="112" y="72" on="0"/>
        <pt x="112" y="89" on="1"/>
        <pt x="112" y="338" on="1"/>
        <pt x="82" y="337" on="0"/>
        <pt x="44" y="337" on="1"/>
        <pt x="30" y="351" on="0"/>
        <pt x="30" y="388" on="0"/>
      </contour>
      <contour>
        <pt x="247" y="395" on="1"/>
        <pt x="399" y="397" on="1"/>
        <pt x="407" y="388" on="0"/>
        <pt x="419" y="350" on="0"/>
        <pt x="419" y="337" on="1"/>
        <pt x="369" y="337" on="0"/>
        <pt x="247" y="339" on="1"/>
        <pt x="247" y="126" on="1"/>
        <pt x="247" y="100" on="0"/>
        <pt x="257" y="78" on="0"/>
        <pt x="317" y="60" on="0"/>
        <pt x="382" y="60" on="1"/>
        <pt x="507" y="60" on="0"/>
        <pt x="639" y="210" on="0"/>
        <pt x="639" y="495" on="0"/>
        <pt x="488" y="652" on="0"/>
        <pt x="348" y="652" on="1"/>
        <pt x="273" y="652" on="1"/>
        <pt x="247" y="652" on="0"/>
        <pt x="247" y="645" on="1"/>
      </contour>
    </TTGlyph>
    <TTGlyph name="Euro" xMin="-25" yMin="-11" xMax="551" yMax="693">
      <contour>
        <pt x="182" y="430" on="1"/>
        <pt x="354" y="431" on="1"/>
        <pt x="361" y="423" on="0"/>
        <pt x="372" y="389" on="0"/>
        <pt x="372" y="369" on="0"/>
        <pt x="370" y="361" on="1"/>
        <pt x="177" y="361" on="1"/>
        <pt x="177" y="316" on="1"/>
        <pt x="358" y="316" on="1"/>
        <pt x="364" y="311" on="0"/>
        <pt x="372" y="279" on="0"/>
        <pt x="372" y="259" on="0"/>
        <pt x="370" y="250" on="1"/>
        <pt x="186" y="250" on="1"/>
        <pt x="202" y="164" on="0"/>
        <pt x="295" y="66" on="0"/>
        <pt x="456" y="66" on="0"/>
        <pt x="493" y="167" on="1"/>
        <pt x="551" y="161" on="1"/>
        <pt x="551" y="151" on="0"/>
        <pt x="524" y="51" on="0"/>
        <pt x="516" y="39" on="1"/>
        <pt x="464" y="-11" on="0"/>
        <pt x="364" y="-11" on="1"/>
        <pt x="235" y="-11" on="0"/>
        <pt x="74" y="131" on="0"/>
        <pt x="56" y="250" on="1"/>
        <pt x="17" y="250" on="1"/>
        <pt x="4" y="251" on="0"/>
        <pt x="-15" y="294" on="0"/>
        <pt x="-15" y="316" on="1"/>
        <pt x="50" y="316" on="1"/>
        <pt x="50" y="351" on="0"/>
        <pt x="51" y="361" on="1"/>
        <pt x="7" y="361" on="1"/>
        <pt x="-6" y="362" on="0"/>
        <pt x="-25" y="408" on="0"/>
        <pt x="-25" y="430" on="1"/>
        <pt x="59" y="430" on="1"/>
        <pt x="86" y="542" on="0"/>
        <pt x="246" y="693" on="0"/>
        <pt x="447" y="693" on="0"/>
        <pt x="530" y="657" on="1"/>
        <pt x="540" y="633" on="0"/>
        <pt x="540" y="547" on="0"/>
        <pt x="534" y="504" on="1"/>
        <pt x="480" y="510" on="1"/>
        <pt x="442" y="617" on="0"/>
        <pt x="349" y="617" on="1"/>
        <pt x="276" y="617" on="0"/>
        <pt x="194" y="508" on="0"/>
      </contour>
    </TTGlyph>
    <TTGlyph name="F" xMin="30" yMin="-3" xMax="597" yMax="713">
      <contour>
        <pt x="482" y="504" on="1"/>
        <pt x="479" y="366" on="1"/>
        <pt x="479" y="309" on="0"/>
        <pt x="482" y="243" on="1"/>
        <pt x="424" y="232" on="1"/>
        <pt x="424" y="289" on="0"/>
        <pt x="420" y="321" on="0"/>
        <pt x="412" y="321" on="1"/>
        <pt x="248" y="321" on="1"/>
        <pt x="248" y="87" on="1"/>
        <pt x="248" y="68" on="0"/>
        <pt x="285" y="51" on="0"/>
        <pt x="345" y="51" on="1"/>
        <pt x="358" y="-3" on="1"/>
        <pt x="238" y="0" on="0"/>
        <pt x="120" y="0" on="0"/>
        <pt x="43" y="-3" on="1"/>
        <pt x="31" y="51" on="1"/>
        <pt x="79" y="52" on="0"/>
        <pt x="110" y="70" on="0"/>
        <pt x="110" y="87" on="1"/>
        <pt x="110" y="623" on="1"/>
        <pt x="110" y="641" on="0"/>
        <pt x="83" y="659" on="0"/>
        <pt x="43" y="659" on="1"/>
        <pt x="30" y="713" on="1"/>
        <pt x="150" y="710" on="0"/>
        <pt x="170" y="710" on="1"/>
        <pt x="585" y="710" on="1"/>
        <pt x="597" y="676" on="0"/>
        <pt x="597" y="557" on="0"/>
        <pt x="592" y="515" on="1"/>
        <pt x="548" y="522" on="1"/>
        <pt x="537" y="591" on="0"/>
        <pt x="486" y="651" on="0"/>
        <pt x="438" y="651" on="1"/>
        <pt x="289" y="651" on="1"/>
        <pt x="248" y="649" on="0"/>
        <pt x="248" y="646" on="1"/>
        <pt x="248" y="399" on="1"/>
        <pt x="414" y="399" on="1"/>
        <pt x="426" y="399" on="0"/>
        <pt x="426" y="495" on="1"/>
      </contour>
    </TTGlyph>
    <TTGlyph name="G" xMin="40" yMin="-12" xMax="800" yMax="722">
      <contour>
        <pt x="432" y="653" on="1"/>
        <pt x="321" y="653" on="0"/>
        <pt x="196" y="490" on="0"/>
        <pt x="196" y="233" on="0"/>
        <pt x="327" y="60" on="0"/>
        <pt x="446" y="60" on="1"/>
        <pt x="501" y="60" on="0"/>
        <pt x="583" y="96" on="0"/>
        <pt x="583" y="138" on="1"/>
        <pt x="583" y="244" on="1"/>
        <pt x="583" y="257" on="0"/>
        <pt x="576" y="264" on="1"/>
        <pt x="560" y="280" on="0"/>
        <pt x="466" y="280" on="1"/>
        <pt x="453" y="334" on="1"/>
        <pt x="573" y="331" on="0"/>
        <pt x="712" y="331" on="0"/>
        <pt x="788" y="334" on="1"/>
        <pt x="800" y="280" on="1"/>
        <pt x="752" y="279" on="0"/>
        <pt x="721" y="261" on="0"/>
        <pt x="721" y="244" on="1"/>
        <pt x="721" y="137" on="1"/>
        <pt x="721" y="61" on="0"/>
        <pt x="695" y="52" on="1"/>
        <pt x="702" y="53" on="1"/>
        <pt x="587" y="-12" on="0"/>
        <pt x="432" y="-12" on="1"/>
        <pt x="249" y="-12" on="0"/>
        <pt x="40" y="183" on="0"/>
        <pt x="40" y="516" on="0"/>
        <pt x="271" y="722" on="0"/>
        <pt x="446" y="722" on="1"/>
        <pt x="511" y="722" on="0"/>
        <pt x="657" y="691" on="0"/>
        <pt x="700" y="685" on="1"/>
        <pt x="712" y="660" on="0"/>
        <pt x="712" y="550" on="0"/>
        <pt x="706" y="492" on="1"/>
        <pt x="656" y="501" on="1"/>
        <pt x="642" y="579" on="0"/>
        <pt x="523" y="653" on="0"/>
      </contour>
    </TTGlyph>
    <TTGlyph name="H" xMin="35" yMin="-3" xMax="802" yMax="713">
      <contour>
        <pt x="253" y="623" on="1"/>
        <pt x="253" y="399" on="1"/>
        <pt x="584" y="399" on="1"/>
        <pt x="584" y="623" on="1"/>
        <pt x="584" y="641" on="0"/>
        <pt x="557" y="659" on="0"/>
        <pt x="517" y="659" on="1"/>
        <pt x="504" y="713" on="1"/>
        <pt x="624" y="710" on="0"/>
        <pt x="712" y="710" on="0"/>
        <pt x="789" y="713" on="1"/>
        <pt x="801" y="659" on="1"/>
        <pt x="753" y="658" on="0"/>
        <pt x="722" y="640" on="0"/>
        <pt x="722" y="623" on="1"/>
        <pt x="722" y="87" on="1"/>
        <pt x="722" y="69" on="0"/>
        <pt x="749" y="51" on="0"/>
        <pt x="789" y="51" on="1"/>
        <pt x="802" y="-3" on="1"/>
        <pt x="682" y="0" on="0"/>
        <pt x="594" y="0" on="0"/>
        <pt x="517" y="-3" on="1"/>
        <pt x="505" y="51" on="1"/>
        <pt x="553" y="52" on="0"/>
        <pt x="584" y="70" on="0"/>
        <pt x="584" y="87" on="1"/>
        <pt x="584" y="322" on="1"/>
        <pt x="253" y="322" on="1"/>
        <pt x="253" y="87" on="1"/>
        <pt x="253" y="69" on="0"/>
        <pt x="280" y="51" on="0"/>
        <pt x="320" y="51" on="1"/>
        <pt x="333" y="-3" on="1"/>
        <pt x="213" y="0" on="0"/>
        <pt x="125" y="0" on="0"/>
        <pt x="48" y="-3" on="1"/>
        <pt x="36" y="51" on="1"/>
        <pt x="84" y="52" on="0"/>
        <pt x="115" y="70" on="0"/>
        <pt x="115" y="87" on="1"/>
        <pt x="115" y="623" on="1"/>
        <pt x="115" y="641" on="0"/>
        <pt x="88" y="659" on="0"/>
        <pt x="48" y="659" on="1"/>
        <pt x="35" y="713" on="1"/>
        <pt x="155" y="710" on="0"/>
        <pt x="244" y="710" on="0"/>
        <pt x="320" y="713" on="1"/>
        <pt x="332" y="659" on="1"/>
        <pt x="284" y="658" on="0"/>
        <pt x="253" y="640" on="0"/>
      </contour>
    </TTGlyph>
    <TTGlyph name="I" xMin="30" yMin="-3" xMax="328" yMax="713">
      <contour>
        <pt x="248" y="623" on="1"/>
        <pt x="248" y="87" on="1"/>
        <pt x="248" y="69" on="0"/>
        <pt x="275" y="51" on="0"/>
        <pt x="315" y="51" on="1"/>
        <pt x="328" y="-3" on="1"/>
        <pt x="208" y="0" on="0"/>
        <pt x="120" y="0" on="0"/>
        <pt x="43" y="-3" on="1"/>
        <pt x="31" y="51" on="1"/>
        <pt x="79" y="52" on="0"/>
        <pt x="110" y="70" on="0"/>
        <pt x="110" y="87" on="1"/>
        <pt x="110" y="623" on="1"/>
        <pt x="110" y="641" on="0"/>
        <pt x="83" y="659" on="0"/>
        <pt x="43" y="659" on="1"/>
        <pt x="30" y="713" on="1"/>
        <pt x="150" y="710" on="0"/>
        <pt x="239" y="710" on="0"/>
        <pt x="315" y="713" on="1"/>
        <pt x="327" y="659" on="1"/>
        <pt x="279" y="658" on="0"/>
        <pt x="248" y="640" on="0"/>
      </contour>
    </TTGlyph>
    <TTGlyph name="Iacute" xMin="30" yMin="-3" xMax="356" yMax="917">
      <contour>
        <pt x="248" y="623" on="1"/>
        <pt x="248" y="87" on="1"/>
        <pt x="248" y="69" on="0"/>
        <pt x="275" y="51" on="0"/>
        <pt x="315" y="51" on="1"/>
        <pt x="328" y="-3" on="1"/>
        <pt x="208" y="0" on="0"/>
        <pt x="120" y="0" on="0"/>
        <pt x="43" y="-3" on="1"/>
        <pt x="31" y="51" on="1"/>
        <pt x="79" y="52" on="0"/>
        <pt x="110" y="70" on="0"/>
        <pt x="110" y="87" on="1"/>
        <pt x="110" y="623" on="1"/>
        <pt x="110" y="641" on="0"/>
        <pt x="83" y="659" on="0"/>
        <pt x="43" y="659" on="1"/>
        <pt x="30" y="713" on="1"/>
        <pt x="150" y="710" on="0"/>
        <pt x="239" y="710" on="0"/>
        <pt x="315" y="713" on="1"/>
        <pt x="327" y="659" on="1"/>
        <pt x="279" y="658" on="0"/>
        <pt x="248" y="640" on="0"/>
      </contour>
      <contour>
        <pt x="355" y="840" on="1"/>
        <pt x="356" y="837" on="0"/>
        <pt x="356" y="832" on="0"/>
        <pt x="354" y="831" on="1"/>
        <pt x="131" y="770" on="1"/>
        <pt x="113" y="787" on="0"/>
        <pt x="113" y="805" on="1"/>
        <pt x="113" y="809" on="0"/>
        <pt x="114" y="813" on="1"/>
        <pt x="279" y="917" on="1"/>
        <pt x="329" y="890" on="0"/>
      </contour>
    </TTGlyph>
    <TTGlyph name="Icircumflex" xMin="30" yMin="-3" xMax="346" yMax="932">
      <contour>
        <pt x="248" y="623" on="1"/>
        <pt x="248" y="87" on="1"/>
        <pt x="248" y="69" on="0"/>
        <pt x="275" y="51" on="0"/>
        <pt x="315" y="51" on="1"/>
        <pt x="328" y="-3" on="1"/>
        <pt x="208" y="0" on="0"/>
        <pt x="120" y="0" on="0"/>
        <pt x="43" y="-3" on="1"/>
        <pt x="31" y="51" on="1"/>
        <pt x="79" y="52" on="0"/>
        <pt x="110" y="70" on="0"/>
        <pt x="110" y="87" on="1"/>
        <pt x="110" y="623" on="1"/>
        <pt x="110" y="641" on="0"/>
        <pt x="83" y="659" on="0"/>
        <pt x="43" y="659" on="1"/>
        <pt x="30" y="713" on="1"/>
        <pt x="150" y="710" on="0"/>
        <pt x="239" y="710" on="0"/>
        <pt x="315" y="713" on="1"/>
        <pt x="327" y="659" on="1"/>
        <pt x="279" y="658" on="0"/>
        <pt x="248" y="640" on="0"/>
      </contour>
      <contour>
        <pt x="137" y="930" on="1"/>
        <pt x="197" y="932" on="0"/>
        <pt x="241" y="932" on="0"/>
        <pt x="246" y="920" on="1"/>
        <pt x="346" y="798" on="1"/>
        <pt x="346" y="792" on="0"/>
        <pt x="330" y="776" on="0"/>
        <pt x="310" y="769" on="1"/>
        <pt x="188" y="852" on="1"/>
        <pt x="67" y="769" on="1"/>
        <pt x="39" y="776" on="0"/>
        <pt x="31" y="798" on="1"/>
      </contour>
    </TTGlyph>
    <TTGlyph name="Idieresis" xMin="19" yMin="-3" xMax="339" yMax="909">
      <contour>
        <pt x="248" y="623" on="1"/>
        <pt x="248" y="87" on="1"/>
        <pt x="248" y="69" on="0"/>
        <pt x="275" y="51" on="0"/>
        <pt x="315" y="51" on="1"/>
        <pt x="328" y="-3" on="1"/>
        <pt x="208" y="0" on="0"/>
        <pt x="120" y="0" on="0"/>
        <pt x="43" y="-3" on="1"/>
        <pt x="31" y="51" on="1"/>
        <pt x="79" y="52" on="0"/>
        <pt x="110" y="70" on="0"/>
        <pt x="110" y="87" on="1"/>
        <pt x="110" y="623" on="1"/>
        <pt x="110" y="641" on="0"/>
        <pt x="83" y="659" on="0"/>
        <pt x="43" y="659" on="1"/>
        <pt x="30" y="713" on="1"/>
        <pt x="150" y="710" on="0"/>
        <pt x="239" y="710" on="0"/>
        <pt x="315" y="713" on="1"/>
        <pt x="327" y="659" on="1"/>
        <pt x="279" y="658" on="0"/>
        <pt x="248" y="640" on="0"/>
      </contour>
      <contour>
        <pt x="57" y="771" on="0"/>
        <pt x="19" y="808" on="0"/>
        <pt x="19" y="867" on="0"/>
        <pt x="59" y="909" on="0"/>
        <pt x="119" y="909" on="0"/>
        <pt x="158" y="873" on="0"/>
        <pt x="158" y="813" on="0"/>
        <pt x="118" y="771" on="0"/>
      </contour>
      <contour>
        <pt x="239" y="771" on="0"/>
        <pt x="201" y="808" on="0"/>
        <pt x="201" y="867" on="0"/>
        <pt x="241" y="909" on="0"/>
        <pt x="301" y="909" on="0"/>
        <pt x="339" y="873" on="0"/>
        <pt x="339" y="813" on="0"/>
        <pt x="299" y="771" on="0"/>
      </contour>
    </TTGlyph>
    <TTGlyph name="Igrave" xMin="8" yMin="-3" xMax="328" yMax="919">
      <contour>
        <pt x="248" y="623" on="1"/>
        <pt x="248" y="87" on="1"/>
        <pt x="248" y="69" on="0"/>
        <pt x="275" y="51" on="0"/>
        <pt x="315" y="51" on="1"/>
        <pt x="328" y="-3" on="1"/>
        <pt x="208" y="0" on="0"/>
        <pt x="120" y="0" on="0"/>
        <pt x="43" y="-3" on="1"/>
        <pt x="31" y="51" on="1"/>
        <pt x="79" y="52" on="0"/>
        <pt x="110" y="70" on="0"/>
        <pt x="110" y="87" on="1"/>
        <pt x="110" y="623" on="1"/>
        <pt x="110" y="641" on="0"/>
        <pt x="83" y="659" on="0"/>
        <pt x="43" y="659" on="1"/>
        <pt x="30" y="713" on="1"/>
        <pt x="150" y="710" on="0"/>
        <pt x="239" y="710" on="0"/>
        <pt x="315" y="713" on="1"/>
        <pt x="327" y="659" on="1"/>
        <pt x="279" y="658" on="0"/>
        <pt x="248" y="640" on="0"/>
      </contour>
      <contour>
        <pt x="251" y="813" on="1"/>
        <pt x="253" y="808" on="0"/>
        <pt x="253" y="786" on="0"/>
        <pt x="237" y="769" on="1"/>
        <pt x="11" y="820" on="1"/>
        <pt x="8" y="821" on="0"/>
        <pt x="8" y="825" on="0"/>
        <pt x="10" y="828" on="1"/>
        <pt x="39" y="892" on="0"/>
        <pt x="81" y="919" on="1"/>
      </contour>
    </TTGlyph>
    <TTGlyph name="J" xMin="15" yMin="-256" xMax="342" yMax="713">
      <contour>
        <pt x="263" y="623" on="1"/>
        <pt x="263" y="66" on="1"/>
        <pt x="263" y="-52" on="0"/>
        <pt x="130" y="-215" on="0"/>
        <pt x="40" y="-256" on="1"/>
        <pt x="31" y="-255" on="0"/>
        <pt x="26" y="-249" on="1"/>
        <pt x="15" y="-234" on="0"/>
        <pt x="15" y="-226" on="0"/>
        <pt x="26" y="-219" on="1"/>
        <pt x="75" y="-183" on="0"/>
        <pt x="120" y="-41" on="0"/>
        <pt x="121" y="80" on="1"/>
        <pt x="125" y="623" on="1"/>
        <pt x="125" y="641" on="0"/>
        <pt x="98" y="659" on="0"/>
        <pt x="58" y="659" on="1"/>
        <pt x="45" y="713" on="1"/>
        <pt x="165" y="710" on="0"/>
        <pt x="254" y="710" on="0"/>
        <pt x="330" y="713" on="1"/>
        <pt x="342" y="659" on="1"/>
        <pt x="294" y="658" on="0"/>
        <pt x="263" y="640" on="0"/>
      </contour>
    </TTGlyph>
    <TTGlyph name="K" xMin="30" yMin="-3" xMax="737" yMax="713">
      <contour>
        <pt x="737" y="-3" on="1"/>
        <pt x="610" y="0" on="1"/>
        <pt x="567" y="0" on="0"/>
        <pt x="540" y="-1" on="1"/>
        <pt x="502" y="45" on="0"/>
        <pt x="262" y="312" on="0"/>
        <pt x="249" y="312" on="1"/>
        <pt x="248" y="312" on="1"/>
        <pt x="248" y="87" on="1"/>
        <pt x="248" y="69" on="0"/>
        <pt x="275" y="51" on="0"/>
        <pt x="315" y="51" on="1"/>
        <pt x="328" y="-3" on="1"/>
        <pt x="208" y="0" on="0"/>
        <pt x="120" y="0" on="0"/>
        <pt x="43" y="-3" on="1"/>
        <pt x="31" y="51" on="1"/>
        <pt x="79" y="52" on="0"/>
        <pt x="110" y="70" on="0"/>
        <pt x="110" y="87" on="1"/>
        <pt x="110" y="623" on="1"/>
        <pt x="110" y="641" on="0"/>
        <pt x="83" y="659" on="0"/>
        <pt x="43" y="659" on="1"/>
        <pt x="30" y="713" on="1"/>
        <pt x="150" y="710" on="0"/>
        <pt x="239" y="710" on="0"/>
        <pt x="315" y="713" on="1"/>
        <pt x="327" y="659" on="1"/>
        <pt x="279" y="658" on="0"/>
        <pt x="248" y="640" on="0"/>
        <pt x="248" y="623" on="1"/>
        <pt x="248" y="384" on="1"/>
        <pt x="309" y="442" on="0"/>
        <pt x="487" y="634" on="0"/>
        <pt x="487" y="659" on="0"/>
        <pt x="421" y="659" on="1"/>
        <pt x="408" y="713" on="1"/>
        <pt x="528" y="710" on="0"/>
        <pt x="616" y="710" on="0"/>
        <pt x="693" y="713" on="1"/>
        <pt x="705" y="659" on="1"/>
        <pt x="603" y="656" on="0"/>
        <pt x="575" y="626" on="1"/>
        <pt x="353" y="389" on="1"/>
        <pt x="632" y="87" on="1"/>
        <pt x="670" y="51" on="0"/>
        <pt x="724" y="51" on="1"/>
      </contour>
    </TTGlyph>
    <TTGlyph name="L" xMin="30" yMin="-3" xMax="632" yMax="713">
      <contour>
        <pt x="329" y="-2" on="1"/>
        <pt x="172" y="0" on="1"/>
        <pt x="118" y="0" on="0"/>
        <pt x="42" y="-3" on="1"/>
        <pt x="30" y="51" on="1"/>
        <pt x="78" y="52" on="0"/>
        <pt x="109" y="70" on="0"/>
        <pt x="109" y="87" on="1"/>
        <pt x="113" y="623" on="1"/>
        <pt x="113" y="641" on="0"/>
        <pt x="86" y="659" on="0"/>
        <pt x="46" y="659" on="1"/>
        <pt x="33" y="713" on="1"/>
        <pt x="153" y="710" on="0"/>
        <pt x="242" y="710" on="0"/>
        <pt x="318" y="713" on="1"/>
        <pt x="330" y="659" on="1"/>
        <pt x="282" y="658" on="0"/>
        <pt x="251" y="640" on="0"/>
        <pt x="251" y="623" on="1"/>
        <pt x="251" y="114" on="1"/>
        <pt x="251" y="61" on="0"/>
        <pt x="300" y="61" on="1"/>
        <pt x="394" y="61" on="1"/>
        <pt x="529" y="61" on="0"/>
        <pt x="578" y="205" on="1"/>
        <pt x="632" y="194" on="1"/>
        <pt x="632" y="177" on="0"/>
        <pt x="574" y="0" on="0"/>
        <pt x="560" y="0" on="1"/>
      </contour>
    </TTGlyph>
    <TTGlyph name="M" xMin="30" yMin="-8" xMax="962" yMax="714">
      <contour>
        <pt x="737" y="714" on="1"/>
        <pt x="836" y="710" on="1"/>
        <pt x="873" y="710" on="0"/>
        <pt x="949" y="713" on="1"/>
        <pt x="961" y="659" on="1"/>
        <pt x="913" y="658" on="0"/>
        <pt x="882" y="640" on="0"/>
        <pt x="882" y="623" on="1"/>
        <pt x="882" y="87" on="1"/>
        <pt x="882" y="69" on="0"/>
        <pt x="909" y="51" on="0"/>
        <pt x="949" y="51" on="1"/>
        <pt x="962" y="-3" on="1"/>
        <pt x="842" y="0" on="0"/>
        <pt x="754" y="0" on="0"/>
        <pt x="677" y="-3" on="1"/>
        <pt x="665" y="51" on="1"/>
        <pt x="713" y="52" on="0"/>
        <pt x="744" y="70" on="0"/>
        <pt x="744" y="87" on="1"/>
        <pt x="744" y="503" on="1"/>
        <pt x="715" y="442" on="0"/>
        <pt x="549" y="95" on="0"/>
        <pt x="506" y="4" on="1"/>
        <pt x="480" y="-8" on="1"/>
        <pt x="216" y="524" on="1"/>
        <pt x="216" y="87" on="1"/>
        <pt x="216" y="69" on="0"/>
        <pt x="243" y="51" on="0"/>
        <pt x="283" y="51" on="1"/>
        <pt x="296" y="-3" on="1"/>
        <pt x="176" y="0" on="0"/>
        <pt x="120" y="0" on="0"/>
        <pt x="43" y="-3" on="1"/>
        <pt x="31" y="51" on="1"/>
        <pt x="117" y="53" on="0"/>
        <pt x="117" y="87" on="1"/>
        <pt x="117" y="623" on="1"/>
        <pt x="117" y="659" on="0"/>
        <pt x="43" y="659" on="1"/>
        <pt x="30" y="713" on="1"/>
        <pt x="150" y="710" on="0"/>
        <pt x="234" y="710" on="0"/>
        <pt x="260" y="713" on="1"/>
        <pt x="279" y="657" on="0"/>
        <pt x="380" y="460" on="0"/>
        <pt x="394" y="427" on="1"/>
        <pt x="417" y="366" on="0"/>
        <pt x="514" y="193" on="1"/>
        <pt x="554" y="283" on="0"/>
        <pt x="615" y="426" on="0"/>
        <pt x="660" y="524" on="0"/>
        <pt x="680" y="570" on="1"/>
        <pt x="737" y="695" on="0"/>
      </contour>
    </TTGlyph>
    <TTGlyph name="N" xMin="30" yMin="-4" xMax="806" yMax="713">
      <contour>
        <pt x="721" y="-4" on="1"/>
        <pt x="701" y="0" on="0"/>
        <pt x="654" y="0" on="0"/>
        <pt x="639" y="-3" on="1"/>
        <pt x="216" y="534" on="1"/>
        <pt x="216" y="87" on="1"/>
        <pt x="216" y="69" on="0"/>
        <pt x="243" y="51" on="0"/>
        <pt x="283" y="51" on="1"/>
        <pt x="296" y="-3" on="1"/>
        <pt x="176" y="0" on="0"/>
        <pt x="120" y="0" on="0"/>
        <pt x="43" y="-3" on="1"/>
        <pt x="31" y="51" on="1"/>
        <pt x="117" y="53" on="0"/>
        <pt x="117" y="87" on="1"/>
        <pt x="117" y="623" on="1"/>
        <pt x="117" y="659" on="0"/>
        <pt x="43" y="659" on="1"/>
        <pt x="30" y="713" on="1"/>
        <pt x="150" y="710" on="0"/>
        <pt x="234" y="710" on="0"/>
        <pt x="260" y="713" on="1"/>
        <pt x="260" y="701" on="0"/>
        <pt x="288" y="660" on="0"/>
        <pt x="307" y="631" on="0"/>
        <pt x="338" y="590" on="0"/>
        <pt x="361" y="560" on="0"/>
        <pt x="379" y="538" on="1"/>
        <pt x="445" y="455" on="0"/>
        <pt x="474" y="419" on="0"/>
        <pt x="607" y="246" on="0"/>
        <pt x="622" y="228" on="1"/>
        <pt x="621" y="623" on="1"/>
        <pt x="621" y="641" on="0"/>
        <pt x="594" y="659" on="0"/>
        <pt x="554" y="659" on="1"/>
        <pt x="541" y="713" on="1"/>
        <pt x="661" y="710" on="0"/>
        <pt x="718" y="710" on="0"/>
        <pt x="794" y="713" on="1"/>
        <pt x="806" y="659" on="1"/>
        <pt x="720" y="657" on="0"/>
        <pt x="720" y="623" on="1"/>
      </contour>
    </TTGlyph>
    <TTGlyph name="Ntilde" xMin="30" yMin="-4" xMax="806" yMax="909">
      <contour>
        <pt x="721" y="-4" on="1"/>
        <pt x="701" y="0" on="0"/>
        <pt x="654" y="0" on="0"/>
        <pt x="639" y="-3" on="1"/>
        <pt x="216" y="534" on="1"/>
        <pt x="216" y="87" on="1"/>
        <pt x="216" y="69" on="0"/>
        <pt x="243" y="51" on="0"/>
        <pt x="283" y="51" on="1"/>
        <pt x="296" y="-3" on="1"/>
        <pt x="176" y="0" on="0"/>
        <pt x="120" y="0" on="0"/>
        <pt x="43" y="-3" on="1"/>
        <pt x="31" y="51" on="1"/>
        <pt x="117" y="53" on="0"/>
        <pt x="117" y="87" on="1"/>
        <pt x="117" y="623" on="1"/>
        <pt x="117" y="659" on="0"/>
        <pt x="43" y="659" on="1"/>
        <pt x="30" y="713" on="1"/>
        <pt x="150" y="710" on="0"/>
        <pt x="234" y="710" on="0"/>
        <pt x="260" y="713" on="1"/>
        <pt x="260" y="701" on="0"/>
        <pt x="288" y="660" on="0"/>
        <pt x="307" y="631" on="0"/>
        <pt x="338" y="590" on="0"/>
        <pt x="361" y="560" on="0"/>
        <pt x="379" y="538" on="1"/>
        <pt x="445" y="455" on="0"/>
        <pt x="474" y="419" on="0"/>
        <pt x="607" y="246" on="0"/>
        <pt x="622" y="228" on="1"/>
        <pt x="621" y="623" on="1"/>
        <pt x="621" y="641" on="0"/>
        <pt x="594" y="659" on="0"/>
        <pt x="554" y="659" on="1"/>
        <pt x="541" y="713" on="1"/>
        <pt x="661" y="710" on="0"/>
        <pt x="718" y="710" on="0"/>
        <pt x="794" y="713" on="1"/>
        <pt x="806" y="659" on="1"/>
        <pt x="720" y="657" on="0"/>
        <pt x="720" y="623" on="1"/>
      </contour>
      <contour>
        <pt x="355" y="881" on="1"/>
        <pt x="520" y="877" on="1"/>
        <pt x="571" y="877" on="0"/>
        <pt x="598" y="909" on="1"/>
        <pt x="605" y="909" on="0"/>
        <pt x="621" y="894" on="1"/>
        <pt x="622" y="892" on="0"/>
        <pt x="622" y="886" on="0"/>
        <pt x="620" y="882" on="1"/>
        <pt x="566" y="792" on="0"/>
        <pt x="522" y="792" on="1"/>
        <pt x="362" y="794" on="1"/>
        <pt x="325" y="794" on="0"/>
        <pt x="295" y="769" on="1"/>
        <pt x="295" y="769" on="0"/>
        <pt x="289" y="769" on="0"/>
        <pt x="274" y="782" on="1"/>
        <pt x="272" y="785" on="0"/>
        <pt x="272" y="791" on="0"/>
        <pt x="274" y="794" on="1"/>
        <pt x="318" y="881" on="0"/>
      </contour>
    </TTGlyph>
    <TTGlyph name="O" xMin="40" yMin="-12" xMax="803" yMax="722">
      <contour>
        <pt x="252" y="-12" on="0"/>
        <pt x="40" y="185" on="0"/>
        <pt x="40" y="500" on="0"/>
        <pt x="266" y="722" on="0"/>
        <pt x="595" y="722" on="0"/>
        <pt x="803" y="523" on="0"/>
        <pt x="803" y="205" on="0"/>
        <pt x="582" y="-12" on="0"/>
      </contour>
      <contour>
        <pt x="303" y="108" on="1"/>
        <pt x="361" y="60" on="0"/>
        <pt x="539" y="60" on="0"/>
        <pt x="648" y="212" on="0"/>
        <pt x="648" y="326" on="1"/>
        <pt x="648" y="467" on="0"/>
        <pt x="522" y="653" on="0"/>
        <pt x="403" y="653" on="1"/>
        <pt x="309" y="653" on="0"/>
        <pt x="195" y="497" on="0"/>
        <pt x="195" y="383" on="1"/>
        <pt x="195" y="196" on="0"/>
      </contour>
    </TTGlyph>
    <TTGlyph name="OE" xMin="40" yMin="-12" xMax="1118" yMax="722">
      <contour>
        <pt x="897" y="651" on="1"/>
        <pt x="772" y="650" on="1"/>
        <pt x="748" y="650" on="1"/>
        <pt x="707" y="648" on="0"/>
        <pt x="707" y="646" on="1"/>
        <pt x="707" y="399" on="1"/>
        <pt x="873" y="399" on="1"/>
        <pt x="885" y="399" on="0"/>
        <pt x="885" y="495" on="1"/>
        <pt x="941" y="504" on="1"/>
        <pt x="938" y="366" on="1"/>
        <pt x="938" y="309" on="0"/>
        <pt x="941" y="243" on="1"/>
        <pt x="883" y="232" on="1"/>
        <pt x="883" y="289" on="0"/>
        <pt x="879" y="321" on="0"/>
        <pt x="871" y="321" on="1"/>
        <pt x="707" y="321" on="1"/>
        <pt x="707" y="115" on="1"/>
        <pt x="707" y="82" on="0"/>
        <pt x="743" y="62" on="0"/>
        <pt x="786" y="62" on="1"/>
        <pt x="880" y="62" on="1"/>
        <pt x="1015" y="62" on="0"/>
        <pt x="1064" y="206" on="1"/>
        <pt x="1118" y="195" on="1"/>
        <pt x="1118" y="178" on="0"/>
        <pt x="1060" y="0" on="0"/>
        <pt x="1046" y="0" on="1"/>
        <pt x="815" y="-1" on="1"/>
        <pt x="815" y="-1" on="0"/>
        <pt x="632" y="0" on="1"/>
        <pt x="601" y="0" on="0"/>
        <pt x="460" y="-12" on="0"/>
        <pt x="424" y="-12" on="1"/>
        <pt x="252" y="-12" on="0"/>
        <pt x="40" y="185" on="0"/>
        <pt x="40" y="500" on="0"/>
        <pt x="266" y="722" on="0"/>
        <pt x="424" y="722" on="1"/>
        <pt x="462" y="722" on="0"/>
        <pt x="590" y="710" on="0"/>
        <pt x="629" y="710" on="1"/>
        <pt x="888" y="710" on="1"/>
        <pt x="1044" y="709" on="1"/>
        <pt x="1056" y="682" on="0"/>
        <pt x="1056" y="562" on="0"/>
        <pt x="1051" y="515" on="1"/>
        <pt x="1007" y="522" on="1"/>
        <pt x="996" y="591" on="0"/>
        <pt x="945" y="651" on="0"/>
      </contour>
      <contour>
        <pt x="303" y="101" on="1"/>
        <pt x="361" y="51" on="0"/>
        <pt x="530" y="51" on="0"/>
        <pt x="559" y="64" on="1"/>
        <pt x="569" y="71" on="0"/>
        <pt x="569" y="87" on="1"/>
        <pt x="569" y="606" on="1"/>
        <pt x="569" y="634" on="0"/>
        <pt x="511" y="659" on="0"/>
        <pt x="428" y="659" on="1"/>
        <pt x="311" y="659" on="0"/>
        <pt x="195" y="503" on="0"/>
        <pt x="195" y="383" on="1"/>
        <pt x="195" y="194" on="0"/>
      </contour>
    </TTGlyph>
    <TTGlyph name="Oacute" xMin="40" yMin="-12" xMax="803" yMax="917">
      <contour>
        <pt x="252" y="-12" on="0"/>
        <pt x="40" y="185" on="0"/>
        <pt x="40" y="500" on="0"/>
        <pt x="266" y="722" on="0"/>
        <pt x="595" y="722" on="0"/>
        <pt x="803" y="523" on="0"/>
        <pt x="803" y="205" on="0"/>
        <pt x="582" y="-12" on="0"/>
      </contour>
      <contour>
        <pt x="303" y="108" on="1"/>
        <pt x="361" y="60" on="0"/>
        <pt x="539" y="60" on="0"/>
        <pt x="648" y="212" on="0"/>
        <pt x="648" y="326" on="1"/>
        <pt x="648" y="467" on="0"/>
        <pt x="522" y="653" on="0"/>
        <pt x="403" y="653" on="1"/>
        <pt x="309" y="653" on="0"/>
        <pt x="195" y="497" on="0"/>
        <pt x="195" y="383" on="1"/>
        <pt x="195" y="196" on="0"/>
      </contour>
      <contour>
        <pt x="596" y="840" on="1"/>
        <pt x="597" y="837" on="0"/>
        <pt x="597" y="832" on="0"/>
        <pt x="595" y="831" on="1"/>
        <pt x="372" y="770" on="1"/>
        <pt x="354" y="787" on="0"/>
        <pt x="354" y="805" on="1"/>
        <pt x="354" y="809" on="0"/>
        <pt x="355" y="813" on="1"/>
        <pt x="520" y="917" on="1"/>
        <pt x="570" y="890" on="0"/>
      </contour>
    </TTGlyph>
    <TTGlyph name="Ocircumflex" xMin="40" yMin="-12" xMax="803" yMax="932">
      <contour>
        <pt x="252" y="-12" on="0"/>
        <pt x="40" y="185" on="0"/>
        <pt x="40" y="500" on="0"/>
        <pt x="266" y="722" on="0"/>
        <pt x="595" y="722" on="0"/>
        <pt x="803" y="523" on="0"/>
        <pt x="803" y="205" on="0"/>
        <pt x="582" y="-12" on="0"/>
      </contour>
      <contour>
        <pt x="303" y="108" on="1"/>
        <pt x="361" y="60" on="0"/>
        <pt x="539" y="60" on="0"/>
        <pt x="648" y="212" on="0"/>
        <pt x="648" y="326" on="1"/>
        <pt x="648" y="467" on="0"/>
        <pt x="522" y="653" on="0"/>
        <pt x="403" y="653" on="1"/>
        <pt x="309" y="653" on="0"/>
        <pt x="195" y="497" on="0"/>
        <pt x="195" y="383" on="1"/>
        <pt x="195" y="196" on="0"/>
      </contour>
      <contour>
        <pt x="374" y="930" on="1"/>
        <pt x="434" y="932" on="0"/>
        <pt x="478" y="932" on="0"/>
        <pt x="483" y="920" on="1"/>
        <pt x="583" y="798" on="1"/>
        <pt x="583" y="782" on="0"/>
        <pt x="547" y="769" on="1"/>
        <pt x="425" y="852" on="1"/>
        <pt x="304" y="769" on="1"/>
        <pt x="276" y="776" on="0"/>
        <pt x="268" y="798" on="1"/>
      </contour>
    </TTGlyph>
    <TTGlyph name="Odieresis" xMin="40" yMin="-12" xMax="803" yMax="909">
      <contour>
        <pt x="252" y="-12" on="0"/>
        <pt x="40" y="185" on="0"/>
        <pt x="40" y="500" on="0"/>
        <pt x="266" y="722" on="0"/>
        <pt x="595" y="722" on="0"/>
        <pt x="803" y="523" on="0"/>
        <pt x="803" y="205" on="0"/>
        <pt x="582" y="-12" on="0"/>
      </contour>
      <contour>
        <pt x="303" y="108" on="1"/>
        <pt x="361" y="60" on="0"/>
        <pt x="539" y="60" on="0"/>
        <pt x="648" y="212" on="0"/>
        <pt x="648" y="326" on="1"/>
        <pt x="648" y="467" on="0"/>
        <pt x="522" y="653" on="0"/>
        <pt x="403" y="653" on="1"/>
        <pt x="309" y="653" on="0"/>
        <pt x="195" y="497" on="0"/>
        <pt x="195" y="383" on="1"/>
        <pt x="195" y="196" on="0"/>
      </contour>
      <contour>
        <pt x="299" y="771" on="0"/>
        <pt x="261" y="808" on="0"/>
        <pt x="261" y="867" on="0"/>
        <pt x="301" y="909" on="0"/>
        <pt x="361" y="909" on="0"/>
        <pt x="400" y="873" on="0"/>
        <pt x="400" y="813" on="0"/>
        <pt x="360" y="771" on="0"/>
      </contour>
      <contour>
        <pt x="481" y="771" on="0"/>
        <pt x="443" y="808" on="0"/>
        <pt x="443" y="867" on="0"/>
        <pt x="483" y="909" on="0"/>
        <pt x="543" y="909" on="0"/>
        <pt x="581" y="873" on="0"/>
        <pt x="581" y="813" on="0"/>
        <pt x="541" y="771" on="0"/>
      </contour>
    </TTGlyph>
    <TTGlyph name="Ograve" xMin="40" yMin="-12" xMax="803" yMax="919">
      <contour>
        <pt x="252" y="-12" on="0"/>
        <pt x="40" y="185" on="0"/>
        <pt x="40" y="500" on="0"/>
        <pt x="266" y="722" on="0"/>
        <pt x="595" y="722" on="0"/>
        <pt x="803" y="523" on="0"/>
        <pt x="803" y="205" on="0"/>
        <pt x="582" y="-12" on="0"/>
      </contour>
      <contour>
        <pt x="303" y="108" on="1"/>
        <pt x="361" y="60" on="0"/>
        <pt x="539" y="60" on="0"/>
        <pt x="648" y="212" on="0"/>
        <pt x="648" y="326" on="1"/>
        <pt x="648" y="467" on="0"/>
        <pt x="522" y="653" on="0"/>
        <pt x="403" y="653" on="1"/>
        <pt x="309" y="653" on="0"/>
        <pt x="195" y="497" on="0"/>
        <pt x="195" y="383" on="1"/>
        <pt x="195" y="196" on="0"/>
      </contour>
      <contour>
        <pt x="484" y="813" on="1"/>
        <pt x="486" y="808" on="0"/>
        <pt x="486" y="786" on="0"/>
        <pt x="470" y="769" on="1"/>
        <pt x="244" y="820" on="1"/>
        <pt x="241" y="821" on="0"/>
        <pt x="241" y="825" on="0"/>
        <pt x="243" y="828" on="1"/>
        <pt x="272" y="892" on="0"/>
        <pt x="314" y="919" on="1"/>
      </contour>
    </TTGlyph>
    <TTGlyph name="Oslash" xMin="40" yMin="-48" xMax="803" yMax="768">
      <contour>
        <pt x="144" y="88" on="1"/>
        <pt x="40" y="187" on="0"/>
        <pt x="40" y="500" on="0"/>
        <pt x="266" y="722" on="0"/>
        <pt x="424" y="722" on="1"/>
        <pt x="526" y="722" on="0"/>
        <pt x="610" y="683" on="1"/>
        <pt x="676" y="767" on="1"/>
        <pt x="678" y="768" on="0"/>
        <pt x="690" y="768" on="0"/>
        <pt x="735" y="754" on="0"/>
        <pt x="750" y="743" on="1"/>
        <pt x="673" y="644" on="1"/>
        <pt x="803" y="544" on="0"/>
        <pt x="803" y="361" on="1"/>
        <pt x="803" y="205" on="0"/>
        <pt x="582" y="-12" on="0"/>
        <pt x="424" y="-12" on="1"/>
        <pt x="301" y="-12" on="0"/>
        <pt x="207" y="41" on="1"/>
        <pt x="139" y="-46" on="1"/>
        <pt x="130" y="-48" on="0"/>
        <pt x="88" y="-48" on="0"/>
        <pt x="48" y="-34" on="1"/>
      </contour>
      <contour>
        <pt x="276" y="131" on="1"/>
        <pt x="341" y="60" on="0"/>
        <pt x="539" y="60" on="0"/>
        <pt x="648" y="212" on="0"/>
        <pt x="648" y="455" on="0"/>
        <pt x="595" y="543" on="1"/>
      </contour>
      <contour>
        <pt x="309" y="653" on="0"/>
        <pt x="195" y="497" on="0"/>
        <pt x="195" y="278" on="0"/>
        <pt x="231" y="200" on="1"/>
        <pt x="546" y="602" on="1"/>
        <pt x="487" y="653" on="0"/>
      </contour>
    </TTGlyph>
    <TTGlyph name="Otilde" xMin="40" yMin="-12" xMax="803" yMax="912">
      <contour>
        <pt x="252" y="-12" on="0"/>
        <pt x="40" y="185" on="0"/>
        <pt x="40" y="500" on="0"/>
        <pt x="266" y="722" on="0"/>
        <pt x="595" y="722" on="0"/>
        <pt x="803" y="523" on="0"/>
        <pt x="803" y="205" on="0"/>
        <pt x="582" y="-12" on="0"/>
      </contour>
      <contour>
        <pt x="303" y="108" on="1"/>
        <pt x="361" y="60" on="0"/>
        <pt x="539" y="60" on="0"/>
        <pt x="648" y="212" on="0"/>
        <pt x="648" y="326" on="1"/>
        <pt x="648" y="467" on="0"/>
        <pt x="522" y="653" on="0"/>
        <pt x="403" y="653" on="1"/>
        <pt x="309" y="653" on="0"/>
        <pt x="195" y="497" on="0"/>
        <pt x="195" y="383" on="1"/>
        <pt x="195" y="196" on="0"/>
      </contour>
      <contour>
        <pt x="329" y="884" on="1"/>
        <pt x="494" y="880" on="1"/>
        <pt x="545" y="880" on="0"/>
        <pt x="572" y="912" on="1"/>
        <pt x="579" y="912" on="0"/>
        <pt x="595" y="897" on="1"/>
        <pt x="596" y="895" on="0"/>
        <pt x="596" y="889" on="0"/>
        <pt x="594" y="885" on="1"/>
        <pt x="540" y="795" on="0"/>
        <pt x="496" y="795" on="1"/>
        <pt x="336" y="797" on="1"/>
        <pt x="299" y="797" on="0"/>
        <pt x="269" y="772" on="1"/>
        <pt x="269" y="772" on="0"/>
        <pt x="263" y="772" on="0"/>
        <pt x="248" y="785" on="1"/>
        <pt x="246" y="788" on="0"/>
        <pt x="246" y="794" on="0"/>
        <pt x="248" y="797" on="1"/>
        <pt x="292" y="884" on="0"/>
      </contour>
    </TTGlyph>
    <TTGlyph name="P" xMin="30" yMin="-3" xMax="584" yMax="714">
      <contour>
        <pt x="317" y="714" on="1"/>
        <pt x="435" y="714" on="0"/>
        <pt x="584" y="616" on="0"/>
        <pt x="584" y="518" on="1"/>
        <pt x="584" y="465" on="0"/>
        <pt x="540" y="384" on="0"/>
        <pt x="502" y="361" on="1"/>
        <pt x="428" y="315" on="0"/>
        <pt x="328" y="315" on="1"/>
        <pt x="300" y="315" on="0"/>
        <pt x="277" y="320" on="1"/>
        <pt x="266" y="329" on="0"/>
        <pt x="266" y="367" on="0"/>
        <pt x="274" y="376" on="1"/>
        <pt x="290" y="373" on="0"/>
        <pt x="316" y="373" on="1"/>
        <pt x="376" y="373" on="0"/>
        <pt x="450" y="452" on="0"/>
        <pt x="450" y="523" on="1"/>
        <pt x="450" y="649" on="0"/>
        <pt x="303" y="649" on="1"/>
        <pt x="248" y="649" on="0"/>
        <pt x="248" y="642" on="1"/>
        <pt x="248" y="87" on="1"/>
        <pt x="248" y="68" on="0"/>
        <pt x="285" y="51" on="0"/>
        <pt x="345" y="51" on="1"/>
        <pt x="358" y="-3" on="1"/>
        <pt x="238" y="0" on="0"/>
        <pt x="120" y="0" on="0"/>
        <pt x="43" y="-3" on="1"/>
        <pt x="31" y="51" on="1"/>
        <pt x="79" y="52" on="0"/>
        <pt x="110" y="70" on="0"/>
        <pt x="110" y="87" on="1"/>
        <pt x="110" y="623" on="1"/>
        <pt x="110" y="641" on="0"/>
        <pt x="83" y="659" on="0"/>
        <pt x="43" y="659" on="1"/>
        <pt x="30" y="713" on="1"/>
        <pt x="162" y="710" on="0"/>
        <pt x="170" y="710" on="1"/>
        <pt x="297" y="714" on="0"/>
      </contour>
    </TTGlyph>
    <TTGlyph name="Q" xMin="40" yMin="-200" xMax="1109" yMax="722">
      <contour>
        <pt x="40" y="345" on="1"/>
        <pt x="40" y="500" on="0"/>
        <pt x="266" y="722" on="0"/>
        <pt x="595" y="722" on="0"/>
        <pt x="803" y="523" on="0"/>
        <pt x="803" y="361" on="1"/>
        <pt x="803" y="238" on="0"/>
        <pt x="659" y="41" on="0"/>
        <pt x="532" y="2" on="1"/>
        <pt x="618" y="-7" on="0"/>
        <pt x="694" y="-44" on="1"/>
        <pt x="845" y="-115" on="0"/>
        <pt x="938" y="-115" on="1"/>
        <pt x="960" y="-115" on="0"/>
        <pt x="1038" y="-105" on="0"/>
        <pt x="1073" y="-92" on="0"/>
        <pt x="1085" y="-98" on="0"/>
        <pt x="1090" y="-105" on="1"/>
        <pt x="1109" y="-130" on="1"/>
        <pt x="1063" y="-160" on="0"/>
        <pt x="929" y="-200" on="0"/>
        <pt x="804" y="-200" on="0"/>
        <pt x="668" y="-163" on="0"/>
        <pt x="589" y="-126" on="0"/>
        <pt x="537" y="-97" on="1"/>
        <pt x="538" y="-98" on="1"/>
        <pt x="492" y="-72" on="0"/>
        <pt x="407" y="-32" on="0"/>
        <pt x="302" y="4" on="1"/>
        <pt x="291" y="7" on="1"/>
        <pt x="292" y="6" on="1"/>
        <pt x="175" y="39" on="0"/>
        <pt x="40" y="219" on="0"/>
      </contour>
      <contour>
        <pt x="303" y="108" on="1"/>
        <pt x="361" y="60" on="0"/>
        <pt x="538" y="60" on="0"/>
        <pt x="647" y="211" on="0"/>
        <pt x="647" y="326" on="1"/>
        <pt x="647" y="467" on="0"/>
        <pt x="522" y="653" on="0"/>
        <pt x="403" y="653" on="1"/>
        <pt x="309" y="653" on="0"/>
        <pt x="195" y="497" on="0"/>
        <pt x="195" y="383" on="1"/>
        <pt x="195" y="196" on="0"/>
      </contour>
    </TTGlyph>
    <TTGlyph name="R" xMin="30" yMin="-3" xMax="730" yMax="714">
      <contour>
        <pt x="730" y="-3" on="1"/>
        <pt x="631" y="0" on="1"/>
        <pt x="599" y="0" on="0"/>
        <pt x="517" y="-2" on="1"/>
        <pt x="508" y="10" on="0"/>
        <pt x="481" y="51" on="0"/>
        <pt x="442" y="110" on="0"/>
        <pt x="339" y="266" on="0"/>
        <pt x="312" y="302" on="1"/>
        <pt x="312" y="303" on="0"/>
        <pt x="313" y="303" on="1"/>
        <pt x="248" y="303" on="1"/>
        <pt x="248" y="87" on="1"/>
        <pt x="248" y="69" on="0"/>
        <pt x="275" y="51" on="0"/>
        <pt x="315" y="51" on="1"/>
        <pt x="328" y="-3" on="1"/>
        <pt x="208" y="0" on="0"/>
        <pt x="120" y="0" on="0"/>
        <pt x="43" y="-3" on="1"/>
        <pt x="31" y="51" on="1"/>
        <pt x="79" y="52" on="0"/>
        <pt x="110" y="70" on="0"/>
        <pt x="110" y="87" on="1"/>
        <pt x="110" y="623" on="1"/>
        <pt x="110" y="641" on="0"/>
        <pt x="83" y="659" on="0"/>
        <pt x="43" y="659" on="1"/>
        <pt x="30" y="713" on="1"/>
        <pt x="150" y="710" on="0"/>
        <pt x="170" y="710" on="1"/>
        <pt x="319" y="714" on="1"/>
        <pt x="437" y="714" on="0"/>
        <pt x="586" y="617" on="0"/>
        <pt x="586" y="518" on="1"/>
        <pt x="586" y="385" on="0"/>
        <pt x="446" y="329" on="1"/>
        <pt x="488" y="274" on="0"/>
        <pt x="507" y="246" on="1"/>
        <pt x="506" y="246" on="1"/>
        <pt x="616" y="95" on="0"/>
        <pt x="626" y="86" on="1"/>
        <pt x="662" y="52" on="0"/>
        <pt x="711" y="49" on="1"/>
      </contour>
      <contour>
        <pt x="248" y="643" on="1"/>
        <pt x="248" y="358" on="1"/>
        <pt x="265" y="357" on="0"/>
        <pt x="290" y="357" on="1"/>
        <pt x="369" y="357" on="0"/>
        <pt x="450" y="443" on="0"/>
        <pt x="450" y="582" on="0"/>
        <pt x="368" y="650" on="0"/>
        <pt x="248" y="650" on="0"/>
      </contour>
    </TTGlyph>
    <TTGlyph name="S" xMin="40" yMin="-12" xMax="545" yMax="722">
      <contour>
        <pt x="137" y="138" on="0"/>
        <pt x="217" y="60" on="0"/>
        <pt x="345" y="60" on="0"/>
        <pt x="403" y="121" on="0"/>
        <pt x="403" y="211" on="0"/>
        <pt x="332" y="279" on="0"/>
        <pt x="231" y="329" on="0"/>
        <pt x="130" y="385" on="0"/>
        <pt x="59" y="476" on="0"/>
        <pt x="59" y="536" on="1"/>
        <pt x="59" y="628" on="0"/>
        <pt x="199" y="722" on="0"/>
        <pt x="414" y="722" on="0"/>
        <pt x="507" y="678" on="1"/>
        <pt x="517" y="658" on="0"/>
        <pt x="517" y="529" on="0"/>
        <pt x="512" y="493" on="1"/>
        <pt x="449" y="495" on="1"/>
        <pt x="442" y="653" on="0"/>
        <pt x="292" y="653" on="1"/>
        <pt x="252" y="653" on="0"/>
        <pt x="200" y="606" on="0"/>
        <pt x="200" y="532" on="0"/>
        <pt x="251" y="476" on="0"/>
        <pt x="328" y="437" on="0"/>
        <pt x="417" y="386" on="0"/>
        <pt x="494" y="335" on="0"/>
        <pt x="545" y="251" on="0"/>
        <pt x="545" y="200" on="1"/>
        <pt x="545" y="110" on="0"/>
        <pt x="410" y="-12" on="0"/>
        <pt x="198" y="-12" on="0"/>
        <pt x="68" y="35" on="1"/>
        <pt x="63" y="51" on="0"/>
        <pt x="44" y="175" on="0"/>
        <pt x="40" y="217" on="1"/>
        <pt x="115" y="231" on="1"/>
      </contour>
    </TTGlyph>
    <TTGlyph name="T" xMin="22" yMin="-3" xMax="663" yMax="718">
      <contour>
        <pt x="455" y="643" on="1"/>
        <pt x="400" y="643" on="1"/>
        <pt x="400" y="87" on="1"/>
        <pt x="400" y="68" on="0"/>
        <pt x="430" y="51" on="0"/>
        <pt x="477" y="51" on="1"/>
        <pt x="490" y="-3" on="1"/>
        <pt x="370" y="0" on="0"/>
        <pt x="262" y="0" on="0"/>
        <pt x="185" y="-3" on="1"/>
        <pt x="173" y="51" on="1"/>
        <pt x="228" y="52" on="0"/>
        <pt x="262" y="70" on="0"/>
        <pt x="262" y="87" on="1"/>
        <pt x="262" y="643" on="1"/>
        <pt x="229" y="643" on="1"/>
        <pt x="138" y="643" on="0"/>
        <pt x="114" y="620" on="1"/>
        <pt x="93" y="603" on="0"/>
        <pt x="78" y="519" on="1"/>
        <pt x="32" y="518" on="1"/>
        <pt x="22" y="567" on="0"/>
        <pt x="22" y="673" on="0"/>
        <pt x="34" y="718" on="1"/>
        <pt x="73" y="710" on="0"/>
        <pt x="122" y="710" on="1"/>
        <pt x="556" y="710" on="1"/>
        <pt x="623" y="710" on="0"/>
        <pt x="657" y="718" on="1"/>
        <pt x="663" y="649" on="0"/>
        <pt x="663" y="568" on="0"/>
        <pt x="652" y="515" on="1"/>
        <pt x="605" y="522" on="1"/>
        <pt x="594" y="602" on="0"/>
        <pt x="569" y="620" on="1"/>
        <pt x="537" y="643" on="0"/>
      </contour>
    </TTGlyph>
    <TTGlyph name="Thorn" xMin="16" yMin="-3" xMax="574" yMax="713">
      <contour>
        <pt x="234" y="623" on="1"/>
        <pt x="234" y="568" on="1"/>
        <pt x="277" y="570" on="0"/>
        <pt x="307" y="570" on="1"/>
        <pt x="425" y="570" on="0"/>
        <pt x="574" y="472" on="0"/>
        <pt x="574" y="374" on="1"/>
        <pt x="574" y="321" on="0"/>
        <pt x="530" y="240" on="0"/>
        <pt x="492" y="217" on="1"/>
        <pt x="418" y="171" on="0"/>
        <pt x="318" y="171" on="1"/>
        <pt x="290" y="171" on="0"/>
        <pt x="267" y="176" on="1"/>
        <pt x="256" y="185" on="0"/>
        <pt x="256" y="223" on="0"/>
        <pt x="264" y="232" on="1"/>
        <pt x="280" y="229" on="0"/>
        <pt x="306" y="229" on="1"/>
        <pt x="366" y="229" on="0"/>
        <pt x="440" y="308" on="0"/>
        <pt x="440" y="442" on="0"/>
        <pt x="362" y="509" on="0"/>
        <pt x="293" y="509" on="1"/>
        <pt x="237" y="509" on="0"/>
        <pt x="234" y="494" on="1"/>
        <pt x="234" y="491" on="1"/>
        <pt x="234" y="87" on="1"/>
        <pt x="234" y="69" on="0"/>
        <pt x="261" y="51" on="0"/>
        <pt x="301" y="51" on="1"/>
        <pt x="314" y="-3" on="1"/>
        <pt x="194" y="0" on="0"/>
        <pt x="105" y="0" on="0"/>
        <pt x="29" y="-3" on="1"/>
        <pt x="17" y="51" on="1"/>
        <pt x="65" y="52" on="0"/>
        <pt x="96" y="70" on="0"/>
        <pt x="96" y="87" on="1"/>
        <pt x="96" y="623" on="1"/>
        <pt x="96" y="641" on="0"/>
        <pt x="69" y="659" on="0"/>
        <pt x="29" y="659" on="1"/>
        <pt x="16" y="713" on="1"/>
        <pt x="136" y="710" on="0"/>
        <pt x="225" y="710" on="0"/>
        <pt x="301" y="713" on="1"/>
        <pt x="313" y="659" on="1"/>
        <pt x="265" y="658" on="0"/>
        <pt x="234" y="640" on="0"/>
      </contour>
    </TTGlyph>
    <TTGlyph name="U" xMin="30" yMin="-12" xMax="768" yMax="713">
      <contour>
        <pt x="431" y="-12" on="1"/>
        <pt x="270" y="-12" on="0"/>
        <pt x="110" y="114" on="0"/>
        <pt x="110" y="253" on="1"/>
        <pt x="110" y="623" on="1"/>
        <pt x="110" y="641" on="0"/>
        <pt x="83" y="659" on="0"/>
        <pt x="43" y="659" on="1"/>
        <pt x="30" y="713" on="1"/>
        <pt x="150" y="710" on="0"/>
        <pt x="239" y="710" on="0"/>
        <pt x="315" y="713" on="1"/>
        <pt x="327" y="659" on="1"/>
        <pt x="279" y="658" on="0"/>
        <pt x="248" y="640" on="0"/>
        <pt x="248" y="623" on="1"/>
        <pt x="248" y="265" on="1"/>
        <pt x="248" y="60" on="0"/>
        <pt x="439" y="60" on="1"/>
        <pt x="511" y="60" on="0"/>
        <pt x="582" y="160" on="0"/>
        <pt x="582" y="251" on="1"/>
        <pt x="582" y="623" on="1"/>
        <pt x="582" y="641" on="0"/>
        <pt x="555" y="659" on="0"/>
        <pt x="515" y="659" on="1"/>
        <pt x="502" y="713" on="1"/>
        <pt x="622" y="710" on="0"/>
        <pt x="680" y="710" on="0"/>
        <pt x="756" y="713" on="1"/>
        <pt x="768" y="659" on="1"/>
        <pt x="720" y="658" on="0"/>
        <pt x="689" y="640" on="0"/>
        <pt x="689" y="623" on="1"/>
        <pt x="689" y="260" on="1"/>
        <pt x="689" y="-12" on="0"/>
      </contour>
    </TTGlyph>
    <TTGlyph name="Uacute" xMin="30" yMin="-12" xMax="768" yMax="917">
      <contour>
        <pt x="431" y="-12" on="1"/>
        <pt x="270" y="-12" on="0"/>
        <pt x="110" y="114" on="0"/>
        <pt x="110" y="253" on="1"/>
        <pt x="110" y="623" on="1"/>
        <pt x="110" y="641" on="0"/>
        <pt x="83" y="659" on="0"/>
        <pt x="43" y="659" on="1"/>
        <pt x="30" y="713" on="1"/>
        <pt x="150" y="710" on="0"/>
        <pt x="239" y="710" on="0"/>
        <pt x="315" y="713" on="1"/>
        <pt x="327" y="659" on="1"/>
        <pt x="279" y="658" on="0"/>
        <pt x="248" y="640" on="0"/>
        <pt x="248" y="623" on="1"/>
        <pt x="248" y="265" on="1"/>
        <pt x="248" y="60" on="0"/>
        <pt x="439" y="60" on="1"/>
        <pt x="511" y="60" on="0"/>
        <pt x="582" y="160" on="0"/>
        <pt x="582" y="251" on="1"/>
        <pt x="582" y="623" on="1"/>
        <pt x="582" y="641" on="0"/>
        <pt x="555" y="659" on="0"/>
        <pt x="515" y="659" on="1"/>
        <pt x="502" y="713" on="1"/>
        <pt x="622" y="710" on="0"/>
        <pt x="680" y="710" on="0"/>
        <pt x="756" y="713" on="1"/>
        <pt x="768" y="659" on="1"/>
        <pt x="720" y="658" on="0"/>
        <pt x="689" y="640" on="0"/>
        <pt x="689" y="623" on="1"/>
        <pt x="689" y="260" on="1"/>
        <pt x="689" y="-12" on="0"/>
      </contour>
      <contour>
        <pt x="600" y="840" on="1"/>
        <pt x="601" y="837" on="0"/>
        <pt x="601" y="832" on="0"/>
        <pt x="599" y="831" on="1"/>
        <pt x="376" y="770" on="1"/>
        <pt x="358" y="787" on="0"/>
        <pt x="358" y="805" on="1"/>
        <pt x="358" y="809" on="0"/>
        <pt x="359" y="813" on="1"/>
        <pt x="524" y="917" on="1"/>
        <pt x="574" y="890" on="0"/>
      </contour>
    </TTGlyph>
    <TTGlyph name="Ucircumflex" xMin="30" yMin="-12" xMax="768" yMax="932">
      <contour>
        <pt x="431" y="-12" on="1"/>
        <pt x="270" y="-12" on="0"/>
        <pt x="110" y="114" on="0"/>
        <pt x="110" y="253" on="1"/>
        <pt x="110" y="623" on="1"/>
        <pt x="110" y="641" on="0"/>
        <pt x="83" y="659" on="0"/>
        <pt x="43" y="659" on="1"/>
        <pt x="30" y="713" on="1"/>
        <pt x="150" y="710" on="0"/>
        <pt x="239" y="710" on="0"/>
        <pt x="315" y="713" on="1"/>
        <pt x="327" y="659" on="1"/>
        <pt x="279" y="658" on="0"/>
        <pt x="248" y="640" on="0"/>
        <pt x="248" y="623" on="1"/>
        <pt x="248" y="265" on="1"/>
        <pt x="248" y="60" on="0"/>
        <pt x="439" y="60" on="1"/>
        <pt x="511" y="60" on="0"/>
        <pt x="582" y="160" on="0"/>
        <pt x="582" y="251" on="1"/>
        <pt x="582" y="623" on="1"/>
        <pt x="582" y="641" on="0"/>
        <pt x="555" y="659" on="0"/>
        <pt x="515" y="659" on="1"/>
        <pt x="502" y="713" on="1"/>
        <pt x="622" y="710" on="0"/>
        <pt x="680" y="710" on="0"/>
        <pt x="756" y="713" on="1"/>
        <pt x="768" y="659" on="1"/>
        <pt x="720" y="658" on="0"/>
        <pt x="689" y="640" on="0"/>
        <pt x="689" y="623" on="1"/>
        <pt x="689" y="260" on="1"/>
        <pt x="689" y="-12" on="0"/>
      </contour>
      <contour>
        <pt x="374" y="930" on="1"/>
        <pt x="434" y="932" on="0"/>
        <pt x="478" y="932" on="0"/>
        <pt x="483" y="920" on="1"/>
        <pt x="583" y="798" on="1"/>
        <pt x="583" y="782" on="0"/>
        <pt x="547" y="769" on="1"/>
        <pt x="425" y="852" on="1"/>
        <pt x="304" y="769" on="1"/>
        <pt x="276" y="776" on="0"/>
        <pt x="268" y="798" on="1"/>
      </contour>
    </TTGlyph>
    <TTGlyph name="Udieresis" xMin="30" yMin="-12" xMax="768" yMax="909">
      <contour>
        <pt x="431" y="-12" on="1"/>
        <pt x="270" y="-12" on="0"/>
        <pt x="110" y="114" on="0"/>
        <pt x="110" y="253" on="1"/>
        <pt x="110" y="623" on="1"/>
        <pt x="110" y="641" on="0"/>
        <pt x="83" y="659" on="0"/>
        <pt x="43" y="659" on="1"/>
        <pt x="30" y="713" on="1"/>
        <pt x="150" y="710" on="0"/>
        <pt x="239" y="710" on="0"/>
        <pt x="315" y="713" on="1"/>
        <pt x="327" y="659" on="1"/>
        <pt x="279" y="658" on="0"/>
        <pt x="248" y="640" on="0"/>
        <pt x="248" y="623" on="1"/>
        <pt x="248" y="265" on="1"/>
        <pt x="248" y="60" on="0"/>
        <pt x="439" y="60" on="1"/>
        <pt x="511" y="60" on="0"/>
        <pt x="582" y="160" on="0"/>
        <pt x="582" y="251" on="1"/>
        <pt x="582" y="623" on="1"/>
        <pt x="582" y="641" on="0"/>
        <pt x="555" y="659" on="0"/>
        <pt x="515" y="659" on="1"/>
        <pt x="502" y="713" on="1"/>
        <pt x="622" y="710" on="0"/>
        <pt x="680" y="710" on="0"/>
        <pt x="756" y="713" on="1"/>
        <pt x="768" y="659" on="1"/>
        <pt x="720" y="658" on="0"/>
        <pt x="689" y="640" on="0"/>
        <pt x="689" y="623" on="1"/>
        <pt x="689" y="260" on="1"/>
        <pt x="689" y="-12" on="0"/>
      </contour>
      <contour>
        <pt x="298" y="771" on="0"/>
        <pt x="260" y="808" on="0"/>
        <pt x="260" y="867" on="0"/>
        <pt x="300" y="909" on="0"/>
        <pt x="360" y="909" on="0"/>
        <pt x="399" y="873" on="0"/>
        <pt x="399" y="813" on="0"/>
        <pt x="359" y="771" on="0"/>
      </contour>
      <contour>
        <pt x="480" y="771" on="0"/>
        <pt x="442" y="808" on="0"/>
        <pt x="442" y="867" on="0"/>
        <pt x="482" y="909" on="0"/>
        <pt x="542" y="909" on="0"/>
        <pt x="580" y="873" on="0"/>
        <pt x="580" y="813" on="0"/>
        <pt x="540" y="771" on="0"/>
      </contour>
    </TTGlyph>
    <TTGlyph name="Ugrave" xMin="30" yMin="-12" xMax="768" yMax="919">
      <contour>
        <pt x="431" y="-12" on="1"/>
        <pt x="270" y="-12" on="0"/>
        <pt x="110" y="114" on="0"/>
        <pt x="110" y="253" on="1"/>
        <pt x="110" y="623" on="1"/>
        <pt x="110" y="641" on="0"/>
        <pt x="83" y="659" on="0"/>
        <pt x="43" y="659" on="1"/>
        <pt x="30" y="713" on="1"/>
        <pt x="150" y="710" on="0"/>
        <pt x="239" y="710" on="0"/>
        <pt x="315" y="713" on="1"/>
        <pt x="327" y="659" on="1"/>
        <pt x="279" y="658" on="0"/>
        <pt x="248" y="640" on="0"/>
        <pt x="248" y="623" on="1"/>
        <pt x="248" y="265" on="1"/>
        <pt x="248" y="60" on="0"/>
        <pt x="439" y="60" on="1"/>
        <pt x="511" y="60" on="0"/>
        <pt x="582" y="160" on="0"/>
        <pt x="582" y="251" on="1"/>
        <pt x="582" y="623" on="1"/>
        <pt x="582" y="641" on="0"/>
        <pt x="555" y="659" on="0"/>
        <pt x="515" y="659" on="1"/>
        <pt x="502" y="713" on="1"/>
        <pt x="622" y="710" on="0"/>
        <pt x="680" y="710" on="0"/>
        <pt x="756" y="713" on="1"/>
        <pt x="768" y="659" on="1"/>
        <pt x="720" y="658" on="0"/>
        <pt x="689" y="640" on="0"/>
        <pt x="689" y="623" on="1"/>
        <pt x="689" y="260" on="1"/>
        <pt x="689" y="-12" on="0"/>
      </contour>
      <contour>
        <pt x="460" y="813" on="1"/>
        <pt x="462" y="808" on="0"/>
        <pt x="462" y="786" on="0"/>
        <pt x="446" y="769" on="1"/>
        <pt x="220" y="820" on="1"/>
        <pt x="217" y="821" on="0"/>
        <pt x="217" y="825" on="0"/>
        <pt x="219" y="828" on="1"/>
        <pt x="248" y="892" on="0"/>
        <pt x="290" y="919" on="1"/>
      </contour>
    </TTGlyph>
    <TTGlyph name="V" xMin="0" yMin="0" xMax="722" yMax="713">
      <contour>
        <pt x="593" y="710" on="1"/>
        <pt x="715" y="713" on="1"/>
        <pt x="722" y="660" on="1"/>
        <pt x="669" y="654" on="0"/>
        <pt x="646" y="628" on="1"/>
        <pt x="627" y="605" on="0"/>
        <pt x="611" y="562" on="1"/>
        <pt x="402" y="0" on="1"/>
        <pt x="317" y="0" on="1"/>
        <pt x="104" y="577" on="1"/>
        <pt x="87" y="622" on="0"/>
        <pt x="47" y="660" on="0"/>
        <pt x="11" y="660" on="1"/>
        <pt x="0" y="713" on="1"/>
        <pt x="46" y="710" on="0"/>
        <pt x="272" y="710" on="0"/>
        <pt x="303" y="713" on="1"/>
        <pt x="312" y="660" on="1"/>
        <pt x="259" y="660" on="0"/>
        <pt x="234" y="645" on="0"/>
        <pt x="234" y="623" on="0"/>
        <pt x="239" y="611" on="1"/>
        <pt x="402" y="187" on="1"/>
        <pt x="540" y="582" on="1"/>
        <pt x="544" y="593" on="0"/>
        <pt x="544" y="603" on="1"/>
        <pt x="544" y="624" on="0"/>
        <pt x="494" y="659" on="0"/>
        <pt x="442" y="660" on="1"/>
        <pt x="432" y="713" on="1"/>
      </contour>
    </TTGlyph>
    <TTGlyph name="W" xMin="0" yMin="0" xMax="1078" yMax="713">
      <contour>
        <pt x="164" y="710" on="1"/>
        <pt x="303" y="713" on="1"/>
        <pt x="312" y="659" on="1"/>
        <pt x="259" y="659" on="0"/>
        <pt x="234" y="645" on="0"/>
        <pt x="234" y="623" on="0"/>
        <pt x="239" y="611" on="1"/>
        <pt x="402" y="187" on="1"/>
        <pt x="500" y="468" on="1"/>
        <pt x="460" y="577" on="1"/>
        <pt x="443" y="622" on="0"/>
        <pt x="403" y="659" on="0"/>
        <pt x="367" y="659" on="1"/>
        <pt x="356" y="712" on="1"/>
        <pt x="456" y="710" on="0"/>
        <pt x="566" y="710" on="0"/>
        <pt x="659" y="713" on="1"/>
        <pt x="668" y="659" on="1"/>
        <pt x="615" y="659" on="0"/>
        <pt x="590" y="645" on="0"/>
        <pt x="590" y="623" on="0"/>
        <pt x="595" y="611" on="1"/>
        <pt x="758" y="187" on="1"/>
        <pt x="896" y="582" on="1"/>
        <pt x="900" y="593" on="0"/>
        <pt x="900" y="603" on="1"/>
        <pt x="900" y="624" on="0"/>
        <pt x="850" y="658" on="0"/>
        <pt x="798" y="659" on="1"/>
        <pt x="788" y="713" on="1"/>
        <pt x="949" y="710" on="1"/>
        <pt x="1071" y="713" on="1"/>
        <pt x="1078" y="659" on="1"/>
        <pt x="1043" y="656" on="0"/>
        <pt x="999" y="628" on="0"/>
        <pt x="979" y="595" on="0"/>
        <pt x="967" y="562" on="1"/>
        <pt x="758" y="0" on="1"/>
        <pt x="673" y="0" on="1"/>
        <pt x="538" y="365" on="1"/>
        <pt x="402" y="0" on="1"/>
        <pt x="317" y="0" on="1"/>
        <pt x="104" y="577" on="1"/>
        <pt x="87" y="622" on="0"/>
        <pt x="47" y="659" on="0"/>
        <pt x="11" y="659" on="1"/>
        <pt x="0" y="713" on="1"/>
        <pt x="46" y="710" on="0"/>
      </contour>
    </TTGlyph>
    <TTGlyph name="X" xMin="0" yMin="-4" xMax="755" yMax="714">
      <contour>
        <pt x="297" y="-3" on="1"/>
        <pt x="143" y="0" on="1"/>
        <pt x="14" y="-3" on="1"/>
        <pt x="0" y="52" on="1"/>
        <pt x="5" y="52" on="0"/>
        <pt x="25" y="56" on="0"/>
        <pt x="42" y="59" on="0"/>
        <pt x="50" y="62" on="0"/>
        <pt x="65" y="67" on="0"/>
        <pt x="75" y="73" on="0"/>
        <pt x="81" y="77" on="1"/>
        <pt x="91" y="84" on="0"/>
        <pt x="103" y="98" on="1"/>
        <pt x="304" y="343" on="1"/>
        <pt x="123" y="578" on="1"/>
        <pt x="94" y="621" on="0"/>
        <pt x="47" y="658" on="0"/>
        <pt x="14" y="658" on="1"/>
        <pt x="3" y="713" on="1"/>
        <pt x="49" y="710" on="0"/>
        <pt x="294" y="710" on="0"/>
        <pt x="326" y="713" on="1"/>
        <pt x="338" y="658" on="1"/>
        <pt x="295" y="658" on="0"/>
        <pt x="262" y="639" on="0"/>
        <pt x="262" y="622" on="0"/>
        <pt x="268" y="613" on="1"/>
        <pt x="385" y="451" on="1"/>
        <pt x="508" y="599" on="1"/>
        <pt x="519" y="615" on="0"/>
        <pt x="519" y="634" on="0"/>
        <pt x="514" y="640" on="1"/>
        <pt x="501" y="653" on="0"/>
        <pt x="457" y="658" on="1"/>
        <pt x="446" y="713" on="1"/>
        <pt x="599" y="710" on="1"/>
        <pt x="729" y="714" on="1"/>
        <pt x="741" y="658" on="1"/>
        <pt x="663" y="658" on="0"/>
        <pt x="625" y="610" on="1"/>
        <pt x="436" y="384" on="1"/>
        <pt x="635" y="122" on="1"/>
        <pt x="665" y="82" on="0"/>
        <pt x="706" y="52" on="0"/>
        <pt x="740" y="52" on="1"/>
        <pt x="755" y="-3" on="1"/>
        <pt x="694" y="1" on="0"/>
        <pt x="486" y="1" on="0"/>
        <pt x="433" y="-4" on="1"/>
        <pt x="419" y="52" on="1"/>
        <pt x="466" y="52" on="0"/>
        <pt x="495" y="62" on="0"/>
        <pt x="495" y="72" on="1"/>
        <pt x="495" y="79" on="0"/>
        <pt x="490" y="88" on="1"/>
        <pt x="366" y="277" on="1"/>
        <pt x="223" y="101" on="1"/>
        <pt x="205" y="78" on="0"/>
        <pt x="231" y="62" on="1"/>
        <pt x="244" y="55" on="0"/>
        <pt x="281" y="51" on="1"/>
      </contour>
    </TTGlyph>
    <TTGlyph name="Y" xMin="0" yMin="-3" xMax="763" yMax="713">
      <contour>
        <pt x="322" y="660" on="1"/>
        <pt x="256" y="660" on="0"/>
        <pt x="256" y="640" on="1"/>
        <pt x="256" y="629" on="0"/>
        <pt x="269" y="612" on="1"/>
        <pt x="405" y="387" on="1"/>
        <pt x="544" y="582" on="1"/>
        <pt x="564" y="607" on="0"/>
        <pt x="564" y="639" on="0"/>
        <pt x="532" y="660" on="0"/>
        <pt x="493" y="660" on="1"/>
        <pt x="483" y="713" on="1"/>
        <pt x="634" y="710" on="1"/>
        <pt x="756" y="713" on="1"/>
        <pt x="763" y="660" on="1"/>
        <pt x="736" y="660" on="0"/>
        <pt x="682" y="628" on="0"/>
        <pt x="651" y="595" on="0"/>
        <pt x="624" y="562" on="1"/>
        <pt x="457" y="334" on="1"/>
        <pt x="458" y="87" on="1"/>
        <pt x="458" y="69" on="0"/>
        <pt x="485" y="51" on="0"/>
        <pt x="525" y="51" on="1"/>
        <pt x="538" y="-3" on="1"/>
        <pt x="418" y="0" on="0"/>
        <pt x="330" y="0" on="0"/>
        <pt x="253" y="-3" on="1"/>
        <pt x="241" y="51" on="1"/>
        <pt x="289" y="52" on="0"/>
        <pt x="320" y="70" on="0"/>
        <pt x="320" y="87" on="1"/>
        <pt x="320" y="310" on="1"/>
        <pt x="134" y="578" on="1"/>
        <pt x="73" y="660" on="0"/>
        <pt x="11" y="660" on="1"/>
        <pt x="0" y="713" on="1"/>
        <pt x="46" y="710" on="0"/>
        <pt x="282" y="710" on="0"/>
        <pt x="313" y="713" on="1"/>
      </contour>
    </TTGlyph>
    <TTGlyph name="Yacute" xMin="-30" yMin="-3" xMax="733" yMax="917">
      <contour>
        <pt x="292" y="660" on="1"/>
        <pt x="226" y="660" on="0"/>
        <pt x="226" y="640" on="1"/>
        <pt x="226" y="629" on="0"/>
        <pt x="239" y="612" on="1"/>
        <pt x="375" y="387" on="1"/>
        <pt x="514" y="582" on="1"/>
        <pt x="534" y="607" on="0"/>
        <pt x="534" y="639" on="0"/>
        <pt x="502" y="660" on="0"/>
        <pt x="463" y="660" on="1"/>
        <pt x="453" y="713" on="1"/>
        <pt x="604" y="710" on="1"/>
        <pt x="726" y="713" on="1"/>
        <pt x="733" y="660" on="1"/>
        <pt x="706" y="660" on="0"/>
        <pt x="652" y="628" on="0"/>
        <pt x="621" y="595" on="0"/>
        <pt x="594" y="562" on="1"/>
        <pt x="427" y="334" on="1"/>
        <pt x="428" y="87" on="1"/>
        <pt x="428" y="69" on="0"/>
        <pt x="455" y="51" on="0"/>
        <pt x="495" y="51" on="1"/>
        <pt x="508" y="-3" on="1"/>
        <pt x="388" y="0" on="0"/>
        <pt x="300" y="0" on="0"/>
        <pt x="223" y="-3" on="1"/>
        <pt x="211" y="51" on="1"/>
        <pt x="259" y="52" on="0"/>
        <pt x="290" y="70" on="0"/>
        <pt x="290" y="87" on="1"/>
        <pt x="290" y="310" on="1"/>
        <pt x="104" y="578" on="1"/>
        <pt x="43" y="660" on="0"/>
        <pt x="-19" y="660" on="1"/>
        <pt x="-30" y="713" on="1"/>
        <pt x="16" y="710" on="0"/>
        <pt x="252" y="710" on="0"/>
        <pt x="283" y="713" on="1"/>
      </contour>
      <contour>
        <pt x="598" y="840" on="1"/>
        <pt x="599" y="837" on="0"/>
        <pt x="599" y="832" on="0"/>
        <pt x="597" y="831" on="1"/>
        <pt x="374" y="770" on="1"/>
        <pt x="356" y="787" on="0"/>
        <pt x="356" y="805" on="1"/>
        <pt x="356" y="809" on="0"/>
        <pt x="357" y="813" on="1"/>
        <pt x="522" y="917" on="1"/>
        <pt x="572" y="890" on="0"/>
      </contour>
    </TTGlyph>
    <TTGlyph name="Z" xMin="15" yMin="-11" xMax="665" yMax="722">
      <contour>
        <pt x="432" y="0" on="1"/>
        <pt x="132" y="0" on="1"/>
        <pt x="69" y="0" on="0"/>
        <pt x="31" y="-11" on="1"/>
        <pt x="15" y="16" on="0"/>
        <pt x="15" y="18" on="1"/>
        <pt x="460" y="647" on="1"/>
        <pt x="262" y="647" on="1"/>
        <pt x="180" y="647" on="0"/>
        <pt x="154" y="622" on="1"/>
        <pt x="133" y="604" on="0"/>
        <pt x="118" y="522" on="1"/>
        <pt x="65" y="520" on="1"/>
        <pt x="56" y="566" on="0"/>
        <pt x="56" y="683" on="0"/>
        <pt x="68" y="722" on="1"/>
        <pt x="109" y="710" on="0"/>
        <pt x="154" y="710" on="1"/>
        <pt x="556" y="710" on="1"/>
        <pt x="602" y="710" on="0"/>
        <pt x="644" y="722" on="1"/>
        <pt x="657" y="697" on="0"/>
        <pt x="657" y="692" on="1"/>
        <pt x="431" y="380" on="0"/>
        <pt x="264" y="134" on="1"/>
        <pt x="230" y="82" on="0"/>
        <pt x="224" y="69" on="1"/>
        <pt x="518" y="69" on="1"/>
        <pt x="556" y="69" on="0"/>
        <pt x="593" y="130" on="0"/>
        <pt x="602" y="204" on="1"/>
        <pt x="659" y="211" on="1"/>
        <pt x="665" y="152" on="0"/>
        <pt x="665" y="42" on="0"/>
        <pt x="655" y="-4" on="1"/>
        <pt x="555" y="0" on="0"/>
      </contour>
    </TTGlyph>
    <TTGlyph name="a" xMin="32" yMin="-12" xMax="447" yMax="448">
      <contour>
        <pt x="189" y="170" on="0"/>
        <pt x="143" y="135" on="0"/>
        <pt x="143" y="88" on="0"/>
        <pt x="176" y="60" on="0"/>
        <pt x="230" y="60" on="0"/>
        <pt x="254" y="82" on="1"/>
        <pt x="252" y="183" on="1"/>
      </contour>
      <contour>
        <pt x="439" y="69" on="1"/>
        <pt x="447" y="28" on="1"/>
        <pt x="430" y="21" on="0"/>
        <pt x="323" y="-12" on="0"/>
        <pt x="297" y="-12" on="0"/>
        <pt x="285" y="-6" on="0"/>
        <pt x="275" y="10" on="0"/>
        <pt x="271" y="19" on="0"/>
        <pt x="263" y="44" on="0"/>
        <pt x="262" y="47" on="1"/>
        <pt x="208" y="-12" on="0"/>
        <pt x="139" y="-12" on="1"/>
        <pt x="94" y="-12" on="0"/>
        <pt x="32" y="45" on="0"/>
        <pt x="32" y="87" on="1"/>
        <pt x="32" y="144" on="0"/>
        <pt x="123" y="199" on="0"/>
        <pt x="249" y="226" on="1"/>
        <pt x="249" y="262" on="1"/>
        <pt x="249" y="320" on="0"/>
        <pt x="223" y="377" on="0"/>
        <pt x="158" y="377" on="0"/>
        <pt x="140" y="367" on="1"/>
        <pt x="140" y="303" on="1"/>
        <pt x="140" y="297" on="0"/>
        <pt x="76" y="285" on="0"/>
        <pt x="46" y="285" on="0"/>
        <pt x="46" y="321" on="1"/>
        <pt x="46" y="338" on="0"/>
        <pt x="58" y="376" on="0"/>
        <pt x="65" y="384" on="1"/>
        <pt x="83" y="404" on="0"/>
        <pt x="202" y="448" on="0"/>
        <pt x="233" y="448" on="1"/>
        <pt x="298" y="448" on="0"/>
        <pt x="371" y="368" on="0"/>
        <pt x="371" y="290" on="1"/>
        <pt x="371" y="87" on="1"/>
        <pt x="371" y="68" on="0"/>
        <pt x="387" y="68" on="1"/>
        <pt x="414" y="69" on="1"/>
      </contour>
    </TTGlyph>
    <TTGlyph name="aacute" xMin="32" yMin="-12" xMax="447" yMax="722">
      <contour>
        <pt x="189" y="170" on="0"/>
        <pt x="143" y="135" on="0"/>
        <pt x="143" y="88" on="0"/>
        <pt x="176" y="60" on="0"/>
        <pt x="230" y="60" on="0"/>
        <pt x="254" y="82" on="1"/>
        <pt x="252" y="183" on="1"/>
      </contour>
      <contour>
        <pt x="439" y="69" on="1"/>
        <pt x="447" y="28" on="1"/>
        <pt x="430" y="21" on="0"/>
        <pt x="323" y="-12" on="0"/>
        <pt x="297" y="-12" on="0"/>
        <pt x="285" y="-6" on="0"/>
        <pt x="275" y="10" on="0"/>
        <pt x="271" y="19" on="0"/>
        <pt x="263" y="44" on="0"/>
        <pt x="262" y="47" on="1"/>
        <pt x="208" y="-12" on="0"/>
        <pt x="139" y="-12" on="1"/>
        <pt x="94" y="-12" on="0"/>
        <pt x="32" y="45" on="0"/>
        <pt x="32" y="87" on="1"/>
        <pt x="32" y="144" on="0"/>
        <pt x="123" y="199" on="0"/>
        <pt x="249" y="226" on="1"/>
        <pt x="249" y="262" on="1"/>
        <pt x="249" y="320" on="0"/>
        <pt x="223" y="377" on="0"/>
        <pt x="158" y="377" on="0"/>
        <pt x="140" y="367" on="1"/>
        <pt x="140" y="303" on="1"/>
        <pt x="140" y="297" on="0"/>
        <pt x="76" y="285" on="0"/>
        <pt x="46" y="285" on="0"/>
        <pt x="46" y="321" on="1"/>
        <pt x="46" y="338" on="0"/>
        <pt x="58" y="376" on="0"/>
        <pt x="65" y="384" on="1"/>
        <pt x="83" y="404" on="0"/>
        <pt x="202" y="448" on="0"/>
        <pt x="233" y="448" on="1"/>
        <pt x="298" y="448" on="0"/>
        <pt x="371" y="368" on="0"/>
        <pt x="371" y="290" on="1"/>
        <pt x="371" y="87" on="1"/>
        <pt x="371" y="68" on="0"/>
        <pt x="387" y="68" on="1"/>
        <pt x="414" y="69" on="1"/>
      </contour>
      <contour>
        <pt x="374" y="683" on="1"/>
        <pt x="378" y="680" on="0"/>
        <pt x="378" y="676" on="0"/>
        <pt x="377" y="675" on="1"/>
        <pt x="214" y="512" on="1"/>
        <pt x="184" y="519" on="0"/>
        <pt x="178" y="541" on="1"/>
        <pt x="265" y="722" on="1"/>
        <pt x="313" y="722" on="0"/>
      </contour>
    </TTGlyph>
    <TTGlyph name="acircumflex" xMin="32" yMin="-12" xMax="447" yMax="695">
      <contour>
        <pt x="189" y="170" on="0"/>
        <pt x="143" y="135" on="0"/>
        <pt x="143" y="88" on="0"/>
        <pt x="176" y="60" on="0"/>
        <pt x="230" y="60" on="0"/>
        <pt x="254" y="82" on="1"/>
        <pt x="252" y="183" on="1"/>
      </contour>
      <contour>
        <pt x="439" y="69" on="1"/>
        <pt x="447" y="28" on="1"/>
        <pt x="430" y="21" on="0"/>
        <pt x="323" y="-12" on="0"/>
        <pt x="297" y="-12" on="0"/>
        <pt x="285" y="-6" on="0"/>
        <pt x="275" y="10" on="0"/>
        <pt x="271" y="19" on="0"/>
        <pt x="263" y="44" on="0"/>
        <pt x="262" y="47" on="1"/>
        <pt x="208" y="-12" on="0"/>
        <pt x="139" y="-12" on="1"/>
        <pt x="94" y="-12" on="0"/>
        <pt x="32" y="45" on="0"/>
        <pt x="32" y="87" on="1"/>
        <pt x="32" y="144" on="0"/>
        <pt x="123" y="199" on="0"/>
        <pt x="249" y="226" on="1"/>
        <pt x="249" y="262" on="1"/>
        <pt x="249" y="320" on="0"/>
        <pt x="223" y="377" on="0"/>
        <pt x="158" y="377" on="0"/>
        <pt x="140" y="367" on="1"/>
        <pt x="140" y="303" on="1"/>
        <pt x="140" y="297" on="0"/>
        <pt x="76" y="285" on="0"/>
        <pt x="46" y="285" on="0"/>
        <pt x="46" y="321" on="1"/>
        <pt x="46" y="338" on="0"/>
        <pt x="58" y="376" on="0"/>
        <pt x="65" y="384" on="1"/>
        <pt x="83" y="404" on="0"/>
        <pt x="202" y="448" on="0"/>
        <pt x="233" y="448" on="1"/>
        <pt x="298" y="448" on="0"/>
        <pt x="371" y="368" on="0"/>
        <pt x="371" y="290" on="1"/>
        <pt x="371" y="87" on="1"/>
        <pt x="371" y="68" on="0"/>
        <pt x="387" y="68" on="1"/>
        <pt x="414" y="69" on="1"/>
      </contour>
      <contour>
        <pt x="167" y="693" on="1"/>
        <pt x="227" y="695" on="0"/>
        <pt x="271" y="695" on="0"/>
        <pt x="276" y="683" on="1"/>
        <pt x="356" y="511" on="1"/>
        <pt x="356" y="505" on="0"/>
        <pt x="340" y="488" on="0"/>
        <pt x="320" y="482" on="1"/>
        <pt x="218" y="605" on="1"/>
        <pt x="117" y="482" on="1"/>
        <pt x="89" y="489" on="0"/>
        <pt x="81" y="511" on="1"/>
      </contour>
    </TTGlyph>
    <TTGlyph name="acute" xMin="33" yMin="512" xMax="233" yMax="722">
      <contour>
        <pt x="229" y="683" on="1"/>
        <pt x="233" y="680" on="0"/>
        <pt x="233" y="676" on="0"/>
        <pt x="232" y="675" on="1"/>
        <pt x="69" y="512" on="1"/>
        <pt x="39" y="519" on="0"/>
        <pt x="33" y="541" on="1"/>
        <pt x="120" y="722" on="1"/>
        <pt x="168" y="722" on="0"/>
      </contour>
    </TTGlyph>
    <TTGlyph name="acute.cap" xMin="25" yMin="584" xMax="268" yMax="731">
      <contour>
        <pt x="267" y="654" on="1"/>
        <pt x="268" y="651" on="0"/>
        <pt x="268" y="646" on="0"/>
        <pt x="266" y="645" on="1"/>
        <pt x="43" y="584" on="1"/>
        <pt x="25" y="601" on="0"/>
        <pt x="25" y="619" on="1"/>
        <pt x="25" y="623" on="0"/>
        <pt x="26" y="627" on="1"/>
        <pt x="191" y="731" on="1"/>
        <pt x="241" y="704" on="0"/>
      </contour>
    </TTGlyph>
    <TTGlyph name="adieresis" xMin="32" yMin="-12" xMax="447" yMax="676">
      <contour>
        <pt x="189" y="170" on="0"/>
        <pt x="143" y="135" on="0"/>
        <pt x="143" y="88" on="0"/>
        <pt x="176" y="60" on="0"/>
        <pt x="230" y="60" on="0"/>
        <pt x="254" y="82" on="1"/>
        <pt x="252" y="183" on="1"/>
      </contour>
      <contour>
        <pt x="439" y="69" on="1"/>
        <pt x="447" y="28" on="1"/>
        <pt x="430" y="21" on="0"/>
        <pt x="323" y="-12" on="0"/>
        <pt x="297" y="-12" on="0"/>
        <pt x="285" y="-6" on="0"/>
        <pt x="275" y="10" on="0"/>
        <pt x="271" y="19" on="0"/>
        <pt x="263" y="44" on="0"/>
        <pt x="262" y="47" on="1"/>
        <pt x="208" y="-12" on="0"/>
        <pt x="139" y="-12" on="1"/>
        <pt x="94" y="-12" on="0"/>
        <pt x="32" y="45" on="0"/>
        <pt x="32" y="87" on="1"/>
        <pt x="32" y="144" on="0"/>
        <pt x="123" y="199" on="0"/>
        <pt x="249" y="226" on="1"/>
        <pt x="249" y="262" on="1"/>
        <pt x="249" y="320" on="0"/>
        <pt x="223" y="377" on="0"/>
        <pt x="158" y="377" on="0"/>
        <pt x="140" y="367" on="1"/>
        <pt x="140" y="303" on="1"/>
        <pt x="140" y="297" on="0"/>
        <pt x="76" y="285" on="0"/>
        <pt x="46" y="285" on="0"/>
        <pt x="46" y="321" on="1"/>
        <pt x="46" y="338" on="0"/>
        <pt x="58" y="376" on="0"/>
        <pt x="65" y="384" on="1"/>
        <pt x="83" y="404" on="0"/>
        <pt x="202" y="448" on="0"/>
        <pt x="233" y="448" on="1"/>
        <pt x="298" y="448" on="0"/>
        <pt x="371" y="368" on="0"/>
        <pt x="371" y="290" on="1"/>
        <pt x="371" y="87" on="1"/>
        <pt x="371" y="68" on="0"/>
        <pt x="387" y="68" on="1"/>
        <pt x="414" y="69" on="1"/>
      </contour>
      <contour>
        <pt x="98" y="538" on="0"/>
        <pt x="60" y="575" on="0"/>
        <pt x="60" y="634" on="0"/>
        <pt x="100" y="676" on="0"/>
        <pt x="160" y="676" on="0"/>
        <pt x="199" y="640" on="0"/>
        <pt x="199" y="580" on="0"/>
        <pt x="159" y="538" on="0"/>
      </contour>
      <contour>
        <pt x="280" y="538" on="0"/>
        <pt x="242" y="575" on="0"/>
        <pt x="242" y="634" on="0"/>
        <pt x="282" y="676" on="0"/>
        <pt x="342" y="676" on="0"/>
        <pt x="380" y="640" on="0"/>
        <pt x="380" y="580" on="0"/>
        <pt x="340" y="538" on="0"/>
      </contour>
    </TTGlyph>
    <TTGlyph name="ae" xMin="32" yMin="-12" xMax="664" yMax="448">
      <contour>
        <pt x="519" y="59" on="1"/>
        <pt x="553" y="59" on="0"/>
        <pt x="618" y="90" on="0"/>
        <pt x="641" y="113" on="0"/>
        <pt x="646" y="107" on="1"/>
        <pt x="662" y="85" on="1"/>
        <pt x="628" y="43" on="0"/>
        <pt x="527" y="-12" on="0"/>
        <pt x="479" y="-12" on="1"/>
        <pt x="375" y="-12" on="0"/>
        <pt x="315" y="53" on="1"/>
        <pt x="246" y="-12" on="0"/>
        <pt x="163" y="-12" on="1"/>
        <pt x="100" y="-12" on="0"/>
        <pt x="32" y="43" on="0"/>
        <pt x="32" y="87" on="1"/>
        <pt x="32" y="144" on="0"/>
        <pt x="133" y="209" on="0"/>
        <pt x="257" y="232" on="1"/>
        <pt x="257" y="240" on="0"/>
        <pt x="259" y="252" on="1"/>
        <pt x="259" y="262" on="1"/>
        <pt x="259" y="377" on="0"/>
        <pt x="189" y="377" on="1"/>
        <pt x="158" y="377" on="0"/>
        <pt x="140" y="367" on="1"/>
        <pt x="140" y="303" on="1"/>
        <pt x="140" y="297" on="0"/>
        <pt x="76" y="285" on="0"/>
        <pt x="46" y="285" on="0"/>
        <pt x="46" y="321" on="1"/>
        <pt x="46" y="338" on="0"/>
        <pt x="58" y="376" on="0"/>
        <pt x="65" y="384" on="1"/>
        <pt x="83" y="404" on="0"/>
        <pt x="202" y="448" on="0"/>
        <pt x="233" y="448" on="1"/>
        <pt x="305" y="448" on="0"/>
        <pt x="338" y="398" on="1"/>
        <pt x="400" y="448" on="0"/>
        <pt x="554" y="448" on="0"/>
        <pt x="664" y="357" on="0"/>
        <pt x="664" y="271" on="1"/>
        <pt x="664" y="256" on="0"/>
        <pt x="655" y="256" on="1"/>
        <pt x="379" y="202" on="1"/>
        <pt x="378" y="152" on="0"/>
        <pt x="454" y="59" on="0"/>
      </contour>
      <contour>
        <pt x="549" y="330" on="0"/>
        <pt x="504" y="389" on="0"/>
        <pt x="421" y="389" on="0"/>
        <pt x="375" y="313" on="0"/>
        <pt x="375" y="272" on="1"/>
        <pt x="375" y="262" on="0"/>
        <pt x="376" y="252" on="1"/>
        <pt x="549" y="296" on="1"/>
      </contour>
      <contour>
        <pt x="143" y="87" on="0"/>
        <pt x="181" y="60" on="0"/>
        <pt x="249" y="60" on="0"/>
        <pt x="286" y="93" on="1"/>
        <pt x="266" y="130" on="0"/>
        <pt x="259" y="183" on="1"/>
        <pt x="143" y="156" on="0"/>
        <pt x="143" y="113" on="1"/>
      </contour>
    </TTGlyph>
    <TTGlyph name="agrave" xMin="32" yMin="-12" xMax="447" yMax="703">
      <contour>
        <pt x="189" y="170" on="0"/>
        <pt x="143" y="135" on="0"/>
        <pt x="143" y="88" on="0"/>
        <pt x="176" y="60" on="0"/>
        <pt x="230" y="60" on="0"/>
        <pt x="254" y="82" on="1"/>
        <pt x="252" y="183" on="1"/>
      </contour>
      <contour>
        <pt x="439" y="69" on="1"/>
        <pt x="447" y="28" on="1"/>
        <pt x="430" y="21" on="0"/>
        <pt x="323" y="-12" on="0"/>
        <pt x="297" y="-12" on="0"/>
        <pt x="285" y="-6" on="0"/>
        <pt x="275" y="10" on="0"/>
        <pt x="271" y="19" on="0"/>
        <pt x="263" y="44" on="0"/>
        <pt x="262" y="47" on="1"/>
        <pt x="208" y="-12" on="0"/>
        <pt x="139" y="-12" on="1"/>
        <pt x="94" y="-12" on="0"/>
        <pt x="32" y="45" on="0"/>
        <pt x="32" y="87" on="1"/>
        <pt x="32" y="144" on="0"/>
        <pt x="123" y="199" on="0"/>
        <pt x="249" y="226" on="1"/>
        <pt x="249" y="262" on="1"/>
        <pt x="249" y="320" on="0"/>
        <pt x="223" y="377" on="0"/>
        <pt x="158" y="377" on="0"/>
        <pt x="140" y="367" on="1"/>
        <pt x="140" y="303" on="1"/>
        <pt x="140" y="297" on="0"/>
        <pt x="76" y="285" on="0"/>
        <pt x="46" y="285" on="0"/>
        <pt x="46" y="321" on="1"/>
        <pt x="46" y="338" on="0"/>
        <pt x="58" y="376" on="0"/>
        <pt x="65" y="384" on="1"/>
        <pt x="83" y="404" on="0"/>
        <pt x="202" y="448" on="0"/>
        <pt x="233" y="448" on="1"/>
        <pt x="298" y="448" on="0"/>
        <pt x="371" y="368" on="0"/>
        <pt x="371" y="290" on="1"/>
        <pt x="371" y="87" on="1"/>
        <pt x="371" y="68" on="0"/>
        <pt x="387" y="68" on="1"/>
        <pt x="414" y="69" on="1"/>
      </contour>
      <contour>
        <pt x="80" y="656" on="1"/>
        <pt x="79" y="657" on="0"/>
        <pt x="79" y="661" on="0"/>
        <pt x="83" y="664" on="1"/>
        <pt x="144" y="703" on="0"/>
        <pt x="192" y="703" on="1"/>
        <pt x="279" y="522" on="1"/>
        <pt x="273" y="500" on="0"/>
        <pt x="243" y="493" on="1"/>
      </contour>
    </TTGlyph>
    <TTGlyph name="ampersand" xMin="27" yMin="-12" xMax="814" yMax="722">
      <contour>
        <pt x="814" y="-2" on="1"/>
        <pt x="705" y="1" on="1"/>
        <pt x="661" y="1" on="0"/>
        <pt x="615" y="-1" on="1"/>
        <pt x="499" y="86" on="1"/>
        <pt x="404" y="-12" on="0"/>
        <pt x="271" y="-12" on="1"/>
        <pt x="167" y="-12" on="0"/>
        <pt x="27" y="97" on="0"/>
        <pt x="27" y="234" on="0"/>
        <pt x="93" y="337" on="0"/>
        <pt x="169" y="387" on="1"/>
        <pt x="145" y="412" on="0"/>
        <pt x="117" y="448" on="0"/>
        <pt x="91" y="510" on="0"/>
        <pt x="90" y="549" on="0"/>
        <pt x="90" y="554" on="1"/>
        <pt x="90" y="623" on="0"/>
        <pt x="204" y="722" on="0"/>
        <pt x="359" y="722" on="0"/>
        <pt x="450" y="650" on="0"/>
        <pt x="450" y="590" on="1"/>
        <pt x="450" y="503" on="0"/>
        <pt x="325" y="412" on="1"/>
        <pt x="513" y="243" on="1"/>
        <pt x="528" y="276" on="0"/>
        <pt x="549" y="356" on="0"/>
        <pt x="549" y="399" on="0"/>
        <pt x="479" y="399" on="1"/>
        <pt x="462" y="451" on="1"/>
        <pt x="612" y="448" on="1"/>
        <pt x="748" y="451" on="1"/>
        <pt x="761" y="399" on="1"/>
        <pt x="674" y="399" on="0"/>
        <pt x="658" y="368" on="1"/>
        <pt x="573" y="201" on="1"/>
        <pt x="718" y="86" on="1"/>
        <pt x="772" y="44" on="0"/>
        <pt x="806" y="44" on="1"/>
      </contour>
      <contour>
        <pt x="156" y="202" on="1"/>
        <pt x="156" y="145" on="0"/>
        <pt x="234" y="61" on="0"/>
        <pt x="291" y="61" on="1"/>
        <pt x="389" y="61" on="0"/>
        <pt x="443" y="133" on="1"/>
        <pt x="221" y="341" on="1"/>
        <pt x="195" y="317" on="0"/>
        <pt x="156" y="236" on="0"/>
      </contour>
      <contour>
        <pt x="350" y="617" on="0"/>
        <pt x="314" y="665" on="0"/>
        <pt x="246" y="665" on="0"/>
        <pt x="208" y="616" on="0"/>
        <pt x="208" y="555" on="0"/>
        <pt x="249" y="483" on="0"/>
        <pt x="277" y="455" on="1"/>
        <pt x="350" y="525" on="0"/>
        <pt x="350" y="585" on="1"/>
      </contour>
    </TTGlyph>
    <TTGlyph name="aring" xMin="32" yMin="-12" xMax="447" yMax="710">
      <contour>
        <pt x="183" y="511" on="0"/>
        <pt x="124" y="568" on="0"/>
        <pt x="124" y="649" on="0"/>
        <pt x="180" y="710" on="0"/>
        <pt x="266" y="710" on="0"/>
        <pt x="325" y="656" on="0"/>
        <pt x="325" y="575" on="0"/>
        <pt x="264" y="511" on="0"/>
      </contour>
      <contour>
        <pt x="209" y="651" on="0"/>
        <pt x="185" y="629" on="0"/>
        <pt x="185" y="595" on="0"/>
        <pt x="209" y="574" on="0"/>
        <pt x="244" y="574" on="0"/>
        <pt x="267" y="598" on="0"/>
        <pt x="267" y="615" on="1"/>
        <pt x="267" y="651" on="0"/>
        <pt x="228" y="651" on="1"/>
      </contour>
      <contour>
        <pt x="189" y="170" on="0"/>
        <pt x="143" y="135" on="0"/>
        <pt x="143" y="88" on="0"/>
        <pt x="176" y="60" on="0"/>
        <pt x="230" y="60" on="0"/>
        <pt x="254" y="82" on="1"/>
        <pt x="252" y="183" on="1"/>
      </contour>
      <contour>
        <pt x="439" y="69" on="1"/>
        <pt x="447" y="28" on="1"/>
        <pt x="430" y="21" on="0"/>
        <pt x="323" y="-12" on="0"/>
        <pt x="297" y="-12" on="0"/>
        <pt x="285" y="-6" on="0"/>
        <pt x="275" y="10" on="0"/>
        <pt x="271" y="19" on="0"/>
        <pt x="263" y="44" on="0"/>
        <pt x="262" y="47" on="1"/>
        <pt x="208" y="-12" on="0"/>
        <pt x="139" y="-12" on="1"/>
        <pt x="94" y="-12" on="0"/>
        <pt x="32" y="45" on="0"/>
        <pt x="32" y="87" on="1"/>
        <pt x="32" y="144" on="0"/>
        <pt x="123" y="199" on="0"/>
        <pt x="249" y="226" on="1"/>
        <pt x="249" y="262" on="1"/>
        <pt x="249" y="320" on="0"/>
        <pt x="223" y="377" on="0"/>
        <pt x="158" y="377" on="0"/>
        <pt x="140" y="367" on="1"/>
        <pt x="140" y="303" on="1"/>
        <pt x="140" y="297" on="0"/>
        <pt x="76" y="285" on="0"/>
        <pt x="46" y="285" on="0"/>
        <pt x="46" y="321" on="1"/>
        <pt x="46" y="338" on="0"/>
        <pt x="58" y="376" on="0"/>
        <pt x="65" y="384" on="1"/>
        <pt x="83" y="404" on="0"/>
        <pt x="202" y="448" on="0"/>
        <pt x="233" y="448" on="1"/>
        <pt x="298" y="448" on="0"/>
        <pt x="371" y="368" on="0"/>
        <pt x="371" y="290" on="1"/>
        <pt x="371" y="87" on="1"/>
        <pt x="371" y="68" on="0"/>
        <pt x="387" y="68" on="1"/>
        <pt x="414" y="69" on="1"/>
      </contour>
    </TTGlyph>
    <TTGlyph name="asciicircum" xMin="41" yMin="271" xMax="498" yMax="693">
      <contour>
        <pt x="229" y="691" on="1"/>
        <pt x="290" y="693" on="1"/>
        <pt x="302" y="693" on="0"/>
        <pt x="311" y="676" on="1"/>
        <pt x="498" y="322" on="1"/>
        <pt x="498" y="312" on="0"/>
        <pt x="475" y="295" on="0"/>
        <pt x="439" y="282" on="1"/>
        <pt x="265" y="584" on="1"/>
        <pt x="101" y="271" on="1"/>
        <pt x="57" y="286" on="0"/>
        <pt x="41" y="303" on="0"/>
        <pt x="41" y="309" on="1"/>
      </contour>
    </TTGlyph>
    <TTGlyph name="asciitilde" xMin="69" yMin="124" xMax="549" yMax="325">
      <contour>
        <pt x="147" y="138" on="1"/>
        <pt x="133" y="134" on="0"/>
        <pt x="81" y="134" on="0"/>
        <pt x="74" y="136" on="1"/>
        <pt x="70" y="155" on="0"/>
        <pt x="70" y="176" on="1"/>
        <pt x="70" y="246" on="0"/>
        <pt x="116" y="293" on="1"/>
        <pt x="147" y="325" on="0"/>
        <pt x="229" y="325" on="0"/>
        <pt x="300" y="290" on="0"/>
        <pt x="350" y="249" on="0"/>
        <pt x="408" y="214" on="0"/>
        <pt x="452" y="214" on="0"/>
        <pt x="476" y="279" on="0"/>
        <pt x="476" y="316" on="0"/>
        <pt x="475" y="323" on="1"/>
        <pt x="512" y="323" on="0"/>
        <pt x="542" y="305" on="1"/>
        <pt x="549" y="295" on="0"/>
        <pt x="549" y="268" on="1"/>
        <pt x="549" y="216" on="0"/>
        <pt x="486" y="124" on="0"/>
        <pt x="429" y="124" on="1"/>
        <pt x="390" y="124" on="0"/>
        <pt x="299" y="179" on="0"/>
        <pt x="219" y="234" on="0"/>
        <pt x="193" y="234" on="1"/>
        <pt x="147" y="234" on="0"/>
        <pt x="147" y="152" on="1"/>
        <pt x="147" y="145" on="0"/>
      </contour>
    </TTGlyph>
    <TTGlyph name="asterisk" xMin="23" yMin="345" xMax="341" yMax="680">
      <contour>
        <pt x="36" y="441" on="1"/>
        <pt x="23" y="454" on="0"/>
        <pt x="23" y="464" on="0"/>
        <pt x="25" y="471" on="0"/>
        <pt x="28" y="482" on="0"/>
        <pt x="29" y="484" on="1"/>
        <pt x="32" y="490" on="0"/>
        <pt x="36" y="502" on="1"/>
        <pt x="137" y="523" on="1"/>
        <pt x="43" y="600" on="1"/>
        <pt x="51" y="622" on="0"/>
        <pt x="96" y="628" on="1"/>
        <pt x="169" y="563" on="1"/>
        <pt x="180" y="611" on="0"/>
        <pt x="184" y="662" on="1"/>
        <pt x="208" y="679" on="0"/>
        <pt x="242" y="679" on="0"/>
        <pt x="247" y="671" on="1"/>
        <pt x="247" y="670" on="0"/>
        <pt x="242" y="652" on="1"/>
        <pt x="228" y="598" on="0"/>
        <pt x="221" y="555" on="1"/>
        <pt x="311" y="580" on="0"/>
        <pt x="332" y="589" on="1"/>
        <pt x="340" y="577" on="0"/>
        <pt x="340" y="568" on="1"/>
        <pt x="340" y="543" on="0"/>
        <pt x="328" y="528" on="1"/>
        <pt x="327" y="526" on="0"/>
        <pt x="313" y="523" on="1"/>
        <pt x="254" y="510" on="0"/>
        <pt x="237" y="505" on="1"/>
        <pt x="341" y="424" on="1"/>
        <pt x="335" y="415" on="0"/>
        <pt x="298" y="402" on="0"/>
        <pt x="280" y="402" on="0"/>
        <pt x="201" y="466" on="1"/>
        <pt x="181" y="366" on="0"/>
        <pt x="181" y="345" on="1"/>
        <pt x="157" y="349" on="0"/>
        <pt x="130" y="381" on="1"/>
        <pt x="154" y="486" on="1"/>
      </contour>
    </TTGlyph>
    <TTGlyph name="at" xMin="60" yMin="-187" xMax="840" yMax="579">
      <contour>
        <pt x="340" y="-8" on="1"/>
        <pt x="302" y="-8" on="0"/>
        <pt x="282" y="20" on="1"/>
        <pt x="261" y="50" on="0"/>
        <pt x="261" y="92" on="1"/>
        <pt x="261" y="252" on="0"/>
        <pt x="370" y="354" on="1"/>
        <pt x="422" y="402" on="0"/>
        <pt x="491" y="402" on="1"/>
        <pt x="532" y="402" on="0"/>
        <pt x="545" y="373" on="1"/>
        <pt x="553" y="408" on="1"/>
        <pt x="583" y="424" on="0"/>
        <pt x="637" y="424" on="1"/>
        <pt x="573" y="74" on="0"/>
        <pt x="573" y="62" on="0"/>
        <pt x="571" y="62" on="1"/>
        <pt x="613" y="62" on="0"/>
        <pt x="720" y="222" on="0"/>
        <pt x="720" y="341" on="1"/>
        <pt x="720" y="436" on="0"/>
        <pt x="622" y="531" on="0"/>
        <pt x="537" y="531" on="1"/>
        <pt x="450" y="531" on="0"/>
        <pt x="361" y="474" on="1"/>
        <pt x="312" y="442" on="0"/>
        <pt x="232" y="351" on="0"/>
        <pt x="180" y="206" on="0"/>
        <pt x="180" y="118" on="1"/>
        <pt x="180" y="-5" on="0"/>
        <pt x="318" y="-158" on="0"/>
        <pt x="423" y="-158" on="1"/>
        <pt x="428" y="-163" on="0"/>
        <pt x="428" y="-164" on="1"/>
        <pt x="428" y="-187" on="0"/>
        <pt x="366" y="-187" on="1"/>
        <pt x="289" y="-187" on="0"/>
        <pt x="212" y="-142" on="1"/>
        <pt x="170" y="-117" on="0"/>
        <pt x="103" y="-49" on="0"/>
        <pt x="60" y="57" on="0"/>
        <pt x="60" y="120" on="1"/>
        <pt x="60" y="250" on="0"/>
        <pt x="201" y="463" on="0"/>
        <pt x="432" y="579" on="0"/>
        <pt x="692" y="579" on="0"/>
        <pt x="840" y="447" on="0"/>
        <pt x="840" y="351" on="1"/>
        <pt x="840" y="284" on="0"/>
        <pt x="769" y="147" on="0"/>
        <pt x="665" y="50" on="0"/>
        <pt x="550" y="-12" on="0"/>
        <pt x="465" y="-12" on="0"/>
        <pt x="465" y="24" on="1"/>
        <pt x="465" y="48" on="0"/>
        <pt x="484" y="121" on="1"/>
        <pt x="459" y="86" on="0"/>
        <pt x="423" y="41" on="0"/>
        <pt x="363" y="-8" on="0"/>
      </contour>
      <contour>
        <pt x="422" y="102" on="1"/>
        <pt x="525" y="209" on="0"/>
        <pt x="525" y="312" on="1"/>
        <pt x="525" y="327" on="0"/>
        <pt x="504" y="358" on="0"/>
        <pt x="487" y="358" on="1"/>
        <pt x="436" y="358" on="0"/>
        <pt x="355" y="203" on="0"/>
        <pt x="355" y="119" on="1"/>
        <pt x="355" y="67" on="0"/>
        <pt x="374" y="67" on="1"/>
        <pt x="389" y="67" on="0"/>
      </contour>
    </TTGlyph>
    <TTGlyph name="atilde" xMin="32" yMin="-12" xMax="447" yMax="669">
      <contour>
        <pt x="189" y="170" on="0"/>
        <pt x="143" y="135" on="0"/>
        <pt x="143" y="88" on="0"/>
        <pt x="176" y="60" on="0"/>
        <pt x="230" y="60" on="0"/>
        <pt x="254" y="82" on="1"/>
        <pt x="252" y="183" on="1"/>
      </contour>
      <contour>
        <pt x="439" y="69" on="1"/>
        <pt x="447" y="28" on="1"/>
        <pt x="430" y="21" on="0"/>
        <pt x="323" y="-12" on="0"/>
        <pt x="297" y="-12" on="0"/>
        <pt x="285" y="-6" on="0"/>
        <pt x="275" y="10" on="0"/>
        <pt x="271" y="19" on="0"/>
        <pt x="263" y="44" on="0"/>
        <pt x="262" y="47" on="1"/>
        <pt x="208" y="-12" on="0"/>
        <pt x="139" y="-12" on="1"/>
        <pt x="94" y="-12" on="0"/>
        <pt x="32" y="45" on="0"/>
        <pt x="32" y="87" on="1"/>
        <pt x="32" y="144" on="0"/>
        <pt x="123" y="199" on="0"/>
        <pt x="249" y="226" on="1"/>
        <pt x="249" y="262" on="1"/>
        <pt x="249" y="320" on="0"/>
        <pt x="223" y="377" on="0"/>
        <pt x="158" y="377" on="0"/>
        <pt x="140" y="367" on="1"/>
        <pt x="140" y="303" on="1"/>
        <pt x="140" y="297" on="0"/>
        <pt x="76" y="285" on="0"/>
        <pt x="46" y="285" on="0"/>
        <pt x="46" y="321" on="1"/>
        <pt x="46" y="338" on="0"/>
        <pt x="58" y="376" on="0"/>
        <pt x="65" y="384" on="1"/>
        <pt x="83" y="404" on="0"/>
        <pt x="202" y="448" on="0"/>
        <pt x="233" y="448" on="1"/>
        <pt x="298" y="448" on="0"/>
        <pt x="371" y="368" on="0"/>
        <pt x="371" y="290" on="1"/>
        <pt x="371" y="87" on="1"/>
        <pt x="371" y="68" on="0"/>
        <pt x="387" y="68" on="1"/>
        <pt x="414" y="69" on="1"/>
      </contour>
      <contour>
        <pt x="116" y="641" on="1"/>
        <pt x="281" y="637" on="1"/>
        <pt x="332" y="637" on="0"/>
        <pt x="359" y="669" on="1"/>
        <pt x="366" y="669" on="0"/>
        <pt x="382" y="654" on="1"/>
        <pt x="383" y="652" on="0"/>
        <pt x="383" y="646" on="0"/>
        <pt x="381" y="642" on="1"/>
        <pt x="327" y="552" on="0"/>
        <pt x="283" y="552" on="1"/>
        <pt x="123" y="554" on="1"/>
        <pt x="86" y="554" on="0"/>
        <pt x="56" y="529" on="1"/>
        <pt x="56" y="529" on="0"/>
        <pt x="50" y="529" on="0"/>
        <pt x="35" y="542" on="1"/>
        <pt x="33" y="545" on="0"/>
        <pt x="33" y="551" on="0"/>
        <pt x="35" y="554" on="1"/>
        <pt x="78" y="641" on="0"/>
      </contour>
    </TTGlyph>
    <TTGlyph name="b" xMin="0" yMin="-12" xMax="524" yMax="766">
      <contour>
        <pt x="198" y="107" on="1"/>
        <pt x="198" y="83" on="0"/>
        <pt x="259" y="50" on="0"/>
        <pt x="296" y="50" on="1"/>
        <pt x="345" y="50" on="0"/>
        <pt x="393" y="139" on="0"/>
        <pt x="393" y="201" on="1"/>
        <pt x="393" y="375" on="0"/>
        <pt x="290" y="375" on="1"/>
        <pt x="268" y="375" on="0"/>
        <pt x="212" y="359" on="0"/>
        <pt x="198" y="348" on="1"/>
      </contour>
      <contour>
        <pt x="198" y="391" on="1"/>
        <pt x="258" y="448" on="0"/>
        <pt x="414" y="448" on="0"/>
        <pt x="524" y="323" on="0"/>
        <pt x="524" y="233" on="1"/>
        <pt x="524" y="123" on="0"/>
        <pt x="395" y="-12" on="0"/>
        <pt x="290" y="-12" on="1"/>
        <pt x="231" y="-12" on="0"/>
        <pt x="159" y="23" on="1"/>
        <pt x="129" y="-5" on="1"/>
        <pt x="120" y="-13" on="0"/>
        <pt x="107" y="-10" on="1"/>
        <pt x="95" y="-7" on="1"/>
        <pt x="77" y="-2" on="0"/>
        <pt x="80" y="38" on="0"/>
        <pt x="80" y="129" on="1"/>
        <pt x="78" y="619" on="1"/>
        <pt x="78" y="656" on="0"/>
        <pt x="54" y="676" on="0"/>
        <pt x="23" y="676" on="0"/>
        <pt x="13" y="675" on="1"/>
        <pt x="0" y="713" on="1"/>
        <pt x="91" y="736" on="0"/>
        <pt x="167" y="766" on="1"/>
        <pt x="186" y="766" on="0"/>
        <pt x="197" y="751" on="0"/>
        <pt x="197" y="737" on="1"/>
      </contour>
    </TTGlyph>
    <TTGlyph name="backslash" xMin="-51" yMin="-65" xMax="355" yMax="750">
      <contour>
        <pt x="355" y="-61" on="1"/>
        <pt x="344" y="-65" on="0"/>
        <pt x="314" y="-65" on="0"/>
        <pt x="259" y="-57" on="0"/>
        <pt x="252" y="-46" on="1"/>
        <pt x="-51" y="743" on="1"/>
        <pt x="-34" y="749" on="0"/>
        <pt x="-19" y="749" on="1"/>
        <pt x="25" y="749" on="0"/>
        <pt x="52" y="740" on="1"/>
      </contour>
    </TTGlyph>
    <TTGlyph name="bar" xMin="84" yMin="-267" xMax="170" yMax="766">
      <contour>
        <pt x="84" y="-267" on="1"/>
        <pt x="84" y="739" on="1"/>
        <pt x="97" y="749" on="0"/>
        <pt x="150" y="766" on="0"/>
        <pt x="170" y="766" on="1"/>
        <pt x="170" y="-243" on="1"/>
        <pt x="161" y="-254" on="0"/>
        <pt x="108" y="-267" on="0"/>
      </contour>
    </TTGlyph>
    <TTGlyph name="braceleft" xMin="45" yMin="-228" xMax="385" yMax="761">
      <contour>
        <pt x="45" y="291" on="1"/>
        <pt x="45" y="294" on="0"/>
        <pt x="50" y="296" on="1"/>
        <pt x="132" y="302" on="0"/>
        <pt x="154" y="336" on="1"/>
        <pt x="170" y="362" on="0"/>
        <pt x="170" y="417" on="0"/>
        <pt x="138" y="593" on="0"/>
        <pt x="138" y="602" on="1"/>
        <pt x="138" y="682" on="0"/>
        <pt x="273" y="760" on="0"/>
        <pt x="360" y="760" on="1"/>
        <pt x="375" y="760" on="0"/>
        <pt x="380" y="751" on="0"/>
        <pt x="381" y="745" on="1"/>
        <pt x="381" y="743" on="0"/>
        <pt x="385" y="730" on="1"/>
        <pt x="386" y="720" on="0"/>
        <pt x="378" y="719" on="1"/>
        <pt x="318" y="709" on="0"/>
        <pt x="253" y="661" on="0"/>
        <pt x="253" y="605" on="1"/>
        <pt x="253" y="582" on="0"/>
        <pt x="291" y="454" on="0"/>
        <pt x="291" y="395" on="0"/>
        <pt x="268" y="337" on="0"/>
        <pt x="199" y="282" on="0"/>
        <pt x="147" y="277" on="1"/>
        <pt x="146" y="276" on="0"/>
        <pt x="150" y="272" on="1"/>
        <pt x="220" y="253" on="0"/>
        <pt x="291" y="166" on="0"/>
        <pt x="291" y="77" on="0"/>
        <pt x="255" y="-39" on="0"/>
        <pt x="253" y="-65" on="0"/>
        <pt x="253" y="-72" on="1"/>
        <pt x="253" y="-169" on="0"/>
        <pt x="371" y="-181" on="1"/>
        <pt x="379" y="-182" on="0"/>
        <pt x="378" y="-192" on="1"/>
        <pt x="373" y="-219" on="0"/>
        <pt x="369" y="-227" on="0"/>
        <pt x="366" y="-228" on="1"/>
        <pt x="261" y="-216" on="0"/>
        <pt x="139" y="-113" on="0"/>
        <pt x="139" y="-48" on="1"/>
        <pt x="139" y="-20" on="0"/>
        <pt x="170" y="102" on="0"/>
        <pt x="170" y="143" on="0"/>
        <pt x="165" y="173" on="0"/>
        <pt x="154" y="192" on="1"/>
        <pt x="135" y="228" on="0"/>
        <pt x="53" y="248" on="1"/>
        <pt x="48" y="250" on="0"/>
        <pt x="45" y="257" on="0"/>
      </contour>
    </TTGlyph>
    <TTGlyph name="braceright" xMin="47" yMin="-228" xMax="385" yMax="761">
      <contour>
        <pt x="260" y="102" on="0"/>
        <pt x="291" y="-20" on="0"/>
        <pt x="291" y="-48" on="1"/>
        <pt x="291" y="-113" on="0"/>
        <pt x="169" y="-216" on="0"/>
        <pt x="64" y="-228" on="1"/>
        <pt x="58" y="-226" on="0"/>
        <pt x="57" y="-217" on="1"/>
        <pt x="52" y="-192" on="1"/>
        <pt x="51" y="-182" on="0"/>
        <pt x="59" y="-181" on="1"/>
        <pt x="177" y="-169" on="0"/>
        <pt x="177" y="-72" on="1"/>
        <pt x="177" y="-65" on="0"/>
        <pt x="175" y="-39" on="0"/>
        <pt x="139" y="77" on="0"/>
        <pt x="139" y="166" on="0"/>
        <pt x="210" y="253" on="0"/>
        <pt x="280" y="272" on="1"/>
        <pt x="284" y="276" on="0"/>
        <pt x="283" y="277" on="1"/>
        <pt x="231" y="282" on="0"/>
        <pt x="196" y="310" on="1"/>
        <pt x="139" y="355" on="0"/>
        <pt x="139" y="422" on="1"/>
        <pt x="139" y="454" on="0"/>
        <pt x="177" y="582" on="0"/>
        <pt x="177" y="605" on="1"/>
        <pt x="177" y="661" on="0"/>
        <pt x="112" y="709" on="0"/>
        <pt x="52" y="719" on="1"/>
        <pt x="42" y="720" on="0"/>
        <pt x="47" y="737" on="1"/>
        <pt x="48" y="739" on="0"/>
        <pt x="49" y="745" on="1"/>
        <pt x="51" y="758" on="0"/>
        <pt x="57" y="760" on="1"/>
        <pt x="64" y="760" on="0"/>
        <pt x="70" y="760" on="1"/>
        <pt x="157" y="760" on="0"/>
        <pt x="292" y="682" on="0"/>
        <pt x="292" y="602" on="1"/>
        <pt x="292" y="593" on="0"/>
        <pt x="260" y="417" on="0"/>
        <pt x="260" y="377" on="0"/>
        <pt x="266" y="353" on="0"/>
        <pt x="276" y="336" on="1"/>
        <pt x="298" y="302" on="0"/>
        <pt x="380" y="296" on="1"/>
        <pt x="385" y="294" on="0"/>
        <pt x="385" y="291" on="1"/>
        <pt x="385" y="257" on="0"/>
        <pt x="382" y="250" on="0"/>
        <pt x="377" y="248" on="1"/>
        <pt x="295" y="228" on="0"/>
        <pt x="276" y="192" on="1"/>
        <pt x="260" y="164" on="0"/>
      </contour>
    </TTGlyph>
    <TTGlyph name="bracketleft" xMin="96" yMin="-341" xMax="380" yMax="826">
      <contour>
        <pt x="373" y="-341" on="1"/>
        <pt x="340" y="-340" on="1"/>
        <pt x="258" y="-335" on="0"/>
        <pt x="122" y="-335" on="1"/>
        <pt x="96" y="-335" on="0"/>
        <pt x="96" y="-310" on="1"/>
        <pt x="96" y="794" on="1"/>
        <pt x="96" y="820" on="0"/>
        <pt x="121" y="820" on="1"/>
        <pt x="208" y="820" on="0"/>
        <pt x="372" y="826" on="1"/>
        <pt x="380" y="764" on="1"/>
        <pt x="354" y="764" on="0"/>
        <pt x="291" y="764" on="0"/>
        <pt x="229" y="761" on="0"/>
        <pt x="212" y="754" on="0"/>
        <pt x="212" y="745" on="1"/>
        <pt x="212" y="-260" on="1"/>
        <pt x="212" y="-272" on="0"/>
        <pt x="282" y="-279" on="0"/>
        <pt x="380" y="-279" on="1"/>
      </contour>
    </TTGlyph>
    <TTGlyph name="bracketright" xMin="-26" yMin="-341" xMax="258" yMax="826">
      <contour>
        <pt x="14" y="-340" on="1"/>
        <pt x="-19" y="-341" on="1"/>
        <pt x="-26" y="-279" on="1"/>
        <pt x="72" y="-279" on="0"/>
        <pt x="142" y="-272" on="0"/>
        <pt x="142" y="-260" on="1"/>
        <pt x="142" y="745" on="1"/>
        <pt x="142" y="754" on="0"/>
        <pt x="134" y="758" on="1"/>
        <pt x="117" y="764" on="0"/>
        <pt x="0" y="764" on="0"/>
        <pt x="-26" y="764" on="1"/>
        <pt x="-18" y="826" on="1"/>
        <pt x="145" y="820" on="0"/>
        <pt x="233" y="820" on="1"/>
        <pt x="258" y="820" on="0"/>
        <pt x="258" y="794" on="1"/>
        <pt x="258" y="-310" on="1"/>
        <pt x="258" y="-335" on="0"/>
        <pt x="232" y="-335" on="1"/>
        <pt x="96" y="-335" on="0"/>
      </contour>
    </TTGlyph>
    <TTGlyph name="brokenbar" xMin="82" yMin="-244" xMax="173" yMax="741">
      <contour>
        <pt x="82" y="304" on="1"/>
        <pt x="82" y="714" on="1"/>
        <pt x="94" y="724" on="0"/>
        <pt x="153" y="741" on="0"/>
        <pt x="173" y="741" on="1"/>
        <pt x="173" y="328" on="1"/>
        <pt x="164" y="318" on="0"/>
        <pt x="107" y="304" on="0"/>
      </contour>
      <contour>
        <pt x="82" y="-244" on="1"/>
        <pt x="82" y="166" on="1"/>
        <pt x="94" y="176" on="0"/>
        <pt x="153" y="193" on="0"/>
        <pt x="173" y="193" on="1"/>
        <pt x="173" y="-220" on="1"/>
        <pt x="164" y="-230" on="0"/>
        <pt x="107" y="-244" on="0"/>
      </contour>
    </TTGlyph>
    <TTGlyph name="bullet" xMin="101" yMin="83" xMax="392" yMax="377">
      <contour>
        <pt x="181" y="83" on="0"/>
        <pt x="101" y="163" on="0"/>
        <pt x="101" y="287" on="0"/>
        <pt x="185" y="377" on="0"/>
        <pt x="311" y="377" on="0"/>
        <pt x="392" y="303" on="0"/>
        <pt x="392" y="178" on="0"/>
        <pt x="305" y="83" on="0"/>
      </contour>
    </TTGlyph>
    <TTGlyph name="c" xMin="35" yMin="-12" xMax="444" yMax="448">
      <contour>
        <pt x="215" y="387" on="0"/>
        <pt x="165" y="307" on="0"/>
        <pt x="165" y="168" on="0"/>
        <pt x="232" y="59" on="0"/>
        <pt x="364" y="59" on="0"/>
        <pt x="416" y="106" on="1"/>
        <pt x="423" y="113" on="0"/>
        <pt x="428" y="107" on="1"/>
        <pt x="444" y="85" on="1"/>
        <pt x="410" y="42" on="0"/>
        <pt x="310" y="-12" on="0"/>
        <pt x="257" y="-12" on="1"/>
        <pt x="155" y="-12" on="0"/>
        <pt x="35" y="113" on="0"/>
        <pt x="35" y="207" on="1"/>
        <pt x="35" y="322" on="0"/>
        <pt x="167" y="448" on="0"/>
        <pt x="261" y="448" on="1"/>
        <pt x="308" y="448" on="0"/>
        <pt x="417" y="412" on="0"/>
        <pt x="436" y="393" on="1"/>
        <pt x="437" y="391" on="0"/>
        <pt x="437" y="388" on="1"/>
        <pt x="437" y="372" on="0"/>
        <pt x="401" y="321" on="1"/>
        <pt x="397" y="317" on="0"/>
        <pt x="383" y="317" on="0"/>
        <pt x="364" y="334" on="1"/>
        <pt x="309" y="387" on="0"/>
      </contour>
    </TTGlyph>
    <TTGlyph name="ccedilla" xMin="35" yMin="-213" xMax="444" yMax="448">
      <contour>
        <pt x="35" y="207" on="1"/>
        <pt x="35" y="322" on="0"/>
        <pt x="167" y="448" on="0"/>
        <pt x="261" y="448" on="1"/>
        <pt x="308" y="448" on="0"/>
        <pt x="417" y="412" on="0"/>
        <pt x="436" y="393" on="1"/>
        <pt x="437" y="391" on="0"/>
        <pt x="437" y="388" on="1"/>
        <pt x="437" y="372" on="0"/>
        <pt x="401" y="321" on="1"/>
        <pt x="397" y="317" on="0"/>
        <pt x="383" y="317" on="0"/>
        <pt x="364" y="334" on="1"/>
        <pt x="309" y="387" on="0"/>
        <pt x="215" y="387" on="0"/>
        <pt x="165" y="307" on="0"/>
        <pt x="165" y="168" on="0"/>
        <pt x="232" y="59" on="0"/>
        <pt x="364" y="59" on="0"/>
        <pt x="416" y="106" on="1"/>
        <pt x="423" y="113" on="0"/>
        <pt x="428" y="107" on="1"/>
        <pt x="444" y="85" on="1"/>
        <pt x="384" y="10" on="0"/>
        <pt x="298" y="-8" on="1"/>
        <pt x="301" y="-12" on="1"/>
        <pt x="263" y="-45" on="1"/>
        <pt x="306" y="-47" on="0"/>
        <pt x="362" y="-93" on="0"/>
        <pt x="362" y="-119" on="1"/>
        <pt x="362" y="-169" on="0"/>
        <pt x="276" y="-212" on="0"/>
        <pt x="209" y="-212" on="1"/>
        <pt x="203" y="-212" on="0"/>
        <pt x="193" y="-212" on="0"/>
        <pt x="193" y="-185" on="0"/>
        <pt x="196" y="-185" on="1"/>
        <pt x="269" y="-176" on="0"/>
        <pt x="269" y="-128" on="1"/>
        <pt x="269" y="-105" on="0"/>
        <pt x="240" y="-84" on="0"/>
        <pt x="201" y="-80" on="0"/>
        <pt x="199" y="-78" on="1"/>
        <pt x="194" y="-72" on="0"/>
        <pt x="188" y="-59" on="1"/>
        <pt x="188" y="-49" on="0"/>
        <pt x="223" y="-10" on="1"/>
        <pt x="136" y="0" on="0"/>
        <pt x="35" y="121" on="0"/>
      </contour>
    </TTGlyph>
    <TTGlyph name="cedilla" xMin="293" yMin="-203" xMax="467" yMax="54">
      <contour>
        <pt x="467" y="-109" on="1"/>
        <pt x="467" y="-159" on="0"/>
        <pt x="381" y="-202" on="0"/>
        <pt x="314" y="-202" on="1"/>
        <pt x="308" y="-202" on="0"/>
        <pt x="298" y="-202" on="0"/>
        <pt x="298" y="-175" on="0"/>
        <pt x="301" y="-175" on="1"/>
        <pt x="374" y="-166" on="0"/>
        <pt x="374" y="-118" on="1"/>
        <pt x="374" y="-95" on="0"/>
        <pt x="345" y="-74" on="0"/>
        <pt x="306" y="-70" on="0"/>
        <pt x="304" y="-68" on="1"/>
        <pt x="299" y="-62" on="0"/>
        <pt x="293" y="-49" on="1"/>
        <pt x="293" y="-39" on="0"/>
        <pt x="342" y="17" on="0"/>
        <pt x="347" y="23" on="1"/>
        <pt x="346" y="23" on="1"/>
        <pt x="367" y="54" on="1"/>
        <pt x="406" y="-2" on="1"/>
        <pt x="368" y="-35" on="1"/>
        <pt x="411" y="-37" on="0"/>
        <pt x="467" y="-83" on="0"/>
      </contour>
    </TTGlyph>
    <TTGlyph name="cent" xMin="38" yMin="-73" xMax="447" yMax="598">
      <contour>
        <pt x="38" y="269" on="1"/>
        <pt x="38" y="384" on="0"/>
        <pt x="170" y="510" on="0"/>
        <pt x="264" y="510" on="1"/>
        <pt x="271" y="510" on="0"/>
        <pt x="285" y="508" on="1"/>
        <pt x="296" y="594" on="1"/>
        <pt x="303" y="598" on="0"/>
        <pt x="326" y="598" on="0"/>
        <pt x="346" y="589" on="1"/>
        <pt x="335" y="500" on="1"/>
        <pt x="407" y="483" on="0"/>
        <pt x="439" y="455" on="1"/>
        <pt x="440" y="453" on="0"/>
        <pt x="440" y="450" on="1"/>
        <pt x="440" y="434" on="0"/>
        <pt x="404" y="383" on="1"/>
        <pt x="400" y="379" on="0"/>
        <pt x="387" y="379" on="0"/>
        <pt x="369" y="394" on="0"/>
        <pt x="339" y="420" on="0"/>
        <pt x="326" y="428" on="1"/>
        <pt x="289" y="121" on="1"/>
        <pt x="300" y="121" on="1"/>
        <pt x="367" y="121" on="0"/>
        <pt x="419" y="168" on="1"/>
        <pt x="426" y="175" on="0"/>
        <pt x="431" y="169" on="1"/>
        <pt x="447" y="147" on="1"/>
        <pt x="379" y="62" on="0"/>
        <pt x="281" y="50" on="1"/>
        <pt x="268" y="-57" on="1"/>
        <pt x="255" y="-73" on="0"/>
        <pt x="222" y="-73" on="0"/>
        <pt x="210" y="-70" on="1"/>
        <pt x="225" y="51" on="1"/>
        <pt x="138" y="62" on="0"/>
        <pt x="38" y="183" on="0"/>
      </contour>
      <contour>
        <pt x="277" y="448" on="1"/>
        <pt x="262" y="449" on="1"/>
        <pt x="211" y="449" on="0"/>
        <pt x="158" y="370" on="0"/>
        <pt x="158" y="309" on="1"/>
        <pt x="158" y="177" on="0"/>
        <pt x="236" y="136" on="1"/>
      </contour>
    </TTGlyph>
    <TTGlyph name="circumflex" xMin="132" yMin="494" xMax="407" yMax="707">
      <contour>
        <pt x="218" y="705" on="1"/>
        <pt x="278" y="707" on="0"/>
        <pt x="322" y="707" on="0"/>
        <pt x="327" y="695" on="1"/>
        <pt x="407" y="523" on="1"/>
        <pt x="407" y="517" on="0"/>
        <pt x="390" y="500" on="0"/>
        <pt x="371" y="494" on="1"/>
        <pt x="269" y="617" on="1"/>
        <pt x="168" y="494" on="1"/>
        <pt x="140" y="501" on="0"/>
        <pt x="132" y="523" on="1"/>
      </contour>
    </TTGlyph>
    <TTGlyph name="circumflex.cap" xMin="113" yMin="545" xMax="428" yMax="708">
      <contour>
        <pt x="219" y="706" on="1"/>
        <pt x="279" y="708" on="0"/>
        <pt x="323" y="708" on="0"/>
        <pt x="328" y="696" on="1"/>
        <pt x="428" y="574" on="1"/>
        <pt x="428" y="568" on="0"/>
        <pt x="412" y="552" on="0"/>
        <pt x="392" y="545" on="1"/>
        <pt x="270" y="628" on="1"/>
        <pt x="149" y="545" on="1"/>
        <pt x="121" y="552" on="0"/>
        <pt x="113" y="574" on="1"/>
      </contour>
    </TTGlyph>
    <TTGlyph name="colon" xMin="72" yMin="-12" xMax="205" yMax="391">
      <contour>
        <pt x="72" y="26" on="0"/>
        <pt x="72" y="84" on="0"/>
        <pt x="113" y="123" on="0"/>
        <pt x="166" y="123" on="0"/>
        <pt x="205" y="89" on="0"/>
        <pt x="205" y="30" on="0"/>
        <pt x="169" y="-12" on="0"/>
        <pt x="106" y="-12" on="0"/>
      </contour>
      <contour>
        <pt x="72" y="294" on="0"/>
        <pt x="72" y="352" on="0"/>
        <pt x="113" y="391" on="0"/>
        <pt x="166" y="391" on="0"/>
        <pt x="205" y="357" on="0"/>
        <pt x="205" y="298" on="0"/>
        <pt x="169" y="256" on="0"/>
        <pt x="106" y="256" on="0"/>
      </contour>
    </TTGlyph>
    <TTGlyph name="comma" xMin="-3" yMin="-194" xMax="173" yMax="118">
      <contour>
        <pt x="27" y="1" on="1"/>
        <pt x="13" y="14" on="0"/>
        <pt x="13" y="73" on="1"/>
        <pt x="13" y="94" on="0"/>
        <pt x="18" y="97" on="1"/>
        <pt x="40" y="118" on="0"/>
        <pt x="121" y="118" on="0"/>
        <pt x="173" y="62" on="0"/>
        <pt x="173" y="-29" on="0"/>
        <pt x="108" y="-150" on="0"/>
        <pt x="47" y="-193" on="1"/>
        <pt x="45" y="-193" on="0"/>
        <pt x="33" y="-193" on="0"/>
        <pt x="3" y="-181" on="0"/>
        <pt x="-3" y="-173" on="1"/>
        <pt x="52" y="-122" on="0"/>
        <pt x="64" y="-102" on="1"/>
        <pt x="86" y="-64" on="0"/>
        <pt x="86" y="-4" on="0"/>
        <pt x="63" y="2" on="1"/>
        <pt x="52" y="4" on="0"/>
        <pt x="34" y="4" on="0"/>
      </contour>
    </TTGlyph>
    <TTGlyph name="copyright" xMin="45" yMin="74" xMax="697" yMax="728">
      <contour>
        <pt x="45" y="536" on="0"/>
        <pt x="237" y="728" on="0"/>
        <pt x="509" y="728" on="0"/>
        <pt x="697" y="537" on="0"/>
        <pt x="697" y="266" on="0"/>
        <pt x="504" y="74" on="0"/>
        <pt x="234" y="74" on="0"/>
        <pt x="45" y="262" on="0"/>
      </contour>
      <contour>
        <pt x="631" y="521" on="0"/>
        <pt x="488" y="664" on="0"/>
        <pt x="253" y="664" on="0"/>
        <pt x="110" y="521" on="0"/>
        <pt x="110" y="283" on="0"/>
        <pt x="254" y="137" on="0"/>
        <pt x="495" y="137" on="0"/>
        <pt x="631" y="280" on="0"/>
      </contour>
      <contour>
        <pt x="317" y="548" on="0"/>
        <pt x="263" y="472" on="0"/>
        <pt x="263" y="339" on="0"/>
        <pt x="328" y="255" on="0"/>
        <pt x="387" y="255" on="1"/>
        <pt x="466" y="255" on="0"/>
        <pt x="498" y="335" on="1"/>
        <pt x="533" y="327" on="1"/>
        <pt x="533" y="321" on="0"/>
        <pt x="507" y="240" on="0"/>
        <pt x="503" y="241" on="1"/>
        <pt x="449" y="211" on="0"/>
        <pt x="286" y="211" on="0"/>
        <pt x="173" y="311" on="0"/>
        <pt x="173" y="486" on="0"/>
        <pt x="291" y="591" on="0"/>
        <pt x="383" y="591" on="1"/>
        <pt x="425" y="591" on="0"/>
        <pt x="500" y="573" on="0"/>
        <pt x="515" y="571" on="1"/>
        <pt x="521" y="560" on="0"/>
        <pt x="521" y="495" on="0"/>
        <pt x="518" y="465" on="1"/>
        <pt x="481" y="468" on="1"/>
        <pt x="477" y="499" on="0"/>
        <pt x="466" y="515" on="1"/>
        <pt x="445" y="548" on="0"/>
      </contour>
    </TTGlyph>
    <TTGlyph name="currency" xMin="7" yMin="64" xMax="510" yMax="635">
      <contour>
        <pt x="428" y="208" on="1"/>
        <pt x="487" y="137" on="0"/>
        <pt x="489" y="135" on="1"/>
        <pt x="489" y="120" on="0"/>
        <pt x="448" y="72" on="0"/>
        <pt x="425" y="64" on="1"/>
        <pt x="400" y="96" on="0"/>
        <pt x="369" y="133" on="0"/>
        <pt x="363" y="142" on="1"/>
        <pt x="317" y="114" on="0"/>
        <pt x="200" y="114" on="0"/>
        <pt x="152" y="141" on="1"/>
        <pt x="87" y="68" on="1"/>
        <pt x="84" y="67" on="0"/>
        <pt x="66" y="67" on="0"/>
        <pt x="16" y="95" on="0"/>
        <pt x="7" y="117" on="1"/>
        <pt x="88" y="203" on="1"/>
        <pt x="56" y="253" on="0"/>
        <pt x="56" y="408" on="0"/>
        <pt x="108" y="472" on="1"/>
        <pt x="41" y="552" on="1"/>
        <pt x="45" y="569" on="0"/>
        <pt x="83" y="622" on="0"/>
        <pt x="99" y="635" on="1"/>
        <pt x="118" y="600" on="0"/>
        <pt x="178" y="533" on="0"/>
        <pt x="184" y="525" on="1"/>
        <pt x="222" y="539" on="0"/>
        <pt x="304" y="539" on="0"/>
        <pt x="347" y="521" on="1"/>
        <pt x="394" y="574" on="0"/>
        <pt x="417" y="602" on="0"/>
        <pt x="419" y="604" on="1"/>
        <pt x="437" y="604" on="0"/>
        <pt x="493" y="578" on="0"/>
        <pt x="510" y="563" on="1"/>
        <pt x="419" y="465" on="1"/>
        <pt x="463" y="407" on="0"/>
        <pt x="463" y="261" on="0"/>
      </contour>
      <contour>
        <pt x="158" y="264" on="0"/>
        <pt x="210" y="201" on="0"/>
        <pt x="297" y="201" on="0"/>
        <pt x="361" y="284" on="0"/>
        <pt x="361" y="390" on="0"/>
        <pt x="306" y="454" on="0"/>
        <pt x="223" y="454" on="0"/>
        <pt x="158" y="376" on="0"/>
      </contour>
    </TTGlyph>
    <TTGlyph name="d" xMin="35" yMin="-12" xMax="563" yMax="766">
      <contour>
        <pt x="357" y="44" on="1"/>
        <pt x="305" y="-12" on="0"/>
        <pt x="149" y="-12" on="0"/>
        <pt x="35" y="103" on="0"/>
        <pt x="35" y="198" on="1"/>
        <pt x="35" y="314" on="0"/>
        <pt x="168" y="448" on="0"/>
        <pt x="249" y="448" on="1"/>
        <pt x="299" y="448" on="0"/>
        <pt x="350" y="429" on="1"/>
        <pt x="350" y="619" on="1"/>
        <pt x="350" y="656" on="0"/>
        <pt x="324" y="676" on="0"/>
        <pt x="287" y="676" on="0"/>
        <pt x="275" y="675" on="1"/>
        <pt x="262" y="713" on="1"/>
        <pt x="370" y="737" on="0"/>
        <pt x="444" y="766" on="1"/>
        <pt x="463" y="766" on="0"/>
        <pt x="474" y="751" on="0"/>
        <pt x="474" y="737" on="1"/>
        <pt x="474" y="113" on="1"/>
        <pt x="474" y="90" on="0"/>
        <pt x="478" y="82" on="1"/>
        <pt x="484" y="68" on="0"/>
        <pt x="518" y="68" on="1"/>
        <pt x="533" y="68" on="1"/>
        <pt x="554" y="69" on="1"/>
        <pt x="563" y="17" on="1"/>
        <pt x="456" y="11" on="0"/>
        <pt x="376" y="-12" on="1"/>
        <pt x="357" y="-12" on="0"/>
        <pt x="357" y="-1" on="1"/>
      </contour>
      <contour>
        <pt x="166" y="153" on="0"/>
        <pt x="229" y="66" on="0"/>
        <pt x="309" y="66" on="0"/>
        <pt x="350" y="95" on="1"/>
        <pt x="350" y="300" on="1"/>
        <pt x="350" y="336" on="0"/>
        <pt x="303" y="377" on="0"/>
        <pt x="264" y="377" on="1"/>
        <pt x="166" y="377" on="0"/>
        <pt x="166" y="229" on="1"/>
      </contour>
    </TTGlyph>
    <TTGlyph name="degree" xMin="21" yMin="449" xMax="272" yMax="693">
      <contour>
        <pt x="126" y="507" on="0"/>
        <pt x="176" y="507" on="0"/>
        <pt x="207" y="541" on="0"/>
        <pt x="207" y="567" on="1"/>
        <pt x="207" y="634" on="0"/>
        <pt x="143" y="634" on="1"/>
        <pt x="118" y="634" on="0"/>
        <pt x="86" y="601" on="0"/>
        <pt x="86" y="540" on="0"/>
      </contour>
      <contour>
        <pt x="94" y="449" on="0"/>
        <pt x="21" y="514" on="0"/>
        <pt x="21" y="623" on="0"/>
        <pt x="89" y="693" on="0"/>
        <pt x="202" y="693" on="0"/>
        <pt x="272" y="628" on="0"/>
        <pt x="272" y="519" on="0"/>
        <pt x="203" y="449" on="0"/>
      </contour>
    </TTGlyph>
    <TTGlyph name="dieresis" xMin="83" yMin="538" xMax="403" yMax="676">
      <contour>
        <pt x="121" y="538" on="0"/>
        <pt x="83" y="575" on="0"/>
        <pt x="83" y="634" on="0"/>
        <pt x="123" y="676" on="0"/>
        <pt x="183" y="676" on="0"/>
        <pt x="222" y="640" on="0"/>
        <pt x="222" y="580" on="0"/>
        <pt x="182" y="538" on="0"/>
      </contour>
      <contour>
        <pt x="303" y="538" on="0"/>
        <pt x="265" y="575" on="0"/>
        <pt x="265" y="634" on="0"/>
        <pt x="305" y="676" on="0"/>
        <pt x="365" y="676" on="0"/>
        <pt x="403" y="640" on="0"/>
        <pt x="403" y="580" on="0"/>
        <pt x="363" y="538" on="0"/>
      </contour>
    </TTGlyph>
    <TTGlyph name="divide" xMin="35" yMin="57" xMax="525" yMax="473">
      <contour>
        <pt x="251" y="346" on="0"/>
        <pt x="216" y="380" on="0"/>
        <pt x="216" y="434" on="0"/>
        <pt x="253" y="473" on="0"/>
        <pt x="308" y="473" on="0"/>
        <pt x="344" y="439" on="0"/>
        <pt x="344" y="384" on="0"/>
        <pt x="307" y="346" on="0"/>
      </contour>
      <contour>
        <pt x="250" y="57" on="0"/>
        <pt x="216" y="92" on="0"/>
        <pt x="216" y="145" on="0"/>
        <pt x="253" y="184" on="0"/>
        <pt x="308" y="184" on="0"/>
        <pt x="344" y="151" on="0"/>
        <pt x="344" y="96" on="0"/>
        <pt x="307" y="57" on="0"/>
      </contour>
      <contour>
        <pt x="281" y="301" on="1"/>
        <pt x="498" y="304" on="1"/>
        <pt x="510" y="292" on="0"/>
        <pt x="524" y="252" on="0"/>
        <pt x="524" y="233" on="0"/>
        <pt x="524" y="229" on="1"/>
        <pt x="308" y="233" on="0"/>
        <pt x="284" y="233" on="1"/>
        <pt x="54" y="229" on="1"/>
        <pt x="35" y="244" on="0"/>
        <pt x="35" y="278" on="1"/>
        <pt x="35" y="291" on="0"/>
        <pt x="39" y="304" on="1"/>
      </contour>
    </TTGlyph>
    <TTGlyph name="dollar" xMin="24" yMin="-106" xMax="529" yMax="809">
      <contour>
        <pt x="35" y="506" on="1"/>
        <pt x="35" y="592" on="0"/>
        <pt x="157" y="685" on="0"/>
        <pt x="247" y="691" on="1"/>
        <pt x="247" y="792" on="1"/>
        <pt x="255" y="798" on="0"/>
        <pt x="308" y="809" on="0"/>
        <pt x="321" y="809" on="1"/>
        <pt x="321" y="689" on="1"/>
        <pt x="406" y="681" on="0"/>
        <pt x="481" y="648" on="1"/>
        <pt x="491" y="628" on="0"/>
        <pt x="491" y="499" on="0"/>
        <pt x="486" y="463" on="1"/>
        <pt x="423" y="465" on="1"/>
        <pt x="416" y="590" on="0"/>
        <pt x="321" y="616" on="1"/>
        <pt x="321" y="394" on="1"/>
        <pt x="446" y="336" on="0"/>
        <pt x="485" y="290" on="1"/>
        <pt x="529" y="236" on="0"/>
        <pt x="529" y="105" on="0"/>
        <pt x="422" y="-1" on="0"/>
        <pt x="321" y="-10" on="1"/>
        <pt x="321" y="-93" on="1"/>
        <pt x="316" y="-98" on="0"/>
        <pt x="267" y="-106" on="0"/>
        <pt x="249" y="-106" on="1"/>
        <pt x="248" y="-11" on="1"/>
        <pt x="160" y="-4" on="0"/>
        <pt x="52" y="35" on="1"/>
        <pt x="47" y="51" on="0"/>
        <pt x="28" y="175" on="0"/>
        <pt x="24" y="217" on="1"/>
        <pt x="99" y="231" on="1"/>
        <pt x="118" y="147" on="0"/>
        <pt x="188" y="70" on="0"/>
        <pt x="248" y="65" on="1"/>
        <pt x="248" y="295" on="1"/>
        <pt x="213" y="312" on="0"/>
        <pt x="194" y="320" on="0"/>
        <pt x="132" y="353" on="0"/>
        <pt x="110" y="371" on="0"/>
        <pt x="67" y="407" on="0"/>
        <pt x="58" y="422" on="1"/>
        <pt x="35" y="465" on="0"/>
      </contour>
      <contour>
        <pt x="167" y="534" on="1"/>
        <pt x="167" y="475" on="0"/>
        <pt x="247" y="431" on="1"/>
        <pt x="247" y="621" on="1"/>
        <pt x="214" y="616" on="0"/>
        <pt x="167" y="573" on="0"/>
      </contour>
      <contour>
        <pt x="397" y="153" on="1"/>
        <pt x="397" y="210" on="0"/>
        <pt x="321" y="257" on="1"/>
        <pt x="321" y="68" on="1"/>
        <pt x="397" y="83" on="0"/>
      </contour>
    </TTGlyph>
    <TTGlyph name="dotlessi" xMin="23" yMin="-3" xMax="304" yMax="456">
      <contour>
        <pt x="234" y="433" on="1"/>
        <pt x="234" y="76" on="1"/>
        <pt x="234" y="60" on="0"/>
        <pt x="257" y="45" on="0"/>
        <pt x="293" y="45" on="1"/>
        <pt x="304" y="-3" on="1"/>
        <pt x="199" y="0" on="0"/>
        <pt x="118" y="0" on="0"/>
        <pt x="51" y="-3" on="1"/>
        <pt x="41" y="45" on="1"/>
        <pt x="82" y="46" on="0"/>
        <pt x="110" y="61" on="0"/>
        <pt x="110" y="76" on="1"/>
        <pt x="110" y="316" on="1"/>
        <pt x="110" y="339" on="0"/>
        <pt x="86" y="364" on="0"/>
        <pt x="50" y="364" on="1"/>
        <pt x="37" y="364" on="1"/>
        <pt x="23" y="405" on="1"/>
        <pt x="113" y="426" on="0"/>
        <pt x="201" y="456" on="1"/>
        <pt x="222" y="456" on="0"/>
        <pt x="234" y="447" on="0"/>
      </contour>
    </TTGlyph>
    <TTGlyph name="e" xMin="35" yMin="-12" xMax="446" yMax="448">
      <contour>
        <pt x="437" y="236" on="1"/>
        <pt x="165" y="236" on="1"/>
        <pt x="165" y="178" on="0"/>
        <pt x="187" y="127" on="1"/>
        <pt x="200" y="97" on="0"/>
        <pt x="259" y="59" on="0"/>
        <pt x="335" y="59" on="0"/>
        <pt x="400" y="90" on="0"/>
        <pt x="423" y="113" on="0"/>
        <pt x="428" y="107" on="1"/>
        <pt x="444" y="85" on="1"/>
        <pt x="410" y="43" on="0"/>
        <pt x="309" y="-12" on="0"/>
        <pt x="261" y="-12" on="1"/>
        <pt x="153" y="-12" on="0"/>
        <pt x="35" y="111" on="0"/>
        <pt x="35" y="320" on="0"/>
        <pt x="167" y="448" on="0"/>
        <pt x="337" y="448" on="0"/>
        <pt x="446" y="350" on="0"/>
        <pt x="446" y="251" on="1"/>
        <pt x="446" y="236" on="0"/>
      </contour>
      <contour>
        <pt x="331" y="296" on="1"/>
        <pt x="331" y="387" on="0"/>
        <pt x="256" y="387" on="1"/>
        <pt x="219" y="387" on="0"/>
        <pt x="173" y="331" on="0"/>
        <pt x="169" y="296" on="1"/>
      </contour>
    </TTGlyph>
    <TTGlyph name="eacute" xMin="35" yMin="-12" xMax="446" yMax="722">
      <contour>
        <pt x="437" y="236" on="1"/>
        <pt x="165" y="236" on="1"/>
        <pt x="165" y="178" on="0"/>
        <pt x="187" y="127" on="1"/>
        <pt x="200" y="97" on="0"/>
        <pt x="259" y="59" on="0"/>
        <pt x="335" y="59" on="0"/>
        <pt x="400" y="90" on="0"/>
        <pt x="423" y="113" on="0"/>
        <pt x="428" y="107" on="1"/>
        <pt x="444" y="85" on="1"/>
        <pt x="410" y="43" on="0"/>
        <pt x="309" y="-12" on="0"/>
        <pt x="261" y="-12" on="1"/>
        <pt x="153" y="-12" on="0"/>
        <pt x="35" y="111" on="0"/>
        <pt x="35" y="320" on="0"/>
        <pt x="167" y="448" on="0"/>
        <pt x="337" y="448" on="0"/>
        <pt x="446" y="350" on="0"/>
        <pt x="446" y="251" on="1"/>
        <pt x="446" y="236" on="0"/>
      </contour>
      <contour>
        <pt x="331" y="296" on="1"/>
        <pt x="331" y="387" on="0"/>
        <pt x="256" y="387" on="1"/>
        <pt x="219" y="387" on="0"/>
        <pt x="173" y="331" on="0"/>
        <pt x="169" y="296" on="1"/>
      </contour>
      <contour>
        <pt x="388" y="683" on="1"/>
        <pt x="392" y="680" on="0"/>
        <pt x="392" y="676" on="0"/>
        <pt x="391" y="675" on="1"/>
        <pt x="228" y="512" on="1"/>
        <pt x="198" y="519" on="0"/>
        <pt x="192" y="541" on="1"/>
        <pt x="279" y="722" on="1"/>
        <pt x="327" y="722" on="0"/>
      </contour>
    </TTGlyph>
    <TTGlyph name="ecircumflex" xMin="35" yMin="-12" xMax="446" yMax="695">
      <contour>
        <pt x="437" y="236" on="1"/>
        <pt x="165" y="236" on="1"/>
        <pt x="165" y="178" on="0"/>
        <pt x="187" y="127" on="1"/>
        <pt x="200" y="97" on="0"/>
        <pt x="259" y="59" on="0"/>
        <pt x="335" y="59" on="0"/>
        <pt x="400" y="90" on="0"/>
        <pt x="423" y="113" on="0"/>
        <pt x="428" y="107" on="1"/>
        <pt x="444" y="85" on="1"/>
        <pt x="410" y="43" on="0"/>
        <pt x="309" y="-12" on="0"/>
        <pt x="261" y="-12" on="1"/>
        <pt x="153" y="-12" on="0"/>
        <pt x="35" y="111" on="0"/>
        <pt x="35" y="320" on="0"/>
        <pt x="167" y="448" on="0"/>
        <pt x="337" y="448" on="0"/>
        <pt x="446" y="350" on="0"/>
        <pt x="446" y="251" on="1"/>
        <pt x="446" y="236" on="0"/>
      </contour>
      <contour>
        <pt x="331" y="296" on="1"/>
        <pt x="331" y="387" on="0"/>
        <pt x="256" y="387" on="1"/>
        <pt x="219" y="387" on="0"/>
        <pt x="173" y="331" on="0"/>
        <pt x="169" y="296" on="1"/>
      </contour>
      <contour>
        <pt x="207" y="693" on="1"/>
        <pt x="267" y="695" on="0"/>
        <pt x="311" y="695" on="0"/>
        <pt x="316" y="683" on="1"/>
        <pt x="396" y="511" on="1"/>
        <pt x="396" y="505" on="0"/>
        <pt x="379" y="488" on="0"/>
        <pt x="360" y="482" on="1"/>
        <pt x="258" y="605" on="1"/>
        <pt x="157" y="482" on="1"/>
        <pt x="129" y="489" on="0"/>
        <pt x="121" y="511" on="1"/>
      </contour>
    </TTGlyph>
    <TTGlyph name="edieresis" xMin="35" yMin="-12" xMax="446" yMax="676">
      <contour>
        <pt x="437" y="236" on="1"/>
        <pt x="165" y="236" on="1"/>
        <pt x="165" y="178" on="0"/>
        <pt x="187" y="127" on="1"/>
        <pt x="200" y="97" on="0"/>
        <pt x="259" y="59" on="0"/>
        <pt x="335" y="59" on="0"/>
        <pt x="400" y="90" on="0"/>
        <pt x="423" y="113" on="0"/>
        <pt x="428" y="107" on="1"/>
        <pt x="444" y="85" on="1"/>
        <pt x="410" y="43" on="0"/>
        <pt x="309" y="-12" on="0"/>
        <pt x="261" y="-12" on="1"/>
        <pt x="153" y="-12" on="0"/>
        <pt x="35" y="111" on="0"/>
        <pt x="35" y="320" on="0"/>
        <pt x="167" y="448" on="0"/>
        <pt x="337" y="448" on="0"/>
        <pt x="446" y="350" on="0"/>
        <pt x="446" y="251" on="1"/>
        <pt x="446" y="236" on="0"/>
      </contour>
      <contour>
        <pt x="331" y="296" on="1"/>
        <pt x="331" y="387" on="0"/>
        <pt x="256" y="387" on="1"/>
        <pt x="219" y="387" on="0"/>
        <pt x="173" y="331" on="0"/>
        <pt x="169" y="296" on="1"/>
      </contour>
      <contour>
        <pt x="136" y="538" on="0"/>
        <pt x="98" y="575" on="0"/>
        <pt x="98" y="634" on="0"/>
        <pt x="138" y="676" on="0"/>
        <pt x="198" y="676" on="0"/>
        <pt x="237" y="640" on="0"/>
        <pt x="237" y="580" on="0"/>
        <pt x="197" y="538" on="0"/>
      </contour>
      <contour>
        <pt x="318" y="538" on="0"/>
        <pt x="280" y="575" on="0"/>
        <pt x="280" y="634" on="0"/>
        <pt x="320" y="676" on="0"/>
        <pt x="380" y="676" on="0"/>
        <pt x="418" y="640" on="0"/>
        <pt x="418" y="580" on="0"/>
        <pt x="378" y="538" on="0"/>
      </contour>
    </TTGlyph>
    <TTGlyph name="egrave" xMin="35" yMin="-12" xMax="446" yMax="703">
      <contour>
        <pt x="437" y="236" on="1"/>
        <pt x="165" y="236" on="1"/>
        <pt x="165" y="178" on="0"/>
        <pt x="187" y="127" on="1"/>
        <pt x="200" y="97" on="0"/>
        <pt x="259" y="59" on="0"/>
        <pt x="335" y="59" on="0"/>
        <pt x="400" y="90" on="0"/>
        <pt x="423" y="113" on="0"/>
        <pt x="428" y="107" on="1"/>
        <pt x="444" y="85" on="1"/>
        <pt x="410" y="43" on="0"/>
        <pt x="309" y="-12" on="0"/>
        <pt x="261" y="-12" on="1"/>
        <pt x="153" y="-12" on="0"/>
        <pt x="35" y="111" on="0"/>
        <pt x="35" y="320" on="0"/>
        <pt x="167" y="448" on="0"/>
        <pt x="337" y="448" on="0"/>
        <pt x="446" y="350" on="0"/>
        <pt x="446" y="251" on="1"/>
        <pt x="446" y="236" on="0"/>
      </contour>
      <contour>
        <pt x="331" y="296" on="1"/>
        <pt x="331" y="387" on="0"/>
        <pt x="256" y="387" on="1"/>
        <pt x="219" y="387" on="0"/>
        <pt x="173" y="331" on="0"/>
        <pt x="169" y="296" on="1"/>
      </contour>
      <contour>
        <pt x="119" y="656" on="1"/>
        <pt x="118" y="657" on="0"/>
        <pt x="118" y="661" on="0"/>
        <pt x="122" y="664" on="1"/>
        <pt x="183" y="703" on="0"/>
        <pt x="231" y="703" on="1"/>
        <pt x="318" y="522" on="1"/>
        <pt x="312" y="500" on="0"/>
        <pt x="282" y="493" on="1"/>
      </contour>
    </TTGlyph>
    <TTGlyph name="eight" xMin="25" yMin="-12" xMax="488" yMax="693">
      <contour>
        <pt x="25" y="168" on="1"/>
        <pt x="25" y="235" on="0"/>
        <pt x="72" y="282" on="1"/>
        <pt x="109" y="317" on="0"/>
        <pt x="162" y="353" on="1"/>
        <pt x="109" y="390" on="0"/>
        <pt x="85" y="415" on="1"/>
        <pt x="39" y="462" on="0"/>
        <pt x="39" y="515" on="1"/>
        <pt x="39" y="595" on="0"/>
        <pt x="160" y="693" on="0"/>
        <pt x="356" y="693" on="0"/>
        <pt x="461" y="608" on="0"/>
        <pt x="461" y="545" on="1"/>
        <pt x="461" y="451" on="0"/>
        <pt x="337" y="363" on="1"/>
        <pt x="448" y="300" on="0"/>
        <pt x="475" y="237" on="1"/>
        <pt x="488" y="206" on="0"/>
        <pt x="488" y="169" on="1"/>
        <pt x="488" y="87" on="0"/>
        <pt x="360" y="-12" on="0"/>
        <pt x="157" y="-12" on="0"/>
        <pt x="25" y="78" on="0"/>
      </contour>
      <contour>
        <pt x="308" y="56" on="0"/>
        <pt x="367" y="114" on="0"/>
        <pt x="367" y="206" on="0"/>
        <pt x="283" y="285" on="0"/>
        <pt x="207" y="326" on="1"/>
        <pt x="182" y="300" on="0"/>
        <pt x="146" y="218" on="0"/>
        <pt x="146" y="124" on="0"/>
        <pt x="209" y="56" on="0"/>
      </contour>
      <contour>
        <pt x="160" y="537" on="1"/>
        <pt x="160" y="451" on="0"/>
        <pt x="291" y="387" on="1"/>
        <pt x="313" y="415" on="0"/>
        <pt x="340" y="496" on="0"/>
        <pt x="340" y="574" on="0"/>
        <pt x="290" y="629" on="0"/>
        <pt x="206" y="629" on="0"/>
        <pt x="160" y="571" on="0"/>
      </contour>
    </TTGlyph>
    <TTGlyph name="ellipsis" xMin="49" yMin="-12" xMax="620" yMax="121">
      <contour>
        <pt x="83" y="-12" on="0"/>
        <pt x="49" y="26" on="0"/>
        <pt x="49" y="83" on="0"/>
        <pt x="89" y="121" on="0"/>
        <pt x="142" y="121" on="0"/>
        <pt x="180" y="87" on="0"/>
        <pt x="180" y="29" on="0"/>
        <pt x="144" y="-12" on="0"/>
      </contour>
      <contour>
        <pt x="303" y="-12" on="0"/>
        <pt x="269" y="26" on="0"/>
        <pt x="269" y="83" on="0"/>
        <pt x="309" y="121" on="0"/>
        <pt x="362" y="121" on="0"/>
        <pt x="400" y="87" on="0"/>
        <pt x="400" y="29" on="0"/>
        <pt x="364" y="-12" on="0"/>
      </contour>
      <contour>
        <pt x="523" y="-12" on="0"/>
        <pt x="489" y="26" on="0"/>
        <pt x="489" y="83" on="0"/>
        <pt x="529" y="121" on="0"/>
        <pt x="582" y="121" on="0"/>
        <pt x="620" y="87" on="0"/>
        <pt x="620" y="29" on="0"/>
        <pt x="584" y="-12" on="0"/>
      </contour>
    </TTGlyph>
    <TTGlyph name="endash" xMin="14" yMin="173" xMax="550" yMax="253">
      <contour>
        <pt x="17" y="253" on="1"/>
        <pt x="17" y="253" on="0"/>
        <pt x="282" y="251" on="1"/>
        <pt x="530" y="253" on="1"/>
        <pt x="537" y="245" on="0"/>
        <pt x="550" y="188" on="0"/>
        <pt x="550" y="173" on="1"/>
        <pt x="281" y="175" on="1"/>
        <pt x="28" y="173" on="1"/>
        <pt x="21" y="180" on="0"/>
        <pt x="14" y="221" on="0"/>
        <pt x="14" y="244" on="0"/>
      </contour>
    </TTGlyph>
    <TTGlyph name="equal" xMin="34" yMin="133" xMax="494" yMax="363">
      <contour>
        <pt x="42" y="217" on="1"/>
        <pt x="42" y="217" on="0"/>
        <pt x="267" y="215" on="1"/>
        <pt x="474" y="217" on="1"/>
        <pt x="481" y="209" on="0"/>
        <pt x="494" y="148" on="0"/>
        <pt x="494" y="133" on="1"/>
        <pt x="266" y="135" on="1"/>
        <pt x="53" y="133" on="1"/>
        <pt x="46" y="140" on="0"/>
        <pt x="39" y="184" on="0"/>
        <pt x="39" y="208" on="0"/>
      </contour>
      <contour>
        <pt x="37" y="363" on="1"/>
        <pt x="262" y="361" on="1"/>
        <pt x="469" y="363" on="1"/>
        <pt x="476" y="355" on="0"/>
        <pt x="489" y="294" on="0"/>
        <pt x="489" y="279" on="1"/>
        <pt x="261" y="281" on="1"/>
        <pt x="48" y="279" on="1"/>
        <pt x="41" y="286" on="0"/>
        <pt x="34" y="330" on="0"/>
        <pt x="34" y="354" on="0"/>
      </contour>
    </TTGlyph>
    <TTGlyph name="eth" xMin="18" yMin="-12" xMax="508" yMax="734">
      <contour>
        <pt x="508" y="122" on="0"/>
        <pt x="369" y="-12" on="0"/>
        <pt x="154" y="-12" on="0"/>
        <pt x="18" y="105" on="0"/>
        <pt x="18" y="311" on="0"/>
        <pt x="158" y="448" on="0"/>
        <pt x="261" y="448" on="1"/>
        <pt x="310" y="448" on="0"/>
        <pt x="354" y="434" on="1"/>
        <pt x="344" y="472" on="0"/>
        <pt x="291" y="549" on="1"/>
        <pt x="186" y="481" on="1"/>
        <pt x="178" y="481" on="0"/>
        <pt x="149" y="515" on="0"/>
        <pt x="145" y="529" on="1"/>
        <pt x="256" y="598" on="1"/>
        <pt x="206" y="659" on="0"/>
        <pt x="165" y="692" on="1"/>
        <pt x="158" y="698" on="0"/>
        <pt x="178" y="730" on="0"/>
        <pt x="186" y="734" on="1"/>
        <pt x="254" y="694" on="0"/>
        <pt x="317" y="636" on="1"/>
        <pt x="422" y="701" on="1"/>
        <pt x="433" y="699" on="0"/>
        <pt x="459" y="673" on="0"/>
        <pt x="463" y="661" on="1"/>
        <pt x="358" y="593" on="1"/>
        <pt x="427" y="506" on="0"/>
        <pt x="448" y="469" on="1"/>
        <pt x="508" y="365" on="0"/>
        <pt x="508" y="234" on="1"/>
      </contour>
      <contour>
        <pt x="148" y="159" on="0"/>
        <pt x="211" y="50" on="0"/>
        <pt x="327" y="50" on="0"/>
        <pt x="378" y="141" on="0"/>
        <pt x="378" y="279" on="0"/>
        <pt x="317" y="388" on="0"/>
        <pt x="198" y="388" on="0"/>
        <pt x="148" y="295" on="0"/>
      </contour>
    </TTGlyph>
    <TTGlyph name="exclam" xMin="78" yMin="-12" xMax="229" yMax="702">
      <contour>
        <pt x="229" y="662" on="1"/>
        <pt x="227" y="626" on="1"/>
        <pt x="186" y="208" on="1"/>
        <pt x="186" y="205" on="0"/>
        <pt x="180" y="198" on="0"/>
        <pt x="177" y="198" on="1"/>
        <pt x="137" y="196" on="1"/>
        <pt x="133" y="196" on="0"/>
        <pt x="133" y="206" on="1"/>
        <pt x="78" y="662" on="1"/>
        <pt x="159" y="694" on="0"/>
        <pt x="199" y="702" on="1"/>
        <pt x="219" y="702" on="0"/>
        <pt x="226" y="687" on="1"/>
        <pt x="229" y="682" on="0"/>
      </contour>
      <contour>
        <pt x="105" y="19" on="0"/>
        <pt x="105" y="69" on="0"/>
        <pt x="139" y="101" on="0"/>
        <pt x="184" y="101" on="0"/>
        <pt x="216" y="72" on="0"/>
        <pt x="216" y="23" on="0"/>
        <pt x="186" y="-12" on="0"/>
        <pt x="133" y="-12" on="0"/>
      </contour>
    </TTGlyph>
    <TTGlyph name="exclamdown" xMin="92" yMin="-251" xMax="243" yMax="461">
      <contour>
        <pt x="92" y="-211" on="1"/>
        <pt x="94" y="-175" on="1"/>
        <pt x="135" y="243" on="1"/>
        <pt x="135" y="246" on="0"/>
        <pt x="141" y="253" on="0"/>
        <pt x="144" y="253" on="1"/>
        <pt x="184" y="255" on="1"/>
        <pt x="188" y="255" on="0"/>
        <pt x="188" y="245" on="1"/>
        <pt x="243" y="-211" on="1"/>
        <pt x="162" y="-243" on="0"/>
        <pt x="122" y="-251" on="1"/>
        <pt x="102" y="-251" on="0"/>
        <pt x="95" y="-236" on="1"/>
        <pt x="92" y="-231" on="0"/>
      </contour>
      <contour>
        <pt x="216" y="430" on="0"/>
        <pt x="216" y="380" on="0"/>
        <pt x="182" y="348" on="0"/>
        <pt x="137" y="348" on="0"/>
        <pt x="105" y="377" on="0"/>
        <pt x="105" y="426" on="0"/>
        <pt x="135" y="461" on="0"/>
        <pt x="188" y="461" on="0"/>
      </contour>
    </TTGlyph>
    <TTGlyph name="f" xMin="25" yMin="-3" xMax="474" yMax="766">
      <contour>
        <pt x="95" y="76" on="1"/>
        <pt x="95" y="361" on="1"/>
        <pt x="45" y="361" on="1"/>
        <pt x="32" y="389" on="0"/>
        <pt x="32" y="402" on="1"/>
        <pt x="51" y="404" on="0"/>
        <pt x="95" y="416" on="1"/>
        <pt x="95" y="434" on="1"/>
        <pt x="95" y="515" on="0"/>
        <pt x="156" y="666" on="0"/>
        <pt x="274" y="766" on="0"/>
        <pt x="346" y="766" on="1"/>
        <pt x="384" y="766" on="0"/>
        <pt x="457" y="738" on="0"/>
        <pt x="473" y="717" on="1"/>
        <pt x="474" y="715" on="0"/>
        <pt x="474" y="704" on="0"/>
        <pt x="451" y="659" on="0"/>
        <pt x="434" y="645" on="1"/>
        <pt x="430" y="641" on="0"/>
        <pt x="423" y="641" on="1"/>
        <pt x="417" y="644" on="0"/>
        <pt x="396" y="659" on="1"/>
        <pt x="343" y="698" on="0"/>
        <pt x="303" y="698" on="1"/>
        <pt x="220" y="698" on="0"/>
        <pt x="220" y="554" on="1"/>
        <pt x="220" y="424" on="1"/>
        <pt x="336" y="424" on="1"/>
        <pt x="338" y="415" on="0"/>
        <pt x="338" y="383" on="0"/>
        <pt x="325" y="361" on="1"/>
        <pt x="220" y="361" on="1"/>
        <pt x="219" y="76" on="1"/>
        <pt x="219" y="60" on="0"/>
        <pt x="242" y="45" on="0"/>
        <pt x="278" y="45" on="1"/>
        <pt x="289" y="-3" on="1"/>
        <pt x="184" y="0" on="0"/>
        <pt x="102" y="0" on="0"/>
        <pt x="35" y="-3" on="1"/>
        <pt x="25" y="45" on="1"/>
        <pt x="66" y="46" on="0"/>
        <pt x="95" y="61" on="0"/>
      </contour>
    </TTGlyph>
    <TTGlyph name="five" xMin="17" yMin="1" xMax="418" yMax="750">
      <contour>
        <pt x="197" y="680" on="1"/>
        <pt x="290" y="680" on="1"/>
        <pt x="325" y="680" on="0"/>
        <pt x="357" y="705" on="0"/>
        <pt x="374" y="750" on="1"/>
        <pt x="418" y="722" on="1"/>
        <pt x="418" y="661" on="0"/>
        <pt x="383" y="572" on="1"/>
        <pt x="335" y="584" on="0"/>
        <pt x="135" y="584" on="1"/>
        <pt x="130" y="567" on="0"/>
        <pt x="114" y="513" on="0"/>
        <pt x="109" y="495" on="1"/>
        <pt x="252" y="477" on="0"/>
        <pt x="407" y="354" on="0"/>
        <pt x="407" y="275" on="1"/>
        <pt x="407" y="211" on="0"/>
        <pt x="344" y="104" on="0"/>
        <pt x="294" y="70" on="1"/>
        <pt x="190" y="1" on="0"/>
        <pt x="67" y="1" on="1"/>
        <pt x="63" y="1" on="0"/>
        <pt x="52" y="21" on="0"/>
        <pt x="52" y="40" on="0"/>
        <pt x="62" y="43" on="1"/>
        <pt x="155" y="59" on="0"/>
        <pt x="281" y="162" on="0"/>
        <pt x="281" y="307" on="0"/>
        <pt x="126" y="386" on="0"/>
        <pt x="17" y="386" on="1"/>
        <pt x="89" y="652" on="1"/>
        <pt x="96" y="679" on="0"/>
        <pt x="108" y="691" on="1"/>
        <pt x="152" y="680" on="0"/>
      </contour>
    </TTGlyph>
    <TTGlyph name="four" xMin="3" yMin="-12" xMax="565" yMax="692">
      <contour>
        <pt x="311" y="228" on="1"/>
        <pt x="46" y="228" on="1"/>
        <pt x="27" y="228" on="0"/>
        <pt x="4" y="244" on="0"/>
        <pt x="4" y="259" on="0"/>
        <pt x="10" y="267" on="1"/>
        <pt x="373" y="680" on="1"/>
        <pt x="382" y="690" on="0"/>
        <pt x="403" y="692" on="0"/>
        <pt x="412" y="692" on="1"/>
        <pt x="431" y="692" on="1"/>
        <pt x="448" y="668" on="0"/>
        <pt x="447" y="651" on="1"/>
        <pt x="433" y="628" on="0"/>
        <pt x="433" y="572" on="1"/>
        <pt x="433" y="312" on="1"/>
        <pt x="457" y="312" on="1"/>
        <pt x="520" y="312" on="0"/>
        <pt x="549" y="330" on="1"/>
        <pt x="565" y="312" on="0"/>
        <pt x="565" y="297" on="1"/>
        <pt x="565" y="258" on="0"/>
        <pt x="535" y="213" on="1"/>
        <pt x="490" y="227" on="0"/>
        <pt x="433" y="228" on="1"/>
        <pt x="433" y="-12" on="1"/>
        <pt x="354" y="-10" on="0"/>
        <pt x="311" y="11" on="1"/>
      </contour>
      <contour>
        <pt x="315" y="312" on="1"/>
        <pt x="315" y="518" on="1"/>
        <pt x="144" y="312" on="1"/>
      </contour>
    </TTGlyph>
    <TTGlyph name="g" xMin="20" yMin="-267" xMax="505" yMax="448">
      <contour>
        <pt x="170" y="251" on="0"/>
        <pt x="219" y="188" on="0"/>
        <pt x="293" y="188" on="0"/>
        <pt x="332" y="248" on="0"/>
        <pt x="332" y="331" on="0"/>
        <pt x="285" y="391" on="0"/>
        <pt x="207" y="391" on="0"/>
        <pt x="170" y="337" on="0"/>
      </contour>
      <contour>
        <pt x="437" y="294" on="1"/>
        <pt x="437" y="217" on="0"/>
        <pt x="328" y="121" on="0"/>
        <pt x="248" y="121" on="1"/>
        <pt x="203" y="121" on="1"/>
        <pt x="172" y="113" on="0"/>
        <pt x="172" y="81" on="0"/>
        <pt x="207" y="75" on="1"/>
        <pt x="237" y="66" on="0"/>
        <pt x="310" y="61" on="1"/>
        <pt x="399" y="52" on="0"/>
        <pt x="422" y="43" on="1"/>
        <pt x="496" y="15" on="0"/>
        <pt x="496" y="-148" on="0"/>
        <pt x="336" y="-267" on="0"/>
        <pt x="139" y="-267" on="0"/>
        <pt x="20" y="-198" on="0"/>
        <pt x="20" y="-122" on="1"/>
        <pt x="20" y="-91" on="0"/>
        <pt x="41" y="-70" on="1"/>
        <pt x="49" y="-62" on="0"/>
        <pt x="127" y="-10" on="1"/>
        <pt x="105" y="0" on="0"/>
        <pt x="68" y="47" on="0"/>
        <pt x="68" y="79" on="0"/>
        <pt x="84" y="95" on="0"/>
        <pt x="159" y="140" on="0"/>
        <pt x="160" y="141" on="1"/>
        <pt x="120" y="155" on="0"/>
        <pt x="61" y="232" on="0"/>
        <pt x="61" y="279" on="1"/>
        <pt x="61" y="349" on="0"/>
        <pt x="162" y="448" on="0"/>
        <pt x="244" y="448" on="1"/>
        <pt x="268" y="448" on="0"/>
        <pt x="386" y="431" on="0"/>
        <pt x="485" y="431" on="0"/>
        <pt x="504" y="434" on="1"/>
        <pt x="504" y="431" on="0"/>
        <pt x="504" y="423" on="1"/>
        <pt x="504" y="379" on="0"/>
        <pt x="490" y="354" on="1"/>
        <pt x="404" y="370" on="1"/>
        <pt x="418" y="362" on="0"/>
        <pt x="437" y="313" on="0"/>
      </contour>
      <contour>
        <pt x="311" y="-203" on="0"/>
        <pt x="372" y="-149" on="0"/>
        <pt x="372" y="-108" on="1"/>
        <pt x="372" y="-29" on="0"/>
        <pt x="217" y="-29" on="1"/>
        <pt x="199" y="-29" on="0"/>
        <pt x="187" y="-36" on="1"/>
        <pt x="139" y="-67" on="0"/>
        <pt x="139" y="-118" on="1"/>
        <pt x="139" y="-157" on="0"/>
        <pt x="202" y="-203" on="0"/>
      </contour>
    </TTGlyph>
    <TTGlyph name="germandbls" xMin="25" yMin="-12" xMax="592" yMax="767">
      <contour>
        <pt x="95" y="76" on="1"/>
        <pt x="95" y="361" on="1"/>
        <pt x="45" y="361" on="1"/>
        <pt x="32" y="389" on="0"/>
        <pt x="32" y="402" on="1"/>
        <pt x="51" y="404" on="0"/>
        <pt x="95" y="416" on="1"/>
        <pt x="95" y="434" on="1"/>
        <pt x="95" y="560" on="0"/>
        <pt x="240" y="767" on="0"/>
        <pt x="346" y="767" on="1"/>
        <pt x="419" y="767" on="0"/>
        <pt x="543" y="683" on="0"/>
        <pt x="543" y="609" on="1"/>
        <pt x="543" y="575" on="0"/>
        <pt x="504" y="510" on="0"/>
        <pt x="456" y="469" on="0"/>
        <pt x="417" y="418" on="0"/>
        <pt x="417" y="377" on="0"/>
        <pt x="453" y="336" on="0"/>
        <pt x="505" y="296" on="0"/>
        <pt x="556" y="249" on="0"/>
        <pt x="592" y="180" on="0"/>
        <pt x="592" y="140" on="1"/>
        <pt x="592" y="76" on="0"/>
        <pt x="506" y="-12" on="0"/>
        <pt x="360" y="-12" on="0"/>
        <pt x="309" y="18" on="1"/>
        <pt x="305" y="23" on="0"/>
        <pt x="305" y="43" on="0"/>
        <pt x="315" y="90" on="0"/>
        <pt x="332" y="104" on="1"/>
        <pt x="335" y="106" on="0"/>
        <pt x="347" y="106" on="0"/>
        <pt x="350" y="102" on="1"/>
        <pt x="392" y="50" on="0"/>
        <pt x="435" y="50" on="1"/>
        <pt x="463" y="50" on="0"/>
        <pt x="497" y="83" on="0"/>
        <pt x="497" y="129" on="0"/>
        <pt x="479" y="159" on="0"/>
        <pt x="458" y="176" on="0"/>
        <pt x="417" y="207" on="0"/>
        <pt x="403" y="218" on="0"/>
        <pt x="363" y="252" on="0"/>
        <pt x="351" y="263" on="0"/>
        <pt x="322" y="293" on="0"/>
        <pt x="316" y="302" on="1"/>
        <pt x="300" y="331" on="0"/>
        <pt x="300" y="367" on="0"/>
        <pt x="307" y="390" on="0"/>
        <pt x="327" y="416" on="0"/>
        <pt x="338" y="429" on="0"/>
        <pt x="370" y="459" on="0"/>
        <pt x="396" y="485" on="0"/>
        <pt x="419" y="511" on="0"/>
        <pt x="443" y="558" on="0"/>
        <pt x="443" y="580" on="1"/>
        <pt x="443" y="633" on="0"/>
        <pt x="377" y="709" on="0"/>
        <pt x="323" y="709" on="1"/>
        <pt x="220" y="709" on="0"/>
        <pt x="220" y="554" on="1"/>
        <pt x="219" y="76" on="1"/>
        <pt x="219" y="60" on="0"/>
        <pt x="242" y="45" on="0"/>
        <pt x="278" y="45" on="1"/>
        <pt x="289" y="-3" on="1"/>
        <pt x="184" y="0" on="0"/>
        <pt x="102" y="0" on="0"/>
        <pt x="35" y="-3" on="1"/>
        <pt x="25" y="45" on="1"/>
        <pt x="66" y="46" on="0"/>
        <pt x="95" y="61" on="0"/>
      </contour>
    </TTGlyph>
    <TTGlyph name="grave" xMin="24" yMin="493" xMax="224" yMax="703">
      <contour>
        <pt x="25" y="656" on="1"/>
        <pt x="24" y="657" on="0"/>
        <pt x="24" y="661" on="0"/>
        <pt x="28" y="664" on="1"/>
        <pt x="89" y="703" on="0"/>
        <pt x="137" y="703" on="1"/>
        <pt x="224" y="522" on="1"/>
        <pt x="218" y="500" on="0"/>
        <pt x="188" y="493" on="1"/>
      </contour>
    </TTGlyph>
    <TTGlyph name="grave.cap" xMin="6" yMin="578" xMax="251" yMax="728">
      <contour>
        <pt x="249" y="622" on="1"/>
        <pt x="251" y="617" on="0"/>
        <pt x="251" y="595" on="0"/>
        <pt x="235" y="578" on="1"/>
        <pt x="9" y="629" on="1"/>
        <pt x="6" y="630" on="0"/>
        <pt x="6" y="634" on="0"/>
        <pt x="8" y="637" on="1"/>
        <pt x="37" y="701" on="0"/>
        <pt x="79" y="728" on="1"/>
      </contour>
    </TTGlyph>
    <TTGlyph name="greater" xMin="53" yMin="0" xMax="481" yMax="544">
      <contour>
        <pt x="479" y="323" on="1"/>
        <pt x="480" y="321" on="0"/>
        <pt x="480" y="299" on="0"/>
        <pt x="471" y="218" on="0"/>
        <pt x="466" y="213" on="1"/>
        <pt x="57" y="0" on="1"/>
        <pt x="54" y="10" on="0"/>
        <pt x="54" y="26" on="1"/>
        <pt x="54" y="82" on="0"/>
        <pt x="57" y="103" on="1"/>
        <pt x="368" y="271" on="1"/>
        <pt x="368" y="275" on="1"/>
        <pt x="57" y="442" on="1"/>
        <pt x="53" y="454" on="0"/>
        <pt x="53" y="539" on="0"/>
        <pt x="57" y="544" on="1"/>
      </contour>
    </TTGlyph>
    <TTGlyph name="guillemotleft" xMin="13" yMin="23" xMax="468" yMax="433">
      <contour>
        <pt x="263" y="433" on="1"/>
        <pt x="274" y="410" on="0"/>
        <pt x="274" y="367" on="0"/>
        <pt x="273" y="362" on="1"/>
        <pt x="114" y="230" on="1"/>
        <pt x="135" y="210" on="0"/>
        <pt x="252" y="120" on="0"/>
        <pt x="272" y="101" on="1"/>
        <pt x="273" y="98" on="0"/>
        <pt x="273" y="90" on="1"/>
        <pt x="273" y="48" on="0"/>
        <pt x="264" y="23" on="1"/>
        <pt x="246" y="41" on="0"/>
        <pt x="56" y="186" on="0"/>
        <pt x="27" y="193" on="1"/>
        <pt x="21" y="198" on="0"/>
        <pt x="13" y="234" on="0"/>
        <pt x="13" y="249" on="0"/>
        <pt x="14" y="253" on="1"/>
        <pt x="108" y="300" on="0"/>
        <pt x="236" y="410" on="1"/>
        <pt x="247" y="420" on="0"/>
      </contour>
      <contour>
        <pt x="453" y="432" on="1"/>
        <pt x="464" y="408" on="0"/>
        <pt x="464" y="366" on="0"/>
        <pt x="463" y="362" on="1"/>
        <pt x="304" y="230" on="1"/>
        <pt x="327" y="209" on="0"/>
        <pt x="445" y="121" on="0"/>
        <pt x="467" y="101" on="1"/>
        <pt x="468" y="99" on="0"/>
        <pt x="468" y="86" on="0"/>
        <pt x="458" y="36" on="0"/>
        <pt x="454" y="23" on="1"/>
        <pt x="431" y="46" on="0"/>
        <pt x="254" y="186" on="0"/>
        <pt x="226" y="193" on="1"/>
        <pt x="220" y="198" on="0"/>
        <pt x="214" y="236" on="0"/>
        <pt x="214" y="251" on="0"/>
        <pt x="215" y="254" on="1"/>
        <pt x="291" y="298" on="0"/>
        <pt x="382" y="367" on="0"/>
      </contour>
    </TTGlyph>
    <TTGlyph name="guillemotright" xMin="34" yMin="23" xMax="489" yMax="433">
      <contour>
        <pt x="238" y="23" on="1"/>
        <pt x="229" y="48" on="0"/>
        <pt x="229" y="98" on="0"/>
        <pt x="230" y="101" on="1"/>
        <pt x="250" y="120" on="0"/>
        <pt x="367" y="210" on="0"/>
        <pt x="388" y="230" on="1"/>
        <pt x="229" y="362" on="1"/>
        <pt x="228" y="367" on="0"/>
        <pt x="228" y="375" on="1"/>
        <pt x="228" y="410" on="0"/>
        <pt x="239" y="433" on="1"/>
        <pt x="255" y="420" on="0"/>
        <pt x="277" y="401" on="0"/>
        <pt x="310" y="374" on="0"/>
        <pt x="345" y="347" on="0"/>
        <pt x="388" y="316" on="0"/>
        <pt x="408" y="302" on="1"/>
        <pt x="453" y="271" on="0"/>
        <pt x="488" y="253" on="1"/>
        <pt x="489" y="249" on="0"/>
        <pt x="489" y="234" on="0"/>
        <pt x="481" y="198" on="0"/>
        <pt x="475" y="193" on="1"/>
        <pt x="446" y="186" on="0"/>
        <pt x="256" y="41" on="0"/>
      </contour>
      <contour>
        <pt x="287" y="254" on="1"/>
        <pt x="288" y="251" on="0"/>
        <pt x="288" y="236" on="0"/>
        <pt x="282" y="198" on="0"/>
        <pt x="276" y="193" on="1"/>
        <pt x="248" y="186" on="0"/>
        <pt x="71" y="46" on="0"/>
        <pt x="48" y="23" on="1"/>
        <pt x="34" y="67" on="0"/>
        <pt x="34" y="99" on="0"/>
        <pt x="35" y="101" on="1"/>
        <pt x="57" y="121" on="0"/>
        <pt x="175" y="209" on="0"/>
        <pt x="198" y="230" on="1"/>
        <pt x="39" y="362" on="1"/>
        <pt x="38" y="366" on="0"/>
        <pt x="38" y="373" on="1"/>
        <pt x="38" y="408" on="0"/>
        <pt x="49" y="432" on="1"/>
        <pt x="120" y="367" on="0"/>
        <pt x="211" y="298" on="0"/>
      </contour>
    </TTGlyph>
    <TTGlyph name="guilsinglleft" xMin="53" yMin="34" xMax="325" yMax="404">
      <contour>
        <pt x="313" y="404" on="1"/>
        <pt x="324" y="381" on="0"/>
        <pt x="324" y="338" on="0"/>
        <pt x="323" y="333" on="1"/>
        <pt x="154" y="221" on="1"/>
        <pt x="177" y="199" on="0"/>
        <pt x="305" y="126" on="0"/>
        <pt x="322" y="112" on="1"/>
        <pt x="323" y="109" on="0"/>
        <pt x="323" y="101" on="1"/>
        <pt x="323" y="59" on="0"/>
        <pt x="314" y="34" on="1"/>
        <pt x="302" y="46" on="0"/>
        <pt x="96" y="177" on="0"/>
        <pt x="67" y="184" on="1"/>
        <pt x="61" y="189" on="0"/>
        <pt x="53" y="225" on="0"/>
        <pt x="53" y="240" on="0"/>
        <pt x="54" y="244" on="1"/>
        <pt x="140" y="288" on="0"/>
        <pt x="308" y="400" on="0"/>
      </contour>
    </TTGlyph>
    <TTGlyph name="guilsinglright" xMin="73" yMin="34" xMax="345" yMax="404">
      <contour>
        <pt x="84" y="34" on="1"/>
        <pt x="75" y="59" on="0"/>
        <pt x="75" y="109" on="0"/>
        <pt x="76" y="112" on="1"/>
        <pt x="93" y="126" on="0"/>
        <pt x="221" y="199" on="0"/>
        <pt x="244" y="221" on="1"/>
        <pt x="75" y="333" on="1"/>
        <pt x="74" y="338" on="0"/>
        <pt x="74" y="346" on="1"/>
        <pt x="74" y="381" on="0"/>
        <pt x="85" y="404" on="1"/>
        <pt x="112" y="382" on="0"/>
        <pt x="299" y="267" on="0"/>
        <pt x="344" y="244" on="1"/>
        <pt x="345" y="240" on="0"/>
        <pt x="345" y="225" on="0"/>
        <pt x="337" y="189" on="0"/>
        <pt x="331" y="184" on="1"/>
        <pt x="302" y="177" on="0"/>
        <pt x="96" y="46" on="0"/>
      </contour>
    </TTGlyph>
    <TTGlyph name="h" xMin="23" yMin="-3" xMax="591" yMax="766">
      <contour>
        <pt x="220" y="737" on="1"/>
        <pt x="220" y="388" on="1"/>
        <pt x="296" y="428" on="0"/>
        <pt x="366" y="448" on="0"/>
        <pt x="391" y="448" on="1"/>
        <pt x="449" y="448" on="0"/>
        <pt x="521" y="364" on="0"/>
        <pt x="521" y="284" on="1"/>
        <pt x="521" y="76" on="1"/>
        <pt x="521" y="60" on="0"/>
        <pt x="544" y="45" on="0"/>
        <pt x="580" y="45" on="1"/>
        <pt x="591" y="-3" on="1"/>
        <pt x="486" y="0" on="0"/>
        <pt x="404" y="0" on="0"/>
        <pt x="337" y="-3" on="1"/>
        <pt x="327" y="45" on="1"/>
        <pt x="368" y="46" on="0"/>
        <pt x="397" y="61" on="0"/>
        <pt x="397" y="76" on="1"/>
        <pt x="397" y="254" on="1"/>
        <pt x="397" y="307" on="0"/>
        <pt x="362" y="358" on="0"/>
        <pt x="274" y="358" on="0"/>
        <pt x="220" y="335" on="1"/>
        <pt x="220" y="76" on="1"/>
        <pt x="220" y="45" on="0"/>
        <pt x="284" y="45" on="1"/>
        <pt x="295" y="-3" on="1"/>
        <pt x="190" y="0" on="0"/>
        <pt x="108" y="0" on="0"/>
        <pt x="41" y="-3" on="1"/>
        <pt x="31" y="45" on="1"/>
        <pt x="72" y="46" on="0"/>
        <pt x="101" y="61" on="0"/>
        <pt x="101" y="76" on="1"/>
        <pt x="101" y="619" on="1"/>
        <pt x="101" y="656" on="0"/>
        <pt x="77" y="676" on="0"/>
        <pt x="46" y="676" on="0"/>
        <pt x="36" y="675" on="1"/>
        <pt x="23" y="713" on="1"/>
        <pt x="114" y="736" on="0"/>
        <pt x="190" y="766" on="1"/>
        <pt x="209" y="766" on="0"/>
        <pt x="220" y="751" on="0"/>
      </contour>
    </TTGlyph>
    <TTGlyph name="hyphen" xMin="49" yMin="173" xMax="331" yMax="264">
      <contour>
        <pt x="52" y="264" on="1"/>
        <pt x="52" y="264" on="0"/>
        <pt x="205" y="263" on="1"/>
        <pt x="311" y="264" on="1"/>
        <pt x="318" y="256" on="0"/>
        <pt x="331" y="189" on="0"/>
        <pt x="331" y="173" on="1"/>
        <pt x="204" y="174" on="1"/>
        <pt x="63" y="173" on="1"/>
        <pt x="56" y="180" on="0"/>
        <pt x="49" y="229" on="0"/>
        <pt x="49" y="255" on="0"/>
      </contour>
    </TTGlyph>
    <TTGlyph name="i" xMin="23" yMin="-3" xMax="304" yMax="685">
      <contour>
        <pt x="234" y="433" on="1"/>
        <pt x="234" y="76" on="1"/>
        <pt x="234" y="60" on="0"/>
        <pt x="257" y="45" on="0"/>
        <pt x="293" y="45" on="1"/>
        <pt x="304" y="-3" on="1"/>
        <pt x="199" y="0" on="0"/>
        <pt x="118" y="0" on="0"/>
        <pt x="51" y="-3" on="1"/>
        <pt x="41" y="45" on="1"/>
        <pt x="82" y="46" on="0"/>
        <pt x="110" y="61" on="0"/>
        <pt x="110" y="76" on="1"/>
        <pt x="110" y="316" on="1"/>
        <pt x="110" y="339" on="0"/>
        <pt x="86" y="364" on="0"/>
        <pt x="50" y="364" on="1"/>
        <pt x="37" y="364" on="1"/>
        <pt x="23" y="405" on="1"/>
        <pt x="113" y="426" on="0"/>
        <pt x="201" y="456" on="1"/>
        <pt x="222" y="456" on="0"/>
        <pt x="234" y="447" on="0"/>
      </contour>
      <contour>
        <pt x="143" y="551" on="0"/>
        <pt x="103" y="587" on="0"/>
        <pt x="103" y="643" on="0"/>
        <pt x="146" y="685" on="0"/>
        <pt x="200" y="685" on="0"/>
        <pt x="240" y="649" on="0"/>
        <pt x="240" y="593" on="0"/>
        <pt x="197" y="551" on="0"/>
      </contour>
    </TTGlyph>
    <TTGlyph name="iacute" xMin="23" yMin="-3" xMax="309" yMax="722">
      <contour>
        <pt x="234" y="433" on="1"/>
        <pt x="234" y="76" on="1"/>
        <pt x="234" y="60" on="0"/>
        <pt x="257" y="45" on="0"/>
        <pt x="293" y="45" on="1"/>
        <pt x="304" y="-3" on="1"/>
        <pt x="199" y="0" on="0"/>
        <pt x="118" y="0" on="0"/>
        <pt x="51" y="-3" on="1"/>
        <pt x="41" y="45" on="1"/>
        <pt x="82" y="46" on="0"/>
        <pt x="110" y="61" on="0"/>
        <pt x="110" y="76" on="1"/>
        <pt x="110" y="316" on="1"/>
        <pt x="110" y="339" on="0"/>
        <pt x="86" y="364" on="0"/>
        <pt x="50" y="364" on="1"/>
        <pt x="37" y="364" on="1"/>
        <pt x="23" y="405" on="1"/>
        <pt x="113" y="426" on="0"/>
        <pt x="201" y="456" on="1"/>
        <pt x="222" y="456" on="0"/>
        <pt x="234" y="447" on="0"/>
      </contour>
      <contour>
        <pt x="305" y="683" on="1"/>
        <pt x="309" y="680" on="0"/>
        <pt x="309" y="676" on="0"/>
        <pt x="308" y="675" on="1"/>
        <pt x="145" y="512" on="1"/>
        <pt x="115" y="519" on="0"/>
        <pt x="109" y="541" on="1"/>
        <pt x="196" y="722" on="1"/>
        <pt x="244" y="722" on="0"/>
      </contour>
    </TTGlyph>
    <TTGlyph name="icircumflex" xMin="12" yMin="-3" xMax="304" yMax="695">
      <contour>
        <pt x="234" y="433" on="1"/>
        <pt x="234" y="76" on="1"/>
        <pt x="234" y="60" on="0"/>
        <pt x="257" y="45" on="0"/>
        <pt x="293" y="45" on="1"/>
        <pt x="304" y="-3" on="1"/>
        <pt x="199" y="0" on="0"/>
        <pt x="118" y="0" on="0"/>
        <pt x="51" y="-3" on="1"/>
        <pt x="41" y="45" on="1"/>
        <pt x="82" y="46" on="0"/>
        <pt x="110" y="61" on="0"/>
        <pt x="110" y="76" on="1"/>
        <pt x="110" y="316" on="1"/>
        <pt x="110" y="339" on="0"/>
        <pt x="86" y="364" on="0"/>
        <pt x="50" y="364" on="1"/>
        <pt x="37" y="364" on="1"/>
        <pt x="23" y="405" on="1"/>
        <pt x="113" y="426" on="0"/>
        <pt x="201" y="456" on="1"/>
        <pt x="222" y="456" on="0"/>
        <pt x="234" y="447" on="0"/>
      </contour>
      <contour>
        <pt x="98" y="693" on="1"/>
        <pt x="158" y="695" on="0"/>
        <pt x="202" y="695" on="0"/>
        <pt x="207" y="683" on="1"/>
        <pt x="287" y="511" on="1"/>
        <pt x="287" y="505" on="0"/>
        <pt x="270" y="488" on="0"/>
        <pt x="251" y="482" on="1"/>
        <pt x="149" y="605" on="1"/>
        <pt x="48" y="482" on="1"/>
        <pt x="20" y="489" on="0"/>
        <pt x="12" y="511" on="1"/>
      </contour>
    </TTGlyph>
</ttFont>
